<?xml version="1.0" encoding="utf-8" standalone="no"?>
<!DOCTYPE svg PUBLIC "-//W3C//DTD SVG 1.1//EN"
  "http://www.w3.org/Graphics/SVG/1.1/DTD/svg11.dtd">
<!-- Created with matplotlib (https://matplotlib.org/) -->
<svg height="288pt" version="1.1" viewBox="0 0 432 288" width="432pt" xmlns="http://www.w3.org/2000/svg" xmlns:xlink="http://www.w3.org/1999/xlink">
 <defs>
  <style type="text/css">
*{stroke-linecap:butt;stroke-linejoin:round;}
  </style>
 </defs>
 <g id="figure_1">
  <g id="patch_1">
   <path d="M 0 288 
L 432 288 
L 432 0 
L 0 0 
z
" style="fill:#ffffff;"/>
  </g>
  <g id="axes_1">
   <g id="patch_2">
    <path d="M 54 252 
L 388.8 252 
L 388.8 34.56 
L 54 34.56 
z
" style="fill:#ffffff;"/>
   </g>
   <g id="matplotlib.axis_1">
    <g id="xtick_1">
     <g id="line2d_1">
      <defs>
       <path d="M 0 0 
L 0 3.5 
" id="m294d48fd80" style="stroke:#000000;stroke-width:0.8;"/>
      </defs>
      <g>
       <use style="stroke:#000000;stroke-width:0.8;" x="69.218182" xlink:href="#m294d48fd80" y="252"/>
      </g>
     </g>
     <g id="text_1">
      <!-- 0 -->
      <defs>
       <path d="M 31.78125 66.40625 
Q 24.171875 66.40625 20.328125 58.90625 
Q 16.5 51.421875 16.5 36.375 
Q 16.5 21.390625 20.328125 13.890625 
Q 24.171875 6.390625 31.78125 6.390625 
Q 39.453125 6.390625 43.28125 13.890625 
Q 47.125 21.390625 47.125 36.375 
Q 47.125 51.421875 43.28125 58.90625 
Q 39.453125 66.40625 31.78125 66.40625 
z
M 31.78125 74.21875 
Q 44.046875 74.21875 50.515625 64.515625 
Q 56.984375 54.828125 56.984375 36.375 
Q 56.984375 17.96875 50.515625 8.265625 
Q 44.046875 -1.421875 31.78125 -1.421875 
Q 19.53125 -1.421875 13.0625 8.265625 
Q 6.59375 17.96875 6.59375 36.375 
Q 6.59375 54.828125 13.0625 64.515625 
Q 19.53125 74.21875 31.78125 74.21875 
z
" id="DejaVuSans-48"/>
      </defs>
      <g transform="translate(66.036932 266.598437)scale(0.1 -0.1)">
       <use xlink:href="#DejaVuSans-48"/>
      </g>
     </g>
    </g>
    <g id="xtick_2">
     <g id="line2d_2">
      <g>
       <use style="stroke:#000000;stroke-width:0.8;" x="108.040074" xlink:href="#m294d48fd80" y="252"/>
      </g>
     </g>
     <g id="text_2">
      <!-- 50 -->
      <defs>
       <path d="M 10.796875 72.90625 
L 49.515625 72.90625 
L 49.515625 64.59375 
L 19.828125 64.59375 
L 19.828125 46.734375 
Q 21.96875 47.46875 24.109375 47.828125 
Q 26.265625 48.1875 28.421875 48.1875 
Q 40.625 48.1875 47.75 41.5 
Q 54.890625 34.8125 54.890625 23.390625 
Q 54.890625 11.625 47.5625 5.09375 
Q 40.234375 -1.421875 26.90625 -1.421875 
Q 22.3125 -1.421875 17.546875 -0.640625 
Q 12.796875 0.140625 7.71875 1.703125 
L 7.71875 11.625 
Q 12.109375 9.234375 16.796875 8.0625 
Q 21.484375 6.890625 26.703125 6.890625 
Q 35.15625 6.890625 40.078125 11.328125 
Q 45.015625 15.765625 45.015625 23.390625 
Q 45.015625 31 40.078125 35.4375 
Q 35.15625 39.890625 26.703125 39.890625 
Q 22.75 39.890625 18.8125 39.015625 
Q 14.890625 38.140625 10.796875 36.28125 
z
" id="DejaVuSans-53"/>
      </defs>
      <g transform="translate(101.677574 266.598437)scale(0.1 -0.1)">
       <use xlink:href="#DejaVuSans-53"/>
       <use x="63.623047" xlink:href="#DejaVuSans-48"/>
      </g>
     </g>
    </g>
    <g id="xtick_3">
     <g id="line2d_3">
      <g>
       <use style="stroke:#000000;stroke-width:0.8;" x="146.861967" xlink:href="#m294d48fd80" y="252"/>
      </g>
     </g>
     <g id="text_3">
      <!-- 100 -->
      <defs>
       <path d="M 12.40625 8.296875 
L 28.515625 8.296875 
L 28.515625 63.921875 
L 10.984375 60.40625 
L 10.984375 69.390625 
L 28.421875 72.90625 
L 38.28125 72.90625 
L 38.28125 8.296875 
L 54.390625 8.296875 
L 54.390625 0 
L 12.40625 0 
z
" id="DejaVuSans-49"/>
      </defs>
      <g transform="translate(137.318217 266.598437)scale(0.1 -0.1)">
       <use xlink:href="#DejaVuSans-49"/>
       <use x="63.623047" xlink:href="#DejaVuSans-48"/>
       <use x="127.246094" xlink:href="#DejaVuSans-48"/>
      </g>
     </g>
    </g>
    <g id="xtick_4">
     <g id="line2d_4">
      <g>
       <use style="stroke:#000000;stroke-width:0.8;" x="185.683859" xlink:href="#m294d48fd80" y="252"/>
      </g>
     </g>
     <g id="text_4">
      <!-- 150 -->
      <g transform="translate(176.140109 266.598437)scale(0.1 -0.1)">
       <use xlink:href="#DejaVuSans-49"/>
       <use x="63.623047" xlink:href="#DejaVuSans-53"/>
       <use x="127.246094" xlink:href="#DejaVuSans-48"/>
      </g>
     </g>
    </g>
    <g id="xtick_5">
     <g id="line2d_5">
      <g>
       <use style="stroke:#000000;stroke-width:0.8;" x="224.505751" xlink:href="#m294d48fd80" y="252"/>
      </g>
     </g>
     <g id="text_5">
      <!-- 200 -->
      <defs>
       <path d="M 19.1875 8.296875 
L 53.609375 8.296875 
L 53.609375 0 
L 7.328125 0 
L 7.328125 8.296875 
Q 12.9375 14.109375 22.625 23.890625 
Q 32.328125 33.6875 34.8125 36.53125 
Q 39.546875 41.84375 41.421875 45.53125 
Q 43.3125 49.21875 43.3125 52.78125 
Q 43.3125 58.59375 39.234375 62.25 
Q 35.15625 65.921875 28.609375 65.921875 
Q 23.96875 65.921875 18.8125 64.3125 
Q 13.671875 62.703125 7.8125 59.421875 
L 7.8125 69.390625 
Q 13.765625 71.78125 18.9375 73 
Q 24.125 74.21875 28.421875 74.21875 
Q 39.75 74.21875 46.484375 68.546875 
Q 53.21875 62.890625 53.21875 53.421875 
Q 53.21875 48.921875 51.53125 44.890625 
Q 49.859375 40.875 45.40625 35.40625 
Q 44.1875 33.984375 37.640625 27.21875 
Q 31.109375 20.453125 19.1875 8.296875 
z
" id="DejaVuSans-50"/>
      </defs>
      <g transform="translate(214.962001 266.598437)scale(0.1 -0.1)">
       <use xlink:href="#DejaVuSans-50"/>
       <use x="63.623047" xlink:href="#DejaVuSans-48"/>
       <use x="127.246094" xlink:href="#DejaVuSans-48"/>
      </g>
     </g>
    </g>
    <g id="xtick_6">
     <g id="line2d_6">
      <g>
       <use style="stroke:#000000;stroke-width:0.8;" x="263.327644" xlink:href="#m294d48fd80" y="252"/>
      </g>
     </g>
     <g id="text_6">
      <!-- 250 -->
      <g transform="translate(253.783894 266.598437)scale(0.1 -0.1)">
       <use xlink:href="#DejaVuSans-50"/>
       <use x="63.623047" xlink:href="#DejaVuSans-53"/>
       <use x="127.246094" xlink:href="#DejaVuSans-48"/>
      </g>
     </g>
    </g>
    <g id="xtick_7">
     <g id="line2d_7">
      <g>
       <use style="stroke:#000000;stroke-width:0.8;" x="302.149536" xlink:href="#m294d48fd80" y="252"/>
      </g>
     </g>
     <g id="text_7">
      <!-- 300 -->
      <defs>
       <path d="M 40.578125 39.3125 
Q 47.65625 37.796875 51.625 33 
Q 55.609375 28.21875 55.609375 21.1875 
Q 55.609375 10.40625 48.1875 4.484375 
Q 40.765625 -1.421875 27.09375 -1.421875 
Q 22.515625 -1.421875 17.65625 -0.515625 
Q 12.796875 0.390625 7.625 2.203125 
L 7.625 11.71875 
Q 11.71875 9.328125 16.59375 8.109375 
Q 21.484375 6.890625 26.8125 6.890625 
Q 36.078125 6.890625 40.9375 10.546875 
Q 45.796875 14.203125 45.796875 21.1875 
Q 45.796875 27.640625 41.28125 31.265625 
Q 36.765625 34.90625 28.71875 34.90625 
L 20.21875 34.90625 
L 20.21875 43.015625 
L 29.109375 43.015625 
Q 36.375 43.015625 40.234375 45.921875 
Q 44.09375 48.828125 44.09375 54.296875 
Q 44.09375 59.90625 40.109375 62.90625 
Q 36.140625 65.921875 28.71875 65.921875 
Q 24.65625 65.921875 20.015625 65.03125 
Q 15.375 64.15625 9.8125 62.3125 
L 9.8125 71.09375 
Q 15.4375 72.65625 20.34375 73.4375 
Q 25.25 74.21875 29.59375 74.21875 
Q 40.828125 74.21875 47.359375 69.109375 
Q 53.90625 64.015625 53.90625 55.328125 
Q 53.90625 49.265625 50.4375 45.09375 
Q 46.96875 40.921875 40.578125 39.3125 
z
" id="DejaVuSans-51"/>
      </defs>
      <g transform="translate(292.605786 266.598437)scale(0.1 -0.1)">
       <use xlink:href="#DejaVuSans-51"/>
       <use x="63.623047" xlink:href="#DejaVuSans-48"/>
       <use x="127.246094" xlink:href="#DejaVuSans-48"/>
      </g>
     </g>
    </g>
    <g id="xtick_8">
     <g id="line2d_8">
      <g>
       <use style="stroke:#000000;stroke-width:0.8;" x="340.971429" xlink:href="#m294d48fd80" y="252"/>
      </g>
     </g>
     <g id="text_8">
      <!-- 350 -->
      <g transform="translate(331.427679 266.598437)scale(0.1 -0.1)">
       <use xlink:href="#DejaVuSans-51"/>
       <use x="63.623047" xlink:href="#DejaVuSans-53"/>
       <use x="127.246094" xlink:href="#DejaVuSans-48"/>
      </g>
     </g>
    </g>
    <g id="xtick_9">
     <g id="line2d_9">
      <g>
       <use style="stroke:#000000;stroke-width:0.8;" x="379.793321" xlink:href="#m294d48fd80" y="252"/>
      </g>
     </g>
     <g id="text_9">
      <!-- 400 -->
      <defs>
       <path d="M 37.796875 64.3125 
L 12.890625 25.390625 
L 37.796875 25.390625 
z
M 35.203125 72.90625 
L 47.609375 72.90625 
L 47.609375 25.390625 
L 58.015625 25.390625 
L 58.015625 17.1875 
L 47.609375 17.1875 
L 47.609375 0 
L 37.796875 0 
L 37.796875 17.1875 
L 4.890625 17.1875 
L 4.890625 26.703125 
z
" id="DejaVuSans-52"/>
      </defs>
      <g transform="translate(370.249571 266.598437)scale(0.1 -0.1)">
       <use xlink:href="#DejaVuSans-52"/>
       <use x="63.623047" xlink:href="#DejaVuSans-48"/>
       <use x="127.246094" xlink:href="#DejaVuSans-48"/>
      </g>
     </g>
    </g>
    <g id="text_10">
     <!-- GMRES iterations -->
     <defs>
      <path d="M 59.515625 10.40625 
L 59.515625 29.984375 
L 43.40625 29.984375 
L 43.40625 38.09375 
L 69.28125 38.09375 
L 69.28125 6.78125 
Q 63.578125 2.734375 56.6875 0.65625 
Q 49.8125 -1.421875 42 -1.421875 
Q 24.90625 -1.421875 15.25 8.5625 
Q 5.609375 18.5625 5.609375 36.375 
Q 5.609375 54.25 15.25 64.234375 
Q 24.90625 74.21875 42 74.21875 
Q 49.125 74.21875 55.546875 72.453125 
Q 61.96875 70.703125 67.390625 67.28125 
L 67.390625 56.78125 
Q 61.921875 61.421875 55.765625 63.765625 
Q 49.609375 66.109375 42.828125 66.109375 
Q 29.4375 66.109375 22.71875 58.640625 
Q 16.015625 51.171875 16.015625 36.375 
Q 16.015625 21.625 22.71875 14.15625 
Q 29.4375 6.6875 42.828125 6.6875 
Q 48.046875 6.6875 52.140625 7.59375 
Q 56.25 8.5 59.515625 10.40625 
z
" id="DejaVuSans-71"/>
      <path d="M 9.8125 72.90625 
L 24.515625 72.90625 
L 43.109375 23.296875 
L 61.8125 72.90625 
L 76.515625 72.90625 
L 76.515625 0 
L 66.890625 0 
L 66.890625 64.015625 
L 48.09375 14.015625 
L 38.1875 14.015625 
L 19.390625 64.015625 
L 19.390625 0 
L 9.8125 0 
z
" id="DejaVuSans-77"/>
      <path d="M 44.390625 34.1875 
Q 47.5625 33.109375 50.5625 29.59375 
Q 53.5625 26.078125 56.59375 19.921875 
L 66.609375 0 
L 56 0 
L 46.6875 18.703125 
Q 43.0625 26.03125 39.671875 28.421875 
Q 36.28125 30.8125 30.421875 30.8125 
L 19.671875 30.8125 
L 19.671875 0 
L 9.8125 0 
L 9.8125 72.90625 
L 32.078125 72.90625 
Q 44.578125 72.90625 50.734375 67.671875 
Q 56.890625 62.453125 56.890625 51.90625 
Q 56.890625 45.015625 53.6875 40.46875 
Q 50.484375 35.9375 44.390625 34.1875 
z
M 19.671875 64.796875 
L 19.671875 38.921875 
L 32.078125 38.921875 
Q 39.203125 38.921875 42.84375 42.21875 
Q 46.484375 45.515625 46.484375 51.90625 
Q 46.484375 58.296875 42.84375 61.546875 
Q 39.203125 64.796875 32.078125 64.796875 
z
" id="DejaVuSans-82"/>
      <path d="M 9.8125 72.90625 
L 55.90625 72.90625 
L 55.90625 64.59375 
L 19.671875 64.59375 
L 19.671875 43.015625 
L 54.390625 43.015625 
L 54.390625 34.71875 
L 19.671875 34.71875 
L 19.671875 8.296875 
L 56.78125 8.296875 
L 56.78125 0 
L 9.8125 0 
z
" id="DejaVuSans-69"/>
      <path d="M 53.515625 70.515625 
L 53.515625 60.890625 
Q 47.90625 63.578125 42.921875 64.890625 
Q 37.9375 66.21875 33.296875 66.21875 
Q 25.25 66.21875 20.875 63.09375 
Q 16.5 59.96875 16.5 54.203125 
Q 16.5 49.359375 19.40625 46.890625 
Q 22.3125 44.4375 30.421875 42.921875 
L 36.375 41.703125 
Q 47.40625 39.59375 52.65625 34.296875 
Q 57.90625 29 57.90625 20.125 
Q 57.90625 9.515625 50.796875 4.046875 
Q 43.703125 -1.421875 29.984375 -1.421875 
Q 24.8125 -1.421875 18.96875 -0.25 
Q 13.140625 0.921875 6.890625 3.21875 
L 6.890625 13.375 
Q 12.890625 10.015625 18.65625 8.296875 
Q 24.421875 6.59375 29.984375 6.59375 
Q 38.421875 6.59375 43.015625 9.90625 
Q 47.609375 13.234375 47.609375 19.390625 
Q 47.609375 24.75 44.3125 27.78125 
Q 41.015625 30.8125 33.5 32.328125 
L 27.484375 33.5 
Q 16.453125 35.6875 11.515625 40.375 
Q 6.59375 45.0625 6.59375 53.421875 
Q 6.59375 63.09375 13.40625 68.65625 
Q 20.21875 74.21875 32.171875 74.21875 
Q 37.3125 74.21875 42.625 73.28125 
Q 47.953125 72.359375 53.515625 70.515625 
z
" id="DejaVuSans-83"/>
      <path id="DejaVuSans-32"/>
      <path d="M 9.421875 54.6875 
L 18.40625 54.6875 
L 18.40625 0 
L 9.421875 0 
z
M 9.421875 75.984375 
L 18.40625 75.984375 
L 18.40625 64.59375 
L 9.421875 64.59375 
z
" id="DejaVuSans-105"/>
      <path d="M 18.3125 70.21875 
L 18.3125 54.6875 
L 36.8125 54.6875 
L 36.8125 47.703125 
L 18.3125 47.703125 
L 18.3125 18.015625 
Q 18.3125 11.328125 20.140625 9.421875 
Q 21.96875 7.515625 27.59375 7.515625 
L 36.8125 7.515625 
L 36.8125 0 
L 27.59375 0 
Q 17.1875 0 13.234375 3.875 
Q 9.28125 7.765625 9.28125 18.015625 
L 9.28125 47.703125 
L 2.6875 47.703125 
L 2.6875 54.6875 
L 9.28125 54.6875 
L 9.28125 70.21875 
z
" id="DejaVuSans-116"/>
      <path d="M 56.203125 29.59375 
L 56.203125 25.203125 
L 14.890625 25.203125 
Q 15.484375 15.921875 20.484375 11.0625 
Q 25.484375 6.203125 34.421875 6.203125 
Q 39.59375 6.203125 44.453125 7.46875 
Q 49.3125 8.734375 54.109375 11.28125 
L 54.109375 2.78125 
Q 49.265625 0.734375 44.1875 -0.34375 
Q 39.109375 -1.421875 33.890625 -1.421875 
Q 20.796875 -1.421875 13.15625 6.1875 
Q 5.515625 13.8125 5.515625 26.8125 
Q 5.515625 40.234375 12.765625 48.109375 
Q 20.015625 56 32.328125 56 
Q 43.359375 56 49.78125 48.890625 
Q 56.203125 41.796875 56.203125 29.59375 
z
M 47.21875 32.234375 
Q 47.125 39.59375 43.09375 43.984375 
Q 39.0625 48.390625 32.421875 48.390625 
Q 24.90625 48.390625 20.390625 44.140625 
Q 15.875 39.890625 15.1875 32.171875 
z
" id="DejaVuSans-101"/>
      <path d="M 41.109375 46.296875 
Q 39.59375 47.171875 37.8125 47.578125 
Q 36.03125 48 33.890625 48 
Q 26.265625 48 22.1875 43.046875 
Q 18.109375 38.09375 18.109375 28.8125 
L 18.109375 0 
L 9.078125 0 
L 9.078125 54.6875 
L 18.109375 54.6875 
L 18.109375 46.1875 
Q 20.953125 51.171875 25.484375 53.578125 
Q 30.03125 56 36.53125 56 
Q 37.453125 56 38.578125 55.875 
Q 39.703125 55.765625 41.0625 55.515625 
z
" id="DejaVuSans-114"/>
      <path d="M 34.28125 27.484375 
Q 23.390625 27.484375 19.1875 25 
Q 14.984375 22.515625 14.984375 16.5 
Q 14.984375 11.71875 18.140625 8.90625 
Q 21.296875 6.109375 26.703125 6.109375 
Q 34.1875 6.109375 38.703125 11.40625 
Q 43.21875 16.703125 43.21875 25.484375 
L 43.21875 27.484375 
z
M 52.203125 31.203125 
L 52.203125 0 
L 43.21875 0 
L 43.21875 8.296875 
Q 40.140625 3.328125 35.546875 0.953125 
Q 30.953125 -1.421875 24.3125 -1.421875 
Q 15.921875 -1.421875 10.953125 3.296875 
Q 6 8.015625 6 15.921875 
Q 6 25.140625 12.171875 29.828125 
Q 18.359375 34.515625 30.609375 34.515625 
L 43.21875 34.515625 
L 43.21875 35.40625 
Q 43.21875 41.609375 39.140625 45 
Q 35.0625 48.390625 27.6875 48.390625 
Q 23 48.390625 18.546875 47.265625 
Q 14.109375 46.140625 10.015625 43.890625 
L 10.015625 52.203125 
Q 14.9375 54.109375 19.578125 55.046875 
Q 24.21875 56 28.609375 56 
Q 40.484375 56 46.34375 49.84375 
Q 52.203125 43.703125 52.203125 31.203125 
z
" id="DejaVuSans-97"/>
      <path d="M 30.609375 48.390625 
Q 23.390625 48.390625 19.1875 42.75 
Q 14.984375 37.109375 14.984375 27.296875 
Q 14.984375 17.484375 19.15625 11.84375 
Q 23.34375 6.203125 30.609375 6.203125 
Q 37.796875 6.203125 41.984375 11.859375 
Q 46.1875 17.53125 46.1875 27.296875 
Q 46.1875 37.015625 41.984375 42.703125 
Q 37.796875 48.390625 30.609375 48.390625 
z
M 30.609375 56 
Q 42.328125 56 49.015625 48.375 
Q 55.71875 40.765625 55.71875 27.296875 
Q 55.71875 13.875 49.015625 6.21875 
Q 42.328125 -1.421875 30.609375 -1.421875 
Q 18.84375 -1.421875 12.171875 6.21875 
Q 5.515625 13.875 5.515625 27.296875 
Q 5.515625 40.765625 12.171875 48.375 
Q 18.84375 56 30.609375 56 
z
" id="DejaVuSans-111"/>
      <path d="M 54.890625 33.015625 
L 54.890625 0 
L 45.90625 0 
L 45.90625 32.71875 
Q 45.90625 40.484375 42.875 44.328125 
Q 39.84375 48.1875 33.796875 48.1875 
Q 26.515625 48.1875 22.3125 43.546875 
Q 18.109375 38.921875 18.109375 30.90625 
L 18.109375 0 
L 9.078125 0 
L 9.078125 54.6875 
L 18.109375 54.6875 
L 18.109375 46.1875 
Q 21.34375 51.125 25.703125 53.5625 
Q 30.078125 56 35.796875 56 
Q 45.21875 56 50.046875 50.171875 
Q 54.890625 44.34375 54.890625 33.015625 
z
" id="DejaVuSans-110"/>
      <path d="M 44.28125 53.078125 
L 44.28125 44.578125 
Q 40.484375 46.53125 36.375 47.5 
Q 32.28125 48.484375 27.875 48.484375 
Q 21.1875 48.484375 17.84375 46.4375 
Q 14.5 44.390625 14.5 40.28125 
Q 14.5 37.15625 16.890625 35.375 
Q 19.28125 33.59375 26.515625 31.984375 
L 29.59375 31.296875 
Q 39.15625 29.25 43.1875 25.515625 
Q 47.21875 21.78125 47.21875 15.09375 
Q 47.21875 7.46875 41.1875 3.015625 
Q 35.15625 -1.421875 24.609375 -1.421875 
Q 20.21875 -1.421875 15.453125 -0.5625 
Q 10.6875 0.296875 5.421875 2 
L 5.421875 11.28125 
Q 10.40625 8.6875 15.234375 7.390625 
Q 20.0625 6.109375 24.8125 6.109375 
Q 31.15625 6.109375 34.5625 8.28125 
Q 37.984375 10.453125 37.984375 14.40625 
Q 37.984375 18.0625 35.515625 20.015625 
Q 33.0625 21.96875 24.703125 23.78125 
L 21.578125 24.515625 
Q 13.234375 26.265625 9.515625 29.90625 
Q 5.8125 33.546875 5.8125 39.890625 
Q 5.8125 47.609375 11.28125 51.796875 
Q 16.75 56 26.8125 56 
Q 31.78125 56 36.171875 55.265625 
Q 40.578125 54.546875 44.28125 53.078125 
z
" id="DejaVuSans-115"/>
     </defs>
     <g transform="translate(178.0875 280.276563)scale(0.1 -0.1)">
      <use xlink:href="#DejaVuSans-71"/>
      <use x="77.490234" xlink:href="#DejaVuSans-77"/>
      <use x="163.769531" xlink:href="#DejaVuSans-82"/>
      <use x="233.251953" xlink:href="#DejaVuSans-69"/>
      <use x="296.435547" xlink:href="#DejaVuSans-83"/>
      <use x="359.912109" xlink:href="#DejaVuSans-32"/>
      <use x="391.699219" xlink:href="#DejaVuSans-105"/>
      <use x="419.482422" xlink:href="#DejaVuSans-116"/>
      <use x="458.691406" xlink:href="#DejaVuSans-101"/>
      <use x="520.214844" xlink:href="#DejaVuSans-114"/>
      <use x="561.328125" xlink:href="#DejaVuSans-97"/>
      <use x="622.607422" xlink:href="#DejaVuSans-116"/>
      <use x="661.816406" xlink:href="#DejaVuSans-105"/>
      <use x="689.599609" xlink:href="#DejaVuSans-111"/>
      <use x="750.78125" xlink:href="#DejaVuSans-110"/>
      <use x="814.160156" xlink:href="#DejaVuSans-115"/>
     </g>
    </g>
   </g>
   <g id="matplotlib.axis_2">
    <g id="ytick_1">
     <g id="line2d_10">
      <defs>
       <path d="M 0 0 
L -3.5 0 
" id="mefa449e30a" style="stroke:#000000;stroke-width:0.8;"/>
      </defs>
      <g>
       <use style="stroke:#000000;stroke-width:0.8;" x="54" xlink:href="#mefa449e30a" y="240.44722"/>
      </g>
     </g>
     <g id="text_11">
      <!-- $\mathdefault{10^{-6}}$ -->
      <defs>
       <path d="M 10.59375 35.5 
L 73.1875 35.5 
L 73.1875 27.203125 
L 10.59375 27.203125 
z
" id="DejaVuSans-8722"/>
       <path d="M 33.015625 40.375 
Q 26.375 40.375 22.484375 35.828125 
Q 18.609375 31.296875 18.609375 23.390625 
Q 18.609375 15.53125 22.484375 10.953125 
Q 26.375 6.390625 33.015625 6.390625 
Q 39.65625 6.390625 43.53125 10.953125 
Q 47.40625 15.53125 47.40625 23.390625 
Q 47.40625 31.296875 43.53125 35.828125 
Q 39.65625 40.375 33.015625 40.375 
z
M 52.59375 71.296875 
L 52.59375 62.3125 
Q 48.875 64.0625 45.09375 64.984375 
Q 41.3125 65.921875 37.59375 65.921875 
Q 27.828125 65.921875 22.671875 59.328125 
Q 17.53125 52.734375 16.796875 39.40625 
Q 19.671875 43.65625 24.015625 45.921875 
Q 28.375 48.1875 33.59375 48.1875 
Q 44.578125 48.1875 50.953125 41.515625 
Q 57.328125 34.859375 57.328125 23.390625 
Q 57.328125 12.15625 50.6875 5.359375 
Q 44.046875 -1.421875 33.015625 -1.421875 
Q 20.359375 -1.421875 13.671875 8.265625 
Q 6.984375 17.96875 6.984375 36.375 
Q 6.984375 53.65625 15.1875 63.9375 
Q 23.390625 74.21875 37.203125 74.21875 
Q 40.921875 74.21875 44.703125 73.484375 
Q 48.484375 72.75 52.59375 71.296875 
z
" id="DejaVuSans-54"/>
      </defs>
      <g transform="translate(23.5 244.246439)scale(0.1 -0.1)">
       <use transform="translate(0 0.765625)" xlink:href="#DejaVuSans-49"/>
       <use transform="translate(63.623047 0.765625)" xlink:href="#DejaVuSans-48"/>
       <use transform="translate(128.203125 39.046875)scale(0.7)" xlink:href="#DejaVuSans-8722"/>
       <use transform="translate(186.855469 39.046875)scale(0.7)" xlink:href="#DejaVuSans-54"/>
      </g>
     </g>
    </g>
    <g id="ytick_2">
     <g id="line2d_11">
      <g>
       <use style="stroke:#000000;stroke-width:0.8;" x="54" xlink:href="#mefa449e30a" y="207.779956"/>
      </g>
     </g>
     <g id="text_12">
      <!-- $\mathdefault{10^{-5}}$ -->
      <g transform="translate(23.5 211.579175)scale(0.1 -0.1)">
       <use transform="translate(0 0.684375)" xlink:href="#DejaVuSans-49"/>
       <use transform="translate(63.623047 0.684375)" xlink:href="#DejaVuSans-48"/>
       <use transform="translate(128.203125 38.965625)scale(0.7)" xlink:href="#DejaVuSans-8722"/>
       <use transform="translate(186.855469 38.965625)scale(0.7)" xlink:href="#DejaVuSans-53"/>
      </g>
     </g>
    </g>
    <g id="ytick_3">
     <g id="line2d_12">
      <g>
       <use style="stroke:#000000;stroke-width:0.8;" x="54" xlink:href="#mefa449e30a" y="175.112692"/>
      </g>
     </g>
     <g id="text_13">
      <!-- $\mathdefault{10^{-4}}$ -->
      <g transform="translate(23.5 178.911911)scale(0.1 -0.1)">
       <use transform="translate(0 0.684375)" xlink:href="#DejaVuSans-49"/>
       <use transform="translate(63.623047 0.684375)" xlink:href="#DejaVuSans-48"/>
       <use transform="translate(128.203125 38.965625)scale(0.7)" xlink:href="#DejaVuSans-8722"/>
       <use transform="translate(186.855469 38.965625)scale(0.7)" xlink:href="#DejaVuSans-52"/>
      </g>
     </g>
    </g>
    <g id="ytick_4">
     <g id="line2d_13">
      <g>
       <use style="stroke:#000000;stroke-width:0.8;" x="54" xlink:href="#mefa449e30a" y="142.445428"/>
      </g>
     </g>
     <g id="text_14">
      <!-- $\mathdefault{10^{-3}}$ -->
      <g transform="translate(23.5 146.244647)scale(0.1 -0.1)">
       <use transform="translate(0 0.765625)" xlink:href="#DejaVuSans-49"/>
       <use transform="translate(63.623047 0.765625)" xlink:href="#DejaVuSans-48"/>
       <use transform="translate(128.203125 39.046875)scale(0.7)" xlink:href="#DejaVuSans-8722"/>
       <use transform="translate(186.855469 39.046875)scale(0.7)" xlink:href="#DejaVuSans-51"/>
      </g>
     </g>
    </g>
    <g id="ytick_5">
     <g id="line2d_14">
      <g>
       <use style="stroke:#000000;stroke-width:0.8;" x="54" xlink:href="#mefa449e30a" y="109.778164"/>
      </g>
     </g>
     <g id="text_15">
      <!-- $\mathdefault{10^{-2}}$ -->
      <g transform="translate(23.5 113.577383)scale(0.1 -0.1)">
       <use transform="translate(0 0.765625)" xlink:href="#DejaVuSans-49"/>
       <use transform="translate(63.623047 0.765625)" xlink:href="#DejaVuSans-48"/>
       <use transform="translate(128.203125 39.046875)scale(0.7)" xlink:href="#DejaVuSans-8722"/>
       <use transform="translate(186.855469 39.046875)scale(0.7)" xlink:href="#DejaVuSans-50"/>
      </g>
     </g>
    </g>
    <g id="ytick_6">
     <g id="line2d_15">
      <g>
       <use style="stroke:#000000;stroke-width:0.8;" x="54" xlink:href="#mefa449e30a" y="77.1109"/>
      </g>
     </g>
     <g id="text_16">
      <!-- $\mathdefault{10^{-1}}$ -->
      <g transform="translate(23.5 80.910119)scale(0.1 -0.1)">
       <use transform="translate(0 0.684375)" xlink:href="#DejaVuSans-49"/>
       <use transform="translate(63.623047 0.684375)" xlink:href="#DejaVuSans-48"/>
       <use transform="translate(128.203125 38.965625)scale(0.7)" xlink:href="#DejaVuSans-8722"/>
       <use transform="translate(186.855469 38.965625)scale(0.7)" xlink:href="#DejaVuSans-49"/>
      </g>
     </g>
    </g>
    <g id="ytick_7">
     <g id="line2d_16">
      <g>
       <use style="stroke:#000000;stroke-width:0.8;" x="54" xlink:href="#mefa449e30a" y="44.443636"/>
      </g>
     </g>
     <g id="text_17">
      <!-- $\mathdefault{10^{0}}$ -->
      <g transform="translate(29.4 48.242855)scale(0.1 -0.1)">
       <use transform="translate(0 0.765625)" xlink:href="#DejaVuSans-49"/>
       <use transform="translate(63.623047 0.765625)" xlink:href="#DejaVuSans-48"/>
       <use transform="translate(128.203125 39.046875)scale(0.7)" xlink:href="#DejaVuSans-48"/>
      </g>
     </g>
    </g>
    <g id="ytick_8">
     <g id="line2d_17">
      <defs>
       <path d="M 0 0 
L -2 0 
" id="mdda031b3b2" style="stroke:#000000;stroke-width:0.6;"/>
      </defs>
      <g>
       <use style="stroke:#000000;stroke-width:0.6;" x="54" xlink:href="#mdda031b3b2" y="250.281047"/>
      </g>
     </g>
    </g>
    <g id="ytick_9">
     <g id="line2d_18">
      <g>
       <use style="stroke:#000000;stroke-width:0.6;" x="54" xlink:href="#mdda031b3b2" y="247.694412"/>
      </g>
     </g>
    </g>
    <g id="ytick_10">
     <g id="line2d_19">
      <g>
       <use style="stroke:#000000;stroke-width:0.6;" x="54" xlink:href="#mdda031b3b2" y="245.507444"/>
      </g>
     </g>
    </g>
    <g id="ytick_11">
     <g id="line2d_20">
      <g>
       <use style="stroke:#000000;stroke-width:0.6;" x="54" xlink:href="#mdda031b3b2" y="243.613005"/>
      </g>
     </g>
    </g>
    <g id="ytick_12">
     <g id="line2d_21">
      <g>
       <use style="stroke:#000000;stroke-width:0.6;" x="54" xlink:href="#mdda031b3b2" y="241.941992"/>
      </g>
     </g>
    </g>
    <g id="ytick_13">
     <g id="line2d_22">
      <g>
       <use style="stroke:#000000;stroke-width:0.6;" x="54" xlink:href="#mdda031b3b2" y="230.613394"/>
      </g>
     </g>
    </g>
    <g id="ytick_14">
     <g id="line2d_23">
      <g>
       <use style="stroke:#000000;stroke-width:0.6;" x="54" xlink:href="#mdda031b3b2" y="224.860974"/>
      </g>
     </g>
    </g>
    <g id="ytick_15">
     <g id="line2d_24">
      <g>
       <use style="stroke:#000000;stroke-width:0.6;" x="54" xlink:href="#mdda031b3b2" y="220.779568"/>
      </g>
     </g>
    </g>
    <g id="ytick_16">
     <g id="line2d_25">
      <g>
       <use style="stroke:#000000;stroke-width:0.6;" x="54" xlink:href="#mdda031b3b2" y="217.613783"/>
      </g>
     </g>
    </g>
    <g id="ytick_17">
     <g id="line2d_26">
      <g>
       <use style="stroke:#000000;stroke-width:0.6;" x="54" xlink:href="#mdda031b3b2" y="215.027148"/>
      </g>
     </g>
    </g>
    <g id="ytick_18">
     <g id="line2d_27">
      <g>
       <use style="stroke:#000000;stroke-width:0.6;" x="54" xlink:href="#mdda031b3b2" y="212.84018"/>
      </g>
     </g>
    </g>
    <g id="ytick_19">
     <g id="line2d_28">
      <g>
       <use style="stroke:#000000;stroke-width:0.6;" x="54" xlink:href="#mdda031b3b2" y="210.945741"/>
      </g>
     </g>
    </g>
    <g id="ytick_20">
     <g id="line2d_29">
      <g>
       <use style="stroke:#000000;stroke-width:0.6;" x="54" xlink:href="#mdda031b3b2" y="209.274728"/>
      </g>
     </g>
    </g>
    <g id="ytick_21">
     <g id="line2d_30">
      <g>
       <use style="stroke:#000000;stroke-width:0.6;" x="54" xlink:href="#mdda031b3b2" y="197.94613"/>
      </g>
     </g>
    </g>
    <g id="ytick_22">
     <g id="line2d_31">
      <g>
       <use style="stroke:#000000;stroke-width:0.6;" x="54" xlink:href="#mdda031b3b2" y="192.19371"/>
      </g>
     </g>
    </g>
    <g id="ytick_23">
     <g id="line2d_32">
      <g>
       <use style="stroke:#000000;stroke-width:0.6;" x="54" xlink:href="#mdda031b3b2" y="188.112304"/>
      </g>
     </g>
    </g>
    <g id="ytick_24">
     <g id="line2d_33">
      <g>
       <use style="stroke:#000000;stroke-width:0.6;" x="54" xlink:href="#mdda031b3b2" y="184.946519"/>
      </g>
     </g>
    </g>
    <g id="ytick_25">
     <g id="line2d_34">
      <g>
       <use style="stroke:#000000;stroke-width:0.6;" x="54" xlink:href="#mdda031b3b2" y="182.359884"/>
      </g>
     </g>
    </g>
    <g id="ytick_26">
     <g id="line2d_35">
      <g>
       <use style="stroke:#000000;stroke-width:0.6;" x="54" xlink:href="#mdda031b3b2" y="180.172916"/>
      </g>
     </g>
    </g>
    <g id="ytick_27">
     <g id="line2d_36">
      <g>
       <use style="stroke:#000000;stroke-width:0.6;" x="54" xlink:href="#mdda031b3b2" y="178.278477"/>
      </g>
     </g>
    </g>
    <g id="ytick_28">
     <g id="line2d_37">
      <g>
       <use style="stroke:#000000;stroke-width:0.6;" x="54" xlink:href="#mdda031b3b2" y="176.607464"/>
      </g>
     </g>
    </g>
    <g id="ytick_29">
     <g id="line2d_38">
      <g>
       <use style="stroke:#000000;stroke-width:0.6;" x="54" xlink:href="#mdda031b3b2" y="165.278866"/>
      </g>
     </g>
    </g>
    <g id="ytick_30">
     <g id="line2d_39">
      <g>
       <use style="stroke:#000000;stroke-width:0.6;" x="54" xlink:href="#mdda031b3b2" y="159.526446"/>
      </g>
     </g>
    </g>
    <g id="ytick_31">
     <g id="line2d_40">
      <g>
       <use style="stroke:#000000;stroke-width:0.6;" x="54" xlink:href="#mdda031b3b2" y="155.44504"/>
      </g>
     </g>
    </g>
    <g id="ytick_32">
     <g id="line2d_41">
      <g>
       <use style="stroke:#000000;stroke-width:0.6;" x="54" xlink:href="#mdda031b3b2" y="152.279255"/>
      </g>
     </g>
    </g>
    <g id="ytick_33">
     <g id="line2d_42">
      <g>
       <use style="stroke:#000000;stroke-width:0.6;" x="54" xlink:href="#mdda031b3b2" y="149.69262"/>
      </g>
     </g>
    </g>
    <g id="ytick_34">
     <g id="line2d_43">
      <g>
       <use style="stroke:#000000;stroke-width:0.6;" x="54" xlink:href="#mdda031b3b2" y="147.505652"/>
      </g>
     </g>
    </g>
    <g id="ytick_35">
     <g id="line2d_44">
      <g>
       <use style="stroke:#000000;stroke-width:0.6;" x="54" xlink:href="#mdda031b3b2" y="145.611213"/>
      </g>
     </g>
    </g>
    <g id="ytick_36">
     <g id="line2d_45">
      <g>
       <use style="stroke:#000000;stroke-width:0.6;" x="54" xlink:href="#mdda031b3b2" y="143.9402"/>
      </g>
     </g>
    </g>
    <g id="ytick_37">
     <g id="line2d_46">
      <g>
       <use style="stroke:#000000;stroke-width:0.6;" x="54" xlink:href="#mdda031b3b2" y="132.611602"/>
      </g>
     </g>
    </g>
    <g id="ytick_38">
     <g id="line2d_47">
      <g>
       <use style="stroke:#000000;stroke-width:0.6;" x="54" xlink:href="#mdda031b3b2" y="126.859182"/>
      </g>
     </g>
    </g>
    <g id="ytick_39">
     <g id="line2d_48">
      <g>
       <use style="stroke:#000000;stroke-width:0.6;" x="54" xlink:href="#mdda031b3b2" y="122.777776"/>
      </g>
     </g>
    </g>
    <g id="ytick_40">
     <g id="line2d_49">
      <g>
       <use style="stroke:#000000;stroke-width:0.6;" x="54" xlink:href="#mdda031b3b2" y="119.611991"/>
      </g>
     </g>
    </g>
    <g id="ytick_41">
     <g id="line2d_50">
      <g>
       <use style="stroke:#000000;stroke-width:0.6;" x="54" xlink:href="#mdda031b3b2" y="117.025356"/>
      </g>
     </g>
    </g>
    <g id="ytick_42">
     <g id="line2d_51">
      <g>
       <use style="stroke:#000000;stroke-width:0.6;" x="54" xlink:href="#mdda031b3b2" y="114.838388"/>
      </g>
     </g>
    </g>
    <g id="ytick_43">
     <g id="line2d_52">
      <g>
       <use style="stroke:#000000;stroke-width:0.6;" x="54" xlink:href="#mdda031b3b2" y="112.943949"/>
      </g>
     </g>
    </g>
    <g id="ytick_44">
     <g id="line2d_53">
      <g>
       <use style="stroke:#000000;stroke-width:0.6;" x="54" xlink:href="#mdda031b3b2" y="111.272936"/>
      </g>
     </g>
    </g>
    <g id="ytick_45">
     <g id="line2d_54">
      <g>
       <use style="stroke:#000000;stroke-width:0.6;" x="54" xlink:href="#mdda031b3b2" y="99.944338"/>
      </g>
     </g>
    </g>
    <g id="ytick_46">
     <g id="line2d_55">
      <g>
       <use style="stroke:#000000;stroke-width:0.6;" x="54" xlink:href="#mdda031b3b2" y="94.191918"/>
      </g>
     </g>
    </g>
    <g id="ytick_47">
     <g id="line2d_56">
      <g>
       <use style="stroke:#000000;stroke-width:0.6;" x="54" xlink:href="#mdda031b3b2" y="90.110512"/>
      </g>
     </g>
    </g>
    <g id="ytick_48">
     <g id="line2d_57">
      <g>
       <use style="stroke:#000000;stroke-width:0.6;" x="54" xlink:href="#mdda031b3b2" y="86.944727"/>
      </g>
     </g>
    </g>
    <g id="ytick_49">
     <g id="line2d_58">
      <g>
       <use style="stroke:#000000;stroke-width:0.6;" x="54" xlink:href="#mdda031b3b2" y="84.358092"/>
      </g>
     </g>
    </g>
    <g id="ytick_50">
     <g id="line2d_59">
      <g>
       <use style="stroke:#000000;stroke-width:0.6;" x="54" xlink:href="#mdda031b3b2" y="82.171124"/>
      </g>
     </g>
    </g>
    <g id="ytick_51">
     <g id="line2d_60">
      <g>
       <use style="stroke:#000000;stroke-width:0.6;" x="54" xlink:href="#mdda031b3b2" y="80.276685"/>
      </g>
     </g>
    </g>
    <g id="ytick_52">
     <g id="line2d_61">
      <g>
       <use style="stroke:#000000;stroke-width:0.6;" x="54" xlink:href="#mdda031b3b2" y="78.605672"/>
      </g>
     </g>
    </g>
    <g id="ytick_53">
     <g id="line2d_62">
      <g>
       <use style="stroke:#000000;stroke-width:0.6;" x="54" xlink:href="#mdda031b3b2" y="67.277074"/>
      </g>
     </g>
    </g>
    <g id="ytick_54">
     <g id="line2d_63">
      <g>
       <use style="stroke:#000000;stroke-width:0.6;" x="54" xlink:href="#mdda031b3b2" y="61.524654"/>
      </g>
     </g>
    </g>
    <g id="ytick_55">
     <g id="line2d_64">
      <g>
       <use style="stroke:#000000;stroke-width:0.6;" x="54" xlink:href="#mdda031b3b2" y="57.443248"/>
      </g>
     </g>
    </g>
    <g id="ytick_56">
     <g id="line2d_65">
      <g>
       <use style="stroke:#000000;stroke-width:0.6;" x="54" xlink:href="#mdda031b3b2" y="54.277463"/>
      </g>
     </g>
    </g>
    <g id="ytick_57">
     <g id="line2d_66">
      <g>
       <use style="stroke:#000000;stroke-width:0.6;" x="54" xlink:href="#mdda031b3b2" y="51.690828"/>
      </g>
     </g>
    </g>
    <g id="ytick_58">
     <g id="line2d_67">
      <g>
       <use style="stroke:#000000;stroke-width:0.6;" x="54" xlink:href="#mdda031b3b2" y="49.50386"/>
      </g>
     </g>
    </g>
    <g id="ytick_59">
     <g id="line2d_68">
      <g>
       <use style="stroke:#000000;stroke-width:0.6;" x="54" xlink:href="#mdda031b3b2" y="47.609421"/>
      </g>
     </g>
    </g>
    <g id="ytick_60">
     <g id="line2d_69">
      <g>
       <use style="stroke:#000000;stroke-width:0.6;" x="54" xlink:href="#mdda031b3b2" y="45.938408"/>
      </g>
     </g>
    </g>
    <g id="ytick_61">
     <g id="line2d_70">
      <g>
       <use style="stroke:#000000;stroke-width:0.6;" x="54" xlink:href="#mdda031b3b2" y="34.60981"/>
      </g>
     </g>
    </g>
    <g id="text_18">
     <!-- $||r^{2000}_{i}||_2$ -->
     <defs>
      <path d="M 21 76.421875 
L 21 -23.578125 
L 12.703125 -23.578125 
L 12.703125 76.421875 
z
" id="DejaVuSans-124"/>
      <path d="M 44.578125 46.390625 
Q 43.21875 47.125 41.453125 47.515625 
Q 39.703125 47.90625 37.703125 47.90625 
Q 30.515625 47.90625 25.140625 42.453125 
Q 19.78125 37.015625 18.015625 27.875 
L 12.5 0 
L 3.515625 0 
L 14.203125 54.6875 
L 23.1875 54.6875 
L 21.484375 46.1875 
Q 25.046875 50.921875 30 53.453125 
Q 34.96875 56 40.578125 56 
Q 42.046875 56 43.453125 55.828125 
Q 44.875 55.671875 46.296875 55.28125 
z
" id="DejaVuSans-Oblique-114"/>
      <path d="M 18.3125 75.984375 
L 27.296875 75.984375 
L 25.09375 64.59375 
L 16.109375 64.59375 
z
M 14.203125 54.6875 
L 23.1875 54.6875 
L 12.5 0 
L 3.515625 0 
z
" id="DejaVuSans-Oblique-105"/>
     </defs>
     <g transform="translate(16.7 163.78)rotate(-90)scale(0.1 -0.1)">
      <use transform="translate(0 0.70625)" xlink:href="#DejaVuSans-124"/>
      <use transform="translate(33.691406 0.70625)" xlink:href="#DejaVuSans-124"/>
      <use transform="translate(67.382812 0.70625)" xlink:href="#DejaVuSans-Oblique-114"/>
      <use transform="translate(113.14599 40.046875)scale(0.7)" xlink:href="#DejaVuSans-50"/>
      <use transform="translate(157.682122 40.046875)scale(0.7)" xlink:href="#DejaVuSans-48"/>
      <use transform="translate(202.218255 40.046875)scale(0.7)" xlink:href="#DejaVuSans-48"/>
      <use transform="translate(246.754388 40.046875)scale(0.7)" xlink:href="#DejaVuSans-48"/>
      <use transform="translate(108.496094 -26.6375)scale(0.7)" xlink:href="#DejaVuSans-Oblique-105"/>
      <use transform="translate(294.024896 0.70625)" xlink:href="#DejaVuSans-124"/>
      <use transform="translate(327.716302 0.70625)" xlink:href="#DejaVuSans-124"/>
      <use transform="translate(362.36474 -15.7)scale(0.7)" xlink:href="#DejaVuSans-50"/>
     </g>
    </g>
   </g>
   <g id="line2d_71">
    <path clip-path="url(#p5b46a4f078)" d="M 69.218182 44.443636 
L 69.99462 44.443636 
L 70.771058 47.088864 
L 71.547495 47.527087 
L 72.323933 48.845053 
L 73.100371 52.627448 
L 73.876809 55.206672 
L 74.653247 60.949488 
L 75.429685 60.949488 
L 76.206122 56.555548 
L 76.98256 59.944409 
L 77.758998 61.192886 
L 78.535436 61.298988 
L 79.311874 62.221321 
L 80.088312 68.393077 
L 80.86475 68.393077 
L 81.641187 65.146199 
L 83.194063 69.031737 
L 83.970501 68.493338 
L 84.746939 69.315565 
L 85.523377 73.07104 
L 86.299814 73.07104 
L 87.076252 70.157636 
L 87.85269 72.210933 
L 88.629128 71.871195 
L 89.405566 72.260616 
L 90.182004 74.192139 
L 90.958442 76.50489 
L 91.734879 76.50489 
L 92.511317 73.783723 
L 93.287755 75.55205 
L 94.064193 76.300343 
L 94.840631 76.451209 
L 95.617069 77.4005 
L 96.393506 79.533025 
L 97.169944 79.533025 
L 97.946382 77.165113 
L 98.72282 78.858877 
L 100.275696 78.743356 
L 101.828571 82.32313 
L 102.605009 82.32313 
L 103.381447 79.869233 
L 104.157885 81.471109 
L 104.934323 82.166819 
L 105.710761 82.315718 
L 106.487199 83.121219 
L 107.263636 85.012734 
L 108.040074 85.012734 
L 108.816512 82.630399 
L 109.59295 84.390702 
L 111.145826 84.228829 
L 112.698701 87.644406 
L 113.475139 87.644406 
L 114.251577 85.196924 
L 115.028015 86.813213 
L 115.804453 87.483611 
L 116.580891 87.679127 
L 117.357328 88.385925 
L 118.133766 90.248375 
L 118.910204 90.248375 
L 119.686642 87.861345 
L 120.46308 89.621946 
L 122.015955 89.531557 
L 123.568831 92.834414 
L 124.345269 92.834414 
L 125.121707 90.403726 
L 125.898145 91.98792 
L 126.674583 92.657384 
L 127.45102 92.925443 
L 128.227458 93.521643 
L 129.003896 95.410706 
L 129.780334 95.410706 
L 130.556772 93.025457 
L 131.33321 94.76926 
L 132.109647 94.70696 
L 132.886085 94.769117 
L 133.662523 96.212795 
L 134.438961 97.979079 
L 135.215399 97.979079 
L 135.991837 95.568232 
L 136.768275 97.110955 
L 137.544712 97.789209 
L 138.32115 98.118443 
L 139.097588 98.616474 
L 139.874026 100.542586 
L 140.650464 100.542586 
L 141.426902 98.161996 
L 142.20334 99.884448 
L 142.979777 99.82603 
L 143.756215 99.966418 
L 144.532653 101.30359 
L 145.309091 103.100902 
L 146.085529 103.100902 
L 146.861967 100.715376 
L 147.638404 102.208962 
L 148.414842 102.903276 
L 149.967718 103.691893 
L 150.744156 105.655806 
L 151.520594 105.655806 
L 152.297032 103.281373 
L 153.073469 104.980582 
L 153.849907 104.931719 
L 154.626345 105.134276 
L 155.402783 106.377977 
L 156.179221 108.206619 
L 156.955659 108.206619 
L 157.732096 105.844835 
L 158.508534 107.289912 
L 159.284972 108.004902 
L 160.837848 108.754411 
L 161.614286 110.754859 
L 162.390724 110.754859 
L 163.167161 108.38256 
L 163.943599 110.061865 
L 164.720037 110.02706 
L 165.496475 110.278678 
L 166.272913 111.44201 
L 167.049351 113.300054 
L 167.825788 113.300054 
L 168.602226 110.950979 
L 169.378664 112.359304 
L 170.155102 113.09649 
L 170.93154 113.539542 
L 171.707978 113.80929 
L 172.484416 115.843361 
L 173.260853 115.843361 
L 174.037291 113.468955 
L 174.813729 115.132163 
L 175.590167 115.113875 
L 176.366605 115.405318 
L 177.143043 116.500159 
L 177.919481 118.384411 
L 178.695918 118.384411 
L 179.472356 116.039979 
L 180.248794 117.421396 
L 181.025232 118.180259 
L 181.80167 118.648678 
L 182.578108 118.860362 
L 183.354545 120.924007 
L 184.130983 120.924007 
L 184.907421 118.546474 
L 185.683859 120.195416 
L 186.460297 120.193853 
L 187.236735 120.51805 
L 188.013173 121.554993 
L 188.78961 123.461823 
L 189.566048 123.461823 
L 190.342486 121.119069 
L 191.118924 122.47899 
L 191.895362 123.257626 
L 192.6718 123.747083 
L 193.448237 123.909727 
L 194.224675 125.99846 
L 195.001113 125.99846 
L 195.777551 123.618259 
L 196.553989 125.254297 
L 197.330427 125.268071 
L 198.106865 125.619166 
L 198.883302 126.607964 
L 199.65974 128.533639 
L 200.436178 128.533639 
L 201.212616 126.191599 
L 201.989054 127.533867 
L 202.765492 128.329499 
L 203.541929 128.836349 
L 204.318367 128.958509 
L 205.094805 131.067839 
L 205.871243 131.067839 
L 206.647681 128.685586 
L 207.424119 130.310382 
L 208.200557 130.337292 
L 208.976994 130.710332 
L 209.753432 131.659914 
L 210.52987 133.600826 
L 211.306308 133.600826 
L 212.082746 131.258987 
L 212.859184 132.587112 
L 213.635622 133.396639 
L 214.412059 133.917793 
L 215.188497 134.007273 
L 215.964935 136.132995 
L 216.741373 136.132995 
L 217.517811 133.749117 
L 218.294249 135.364596 
L 219.070686 135.402196 
L 219.847124 135.792981 
L 220.623562 136.711302 
L 221.4 138.66415 
L 222.176438 138.66415 
L 222.952876 136.322047 
L 223.729314 137.639346 
L 224.505751 138.459744 
L 225.282189 138.992583 
L 226.058627 139.056248 
L 226.835065 141.194619 
L 227.611503 141.194619 
L 228.387941 138.809346 
L 229.164378 140.417478 
L 229.940816 140.463419 
L 230.717254 140.868401 
L 231.493692 141.762338 
L 232.27013 143.724236 
L 233.046568 143.724236 
L 233.823006 141.381405 
L 234.599443 142.690893 
L 235.375881 143.519441 
L 236.152319 144.061757 
L 236.928757 144.105463 
L 237.705195 146.253275 
L 238.481633 146.253275 
L 239.258071 143.86671 
L 240.034508 145.469339 
L 240.810946 145.521529 
L 241.587384 145.937741 
L 242.363822 146.81309 
L 243.14026 148.781596 
L 243.916698 148.781596 
L 244.693135 146.437605 
L 245.469573 147.741902 
L 246.246011 148.576273 
L 247.022449 149.12622 
L 247.798887 149.154844 
L 248.575325 151.309427 
L 249.351763 151.309427 
L 250.1282 148.9216 
L 250.904638 150.520353 
L 251.681076 150.577018 
L 252.457514 151.001999 
L 253.233952 151.863546 
L 254.01039 153.836648 
L 254.786827 153.836648 
L 255.563265 151.491119 
L 256.339703 152.792428 
L 257.116141 153.630694 
L 257.892579 154.186744 
L 258.669017 154.204275 
L 259.445455 156.363451 
L 260.221892 156.363451 
L 260.99833 153.974358 
L 261.774768 155.570619 
L 262.551206 155.630293 
L 263.327644 156.062024 
L 264.104082 156.91366 
L 264.880519 158.889732 
L 265.656957 158.889732 
L 266.433395 156.542353 
L 267.209833 157.842477 
L 267.986271 158.683077 
L 268.762709 159.243973 
L 269.539147 159.253626 
L 270.315584 161.415653 
L 271.092022 161.415653 
L 271.86846 159.02528 
L 272.644898 160.62019 
L 273.421336 160.681693 
L 274.197774 161.118524 
L 274.974212 161.963372 
L 275.750649 163.941124 
L 276.527087 163.941124 
L 277.303525 161.591649 
L 278.079963 162.892034 
L 278.856401 163.733727 
L 279.632839 164.29844 
L 280.409276 164.30278 
L 281.185714 166.466281 
L 281.962152 166.466281 
L 282.73859 164.074613 
L 283.515028 165.6691 
L 284.291466 165.731491 
L 285.067904 166.172086 
L 285.844341 167.012627 
L 286.620779 168.991046 
L 287.397217 168.991046 
L 288.173655 166.639292 
L 288.950093 167.941081 
L 289.726531 168.782888 
L 290.502968 169.350582 
L 291.279406 169.351632 
L 292.055844 171.515536 
L 292.832282 171.515536 
L 293.60872 169.122565 
L 294.385158 170.71737 
L 295.161596 170.779908 
L 295.938033 171.223188 
L 296.714471 172.061374 
L 297.490909 174.039681 
L 298.267347 174.039681 
L 299.043785 171.685519 
L 299.820223 172.989599 
L 300.59666 173.830759 
L 301.373098 174.400755 
L 302.149536 174.400099 
L 302.925974 176.563582 
L 303.702412 176.563582 
L 304.47885 174.16931 
L 305.255288 175.765014 
L 306.031725 175.827124 
L 306.808163 176.27222 
L 307.584601 177.109576 
L 308.361039 179.087177 
L 309.137477 179.087177 
L 309.913915 176.730525 
L 310.690353 178.037572 
L 311.46679 178.877501 
L 312.243228 179.449248 
L 313.019666 179.448113 
L 313.796104 181.610553 
L 314.572542 181.610553 
L 315.34898 179.214991 
L 316.125417 180.812046 
L 316.901855 180.873282 
L 317.678293 181.319501 
L 318.454731 182.157201 
L 319.231169 184.133654 
L 320.007607 184.133654 
L 320.784045 181.774472 
L 321.560482 183.08499 
L 322.33692 183.923242 
L 323.113358 184.496295 
L 323.889796 184.495623 
L 324.666234 186.656558 
L 325.442672 186.656558 
L 326.219109 184.259728 
L 326.995547 185.858477 
L 327.771985 185.918501 
L 328.548423 186.365287 
L 329.324861 187.204231 
L 330.101299 189.179212 
L 330.877737 189.179212 
L 331.654174 186.81749 
L 332.430612 188.131847 
L 333.20705 188.968088 
L 333.983488 189.542089 
L 334.759926 189.542592 
L 335.536364 191.701687 
L 336.312801 191.701687 
L 337.089239 189.303618 
L 337.865677 190.904319 
L 338.642115 190.962874 
L 339.418553 191.409787 
L 340.194991 192.250651 
L 340.971429 194.223932 
L 341.747866 194.223932 
L 342.524304 191.85969 
L 343.300742 193.17814 
L 344.07718 194.012123 
L 344.853618 194.586783 
L 345.630056 194.588994 
L 346.406494 196.746013 
L 347.182931 196.746013 
L 347.959369 194.346746 
L 348.735807 195.949582 
L 349.512245 196.006479 
L 350.288683 196.453172 
L 351.065121 197.296455 
L 351.841558 199.267883 
L 352.617996 199.267883 
L 353.394434 196.90116 
L 354.170872 198.223869 
L 354.94731 199.055418 
L 355.723748 199.630505 
L 356.500186 199.63481 
L 357.276623 201.789599 
L 358.053061 201.789599 
L 358.829499 199.38918 
L 359.605937 200.994277 
L 360.382375 201.049379 
L 361.158813 201.495578 
L 361.93525 202.34164 
L 362.711688 204.311119 
L 363.488126 204.311119 
L 364.264564 201.941975 
L 365.041002 203.269036 
L 365.81744 204.098029 
L 366.593878 204.673358 
L 367.370315 204.680031 
L 368.146753 206.832496 
L 368.923191 206.832496 
L 369.699629 204.430977 
L 370.476067 206.038414 
L 371.252505 206.091625 
L 372.028942 206.53712 
L 372.80538 207.386208 
L 373.581818 209.353688 
L 373.581818 209.353688 
" style="fill:none;stroke:#000000;stroke-linecap:square;stroke-width:1.5;"/>
   </g>
   <g id="line2d_72">
    <path clip-path="url(#p5b46a4f078)" d="M 69.218182 209.353688 
L 69.99462 209.353688 
L 70.771058 206.982196 
L 71.547495 208.313647 
L 72.323933 209.140004 
L 73.100371 209.715425 
L 73.876809 209.724652 
L 74.653247 211.874746 
L 75.429685 211.874746 
L 76.206122 209.472186 
L 76.98256 211.082005 
L 77.758998 211.13326 
L 78.535436 211.577887 
L 79.311874 212.430163 
L 80.088312 214.395629 
L 80.86475 214.395629 
L 81.641187 212.021874 
L 82.417625 213.357706 
L 83.194063 214.181382 
L 83.970501 214.756777 
L 84.746939 214.76867 
L 85.523377 216.916385 
L 86.299814 216.916385 
L 87.076252 214.512847 
L 87.85269 216.125058 
L 88.629128 216.174319 
L 89.405566 216.617957 
L 90.182004 217.473511 
L 90.958442 219.436975 
L 91.734879 219.436975 
L 92.511317 217.061051 
L 93.287755 218.40122 
L 94.064193 219.222195 
L 94.840631 219.797471 
L 95.617069 219.812089 
L 96.393506 221.957445 
L 97.169944 221.957445 
L 97.946382 219.552996 
L 98.72282 221.167584 
L 99.499258 221.214831 
L 100.275696 221.65739 
L 101.052134 222.516261 
L 101.828571 224.477756 
L 102.605009 224.477756 
L 103.381447 222.099763 
L 104.157885 223.444194 
L 104.934323 224.26247 
L 105.710761 224.837555 
L 106.487199 224.854912 
L 107.263636 226.997951 
L 108.040074 226.997951 
L 108.816512 224.592661 
L 109.59295 226.209591 
L 110.369388 226.254822 
L 111.145826 226.696239 
L 111.922263 227.55842 
L 112.698701 229.517994 
L 113.475139 229.517994 
L 114.251577 227.13804 
L 115.028015 228.486637 
L 115.804453 229.302231 
L 116.580891 229.877069 
L 117.357328 229.897147 
L 118.133766 232.037927 
L 118.910204 232.037927 
L 119.686642 229.631867 
L 120.46308 231.251088 
L 121.239518 231.294314 
L 122.015955 231.734545 
L 122.792393 232.6 
L 123.568831 234.557713 
L 124.345269 234.557713 
L 125.121707 232.175905 
L 125.898145 233.528555 
L 126.674583 234.341499 
L 127.45102 234.916046 
L 128.227458 234.9388 
L 129.003896 237.077392 
L 129.780334 237.077392 
L 130.556772 234.670637 
L 131.33321 236.292084 
L 132.109647 236.333324 
L 132.886085 236.772346 
L 133.662523 237.641009 
L 134.438961 239.596929 
L 135.215399 239.596929 
L 135.991837 237.213382 
L 136.768275 238.569956 
L 137.544712 239.380291 
L 138.32115 239.954516 
L 139.097588 239.97988 
L 139.874026 242.116364 
" style="fill:none;stroke:#000000;stroke-dasharray:5.55,2.4;stroke-dashoffset:0;stroke-width:1.5;"/>
   </g>
   <g id="line2d_73">
    <path clip-path="url(#p5b46a4f078)" d="M 69.218182 112.508583 
L 69.99462 112.508583 
L 70.771058 114.441793 
L 71.547495 124.853616 
L 72.323933 135.545468 
L 73.100371 139.759426 
L 73.876809 144.54586 
L 74.653247 155.460972 
L 75.429685 155.460972 
L 76.206122 151.351851 
L 76.98256 155.195093 
L 77.758998 160.256136 
L 78.535436 165.805469 
L 79.311874 168.02869 
L 80.088312 176.488098 
L 80.86475 176.488098 
L 81.641187 169.886001 
L 82.417625 175.070789 
L 83.194063 178.285633 
L 83.970501 180.883013 
L 84.746939 182.53604 
L 85.523377 188.267217 
L 86.299814 188.267217 
L 87.076252 183.917282 
L 87.85269 186.745275 
L 88.629128 188.38515 
L 89.405566 190.067966 
L 90.182004 189.308055 
L 90.958442 195.03021 
L 91.734879 195.03021 
L 92.511317 190.455962 
L 93.287755 193.749989 
L 94.064193 194.792112 
L 94.840631 195.861011 
L 95.617069 196.42717 
L 96.393506 200.99288 
L 97.169944 200.99288 
L 97.946382 197.001488 
L 98.72282 199.748047 
L 99.499258 200.93182 
L 100.275696 202.282943 
L 101.052134 201.829592 
L 101.828571 206.765831 
L 102.605009 206.765831 
L 103.381447 202.37183 
L 104.157885 205.559739 
L 104.934323 206.422687 
L 105.710761 207.442651 
L 106.487199 208.247112 
L 107.263636 212.359528 
" style="fill:none;stroke:#ff0000;stroke-linecap:square;stroke-width:1.5;"/>
   </g>
   <g id="line2d_74">
    <path clip-path="url(#p5b46a4f078)" d="M 69.218182 212.359528 
L 69.99462 212.359528 
L 70.771058 208.514213 
L 71.547495 211.169384 
L 72.323933 212.218306 
L 73.100371 213.484191 
L 73.876809 213.278482 
L 74.653247 217.726829 
L 75.429685 217.726829 
L 76.206122 213.571576 
L 76.98256 216.568598 
L 77.758998 217.32203 
L 78.535436 218.25379 
L 79.311874 219.118426 
L 80.088312 222.793969 
L 80.86475 222.793969 
L 81.641187 219.217629 
L 82.417625 221.658097 
L 83.194063 222.577204 
L 83.970501 223.693373 
L 84.746939 223.578627 
L 85.523377 227.474821 
L 86.299814 227.474821 
L 87.076252 223.718047 
L 87.85269 226.397431 
L 88.629128 227.020793 
L 89.405566 227.789862 
L 90.182004 228.575614 
L 90.958442 231.714862 
L 91.734879 231.714862 
L 92.511317 228.558419 
L 93.287755 230.669892 
L 94.064193 231.42356 
L 94.840631 232.325926 
L 95.617069 232.209339 
L 96.393506 235.496464 
L 97.169944 235.496464 
L 97.946382 232.24369 
L 98.72282 234.534348 
L 99.499258 235.015192 
L 100.275696 235.594078 
L 101.052134 236.237353 
L 101.828571 238.878772 
L 102.605009 238.878772 
L 103.381447 236.141953 
L 104.157885 237.935444 
L 104.934323 238.542435 
L 105.710761 239.255219 
L 106.487199 239.105447 
L 107.263636 241.941426 
" style="fill:none;stroke:#ff0000;stroke-dasharray:5.55,2.4;stroke-dashoffset:0;stroke-width:1.5;"/>
   </g>
   <g id="patch_3">
    <path d="M 54 252 
L 54 34.56 
" style="fill:none;stroke:#000000;stroke-linecap:square;stroke-linejoin:miter;stroke-width:0.8;"/>
   </g>
   <g id="patch_4">
    <path d="M 388.8 252 
L 388.8 34.56 
" style="fill:none;stroke:#000000;stroke-linecap:square;stroke-linejoin:miter;stroke-width:0.8;"/>
   </g>
   <g id="patch_5">
    <path d="M 54 252 
L 388.8 252 
" style="fill:none;stroke:#000000;stroke-linecap:square;stroke-linejoin:miter;stroke-width:0.8;"/>
   </g>
   <g id="patch_6">
    <path d="M 54 34.56 
L 388.8 34.56 
" style="fill:none;stroke:#000000;stroke-linecap:square;stroke-linejoin:miter;stroke-width:0.8;"/>
   </g>
   <g id="text_19">
    <!-- Convergence of Algorithim for Final Linear Problem,$n_x=n_y=30$ -->
    <defs>
     <path d="M 64.40625 67.28125 
L 64.40625 56.890625 
Q 59.421875 61.53125 53.78125 63.8125 
Q 48.140625 66.109375 41.796875 66.109375 
Q 29.296875 66.109375 22.65625 58.46875 
Q 16.015625 50.828125 16.015625 36.375 
Q 16.015625 21.96875 22.65625 14.328125 
Q 29.296875 6.6875 41.796875 6.6875 
Q 48.140625 6.6875 53.78125 8.984375 
Q 59.421875 11.28125 64.40625 15.921875 
L 64.40625 5.609375 
Q 59.234375 2.09375 53.4375 0.328125 
Q 47.65625 -1.421875 41.21875 -1.421875 
Q 24.65625 -1.421875 15.125 8.703125 
Q 5.609375 18.84375 5.609375 36.375 
Q 5.609375 53.953125 15.125 64.078125 
Q 24.65625 74.21875 41.21875 74.21875 
Q 47.75 74.21875 53.53125 72.484375 
Q 59.328125 70.75 64.40625 67.28125 
z
" id="DejaVuSans-67"/>
     <path d="M 2.984375 54.6875 
L 12.5 54.6875 
L 29.59375 8.796875 
L 46.6875 54.6875 
L 56.203125 54.6875 
L 35.6875 0 
L 23.484375 0 
z
" id="DejaVuSans-118"/>
     <path d="M 45.40625 27.984375 
Q 45.40625 37.75 41.375 43.109375 
Q 37.359375 48.484375 30.078125 48.484375 
Q 22.859375 48.484375 18.828125 43.109375 
Q 14.796875 37.75 14.796875 27.984375 
Q 14.796875 18.265625 18.828125 12.890625 
Q 22.859375 7.515625 30.078125 7.515625 
Q 37.359375 7.515625 41.375 12.890625 
Q 45.40625 18.265625 45.40625 27.984375 
z
M 54.390625 6.78125 
Q 54.390625 -7.171875 48.1875 -13.984375 
Q 42 -20.796875 29.203125 -20.796875 
Q 24.46875 -20.796875 20.265625 -20.09375 
Q 16.0625 -19.390625 12.109375 -17.921875 
L 12.109375 -9.1875 
Q 16.0625 -11.328125 19.921875 -12.34375 
Q 23.78125 -13.375 27.78125 -13.375 
Q 36.625 -13.375 41.015625 -8.765625 
Q 45.40625 -4.15625 45.40625 5.171875 
L 45.40625 9.625 
Q 42.625 4.78125 38.28125 2.390625 
Q 33.9375 0 27.875 0 
Q 17.828125 0 11.671875 7.65625 
Q 5.515625 15.328125 5.515625 27.984375 
Q 5.515625 40.671875 11.671875 48.328125 
Q 17.828125 56 27.875 56 
Q 33.9375 56 38.28125 53.609375 
Q 42.625 51.21875 45.40625 46.390625 
L 45.40625 54.6875 
L 54.390625 54.6875 
z
" id="DejaVuSans-103"/>
     <path d="M 48.78125 52.59375 
L 48.78125 44.1875 
Q 44.96875 46.296875 41.140625 47.34375 
Q 37.3125 48.390625 33.40625 48.390625 
Q 24.65625 48.390625 19.8125 42.84375 
Q 14.984375 37.3125 14.984375 27.296875 
Q 14.984375 17.28125 19.8125 11.734375 
Q 24.65625 6.203125 33.40625 6.203125 
Q 37.3125 6.203125 41.140625 7.25 
Q 44.96875 8.296875 48.78125 10.40625 
L 48.78125 2.09375 
Q 45.015625 0.34375 40.984375 -0.53125 
Q 36.96875 -1.421875 32.421875 -1.421875 
Q 20.0625 -1.421875 12.78125 6.34375 
Q 5.515625 14.109375 5.515625 27.296875 
Q 5.515625 40.671875 12.859375 48.328125 
Q 20.21875 56 33.015625 56 
Q 37.15625 56 41.109375 55.140625 
Q 45.0625 54.296875 48.78125 52.59375 
z
" id="DejaVuSans-99"/>
     <path d="M 37.109375 75.984375 
L 37.109375 68.5 
L 28.515625 68.5 
Q 23.6875 68.5 21.796875 66.546875 
Q 19.921875 64.59375 19.921875 59.515625 
L 19.921875 54.6875 
L 34.71875 54.6875 
L 34.71875 47.703125 
L 19.921875 47.703125 
L 19.921875 0 
L 10.890625 0 
L 10.890625 47.703125 
L 2.296875 47.703125 
L 2.296875 54.6875 
L 10.890625 54.6875 
L 10.890625 58.5 
Q 10.890625 67.625 15.140625 71.796875 
Q 19.390625 75.984375 28.609375 75.984375 
z
" id="DejaVuSans-102"/>
     <path d="M 34.1875 63.1875 
L 20.796875 26.90625 
L 47.609375 26.90625 
z
M 28.609375 72.90625 
L 39.796875 72.90625 
L 67.578125 0 
L 57.328125 0 
L 50.6875 18.703125 
L 17.828125 18.703125 
L 11.1875 0 
L 0.78125 0 
z
" id="DejaVuSans-65"/>
     <path d="M 9.421875 75.984375 
L 18.40625 75.984375 
L 18.40625 0 
L 9.421875 0 
z
" id="DejaVuSans-108"/>
     <path d="M 54.890625 33.015625 
L 54.890625 0 
L 45.90625 0 
L 45.90625 32.71875 
Q 45.90625 40.484375 42.875 44.328125 
Q 39.84375 48.1875 33.796875 48.1875 
Q 26.515625 48.1875 22.3125 43.546875 
Q 18.109375 38.921875 18.109375 30.90625 
L 18.109375 0 
L 9.078125 0 
L 9.078125 75.984375 
L 18.109375 75.984375 
L 18.109375 46.1875 
Q 21.34375 51.125 25.703125 53.5625 
Q 30.078125 56 35.796875 56 
Q 45.21875 56 50.046875 50.171875 
Q 54.890625 44.34375 54.890625 33.015625 
z
" id="DejaVuSans-104"/>
     <path d="M 52 44.1875 
Q 55.375 50.25 60.0625 53.125 
Q 64.75 56 71.09375 56 
Q 79.640625 56 84.28125 50.015625 
Q 88.921875 44.046875 88.921875 33.015625 
L 88.921875 0 
L 79.890625 0 
L 79.890625 32.71875 
Q 79.890625 40.578125 77.09375 44.375 
Q 74.3125 48.1875 68.609375 48.1875 
Q 61.625 48.1875 57.5625 43.546875 
Q 53.515625 38.921875 53.515625 30.90625 
L 53.515625 0 
L 44.484375 0 
L 44.484375 32.71875 
Q 44.484375 40.625 41.703125 44.40625 
Q 38.921875 48.1875 33.109375 48.1875 
Q 26.21875 48.1875 22.15625 43.53125 
Q 18.109375 38.875 18.109375 30.90625 
L 18.109375 0 
L 9.078125 0 
L 9.078125 54.6875 
L 18.109375 54.6875 
L 18.109375 46.1875 
Q 21.1875 51.21875 25.484375 53.609375 
Q 29.78125 56 35.6875 56 
Q 41.65625 56 45.828125 52.96875 
Q 50 49.953125 52 44.1875 
z
" id="DejaVuSans-109"/>
     <path d="M 9.8125 72.90625 
L 51.703125 72.90625 
L 51.703125 64.59375 
L 19.671875 64.59375 
L 19.671875 43.109375 
L 48.578125 43.109375 
L 48.578125 34.8125 
L 19.671875 34.8125 
L 19.671875 0 
L 9.8125 0 
z
" id="DejaVuSans-70"/>
     <path d="M 9.8125 72.90625 
L 19.671875 72.90625 
L 19.671875 8.296875 
L 55.171875 8.296875 
L 55.171875 0 
L 9.8125 0 
z
" id="DejaVuSans-76"/>
     <path d="M 19.671875 64.796875 
L 19.671875 37.40625 
L 32.078125 37.40625 
Q 38.96875 37.40625 42.71875 40.96875 
Q 46.484375 44.53125 46.484375 51.125 
Q 46.484375 57.671875 42.71875 61.234375 
Q 38.96875 64.796875 32.078125 64.796875 
z
M 9.8125 72.90625 
L 32.078125 72.90625 
Q 44.34375 72.90625 50.609375 67.359375 
Q 56.890625 61.8125 56.890625 51.125 
Q 56.890625 40.328125 50.609375 34.8125 
Q 44.34375 29.296875 32.078125 29.296875 
L 19.671875 29.296875 
L 19.671875 0 
L 9.8125 0 
z
" id="DejaVuSans-80"/>
     <path d="M 48.6875 27.296875 
Q 48.6875 37.203125 44.609375 42.84375 
Q 40.53125 48.484375 33.40625 48.484375 
Q 26.265625 48.484375 22.1875 42.84375 
Q 18.109375 37.203125 18.109375 27.296875 
Q 18.109375 17.390625 22.1875 11.75 
Q 26.265625 6.109375 33.40625 6.109375 
Q 40.53125 6.109375 44.609375 11.75 
Q 48.6875 17.390625 48.6875 27.296875 
z
M 18.109375 46.390625 
Q 20.953125 51.265625 25.265625 53.625 
Q 29.59375 56 35.59375 56 
Q 45.5625 56 51.78125 48.09375 
Q 58.015625 40.1875 58.015625 27.296875 
Q 58.015625 14.40625 51.78125 6.484375 
Q 45.5625 -1.421875 35.59375 -1.421875 
Q 29.59375 -1.421875 25.265625 0.953125 
Q 20.953125 3.328125 18.109375 8.203125 
L 18.109375 0 
L 9.078125 0 
L 9.078125 75.984375 
L 18.109375 75.984375 
z
" id="DejaVuSans-98"/>
     <path d="M 11.71875 12.40625 
L 22.015625 12.40625 
L 22.015625 4 
L 14.015625 -11.625 
L 7.71875 -11.625 
L 11.71875 4 
z
" id="DejaVuSans-44"/>
     <path d="M 55.71875 33.015625 
L 49.3125 0 
L 40.28125 0 
L 46.6875 32.671875 
Q 47.125 34.96875 47.359375 36.71875 
Q 47.609375 38.484375 47.609375 39.5 
Q 47.609375 43.609375 45.015625 45.890625 
Q 42.4375 48.1875 37.796875 48.1875 
Q 30.5625 48.1875 25.34375 43.375 
Q 20.125 38.578125 18.5 30.328125 
L 12.5 0 
L 3.515625 0 
L 14.109375 54.6875 
L 23.09375 54.6875 
L 21.296875 46.09375 
Q 25.046875 50.828125 30.3125 53.40625 
Q 35.59375 56 41.40625 56 
Q 48.640625 56 52.609375 52.09375 
Q 56.59375 48.1875 56.59375 41.109375 
Q 56.59375 39.359375 56.375 37.359375 
Q 56.15625 35.359375 55.71875 33.015625 
z
" id="DejaVuSans-Oblique-110"/>
     <path d="M 60.015625 54.6875 
L 34.90625 27.875 
L 50.296875 0 
L 39.984375 0 
L 28.421875 21.6875 
L 8.296875 0 
L -2.59375 0 
L 24.3125 28.8125 
L 10.015625 54.6875 
L 20.3125 54.6875 
L 30.8125 34.90625 
L 49.125 54.6875 
z
" id="DejaVuSans-Oblique-120"/>
     <path d="M 10.59375 45.40625 
L 73.1875 45.40625 
L 73.1875 37.203125 
L 10.59375 37.203125 
z
M 10.59375 25.484375 
L 73.1875 25.484375 
L 73.1875 17.1875 
L 10.59375 17.1875 
z
" id="DejaVuSans-61"/>
     <path d="M 24.8125 -5.078125 
Q 18.5625 -15.578125 14.625 -18.1875 
Q 10.6875 -20.796875 4.59375 -20.796875 
L -2.484375 -20.796875 
L -0.984375 -13.28125 
L 4.203125 -13.28125 
Q 7.953125 -13.28125 10.59375 -11.234375 
Q 13.234375 -9.1875 16.5 -3.21875 
L 19.28125 2 
L 7.171875 54.6875 
L 16.703125 54.6875 
L 25.78125 12.796875 
L 50.875 54.6875 
L 60.296875 54.6875 
z
" id="DejaVuSans-Oblique-121"/>
    </defs>
    <g transform="translate(30.3 28.56)scale(0.12 -0.12)">
     <use transform="translate(0 0.015625)" xlink:href="#DejaVuSans-67"/>
     <use transform="translate(69.824219 0.015625)" xlink:href="#DejaVuSans-111"/>
     <use transform="translate(131.005859 0.015625)" xlink:href="#DejaVuSans-110"/>
     <use transform="translate(194.384766 0.015625)" xlink:href="#DejaVuSans-118"/>
     <use transform="translate(253.564453 0.015625)" xlink:href="#DejaVuSans-101"/>
     <use transform="translate(315.087891 0.015625)" xlink:href="#DejaVuSans-114"/>
     <use transform="translate(356.201172 0.015625)" xlink:href="#DejaVuSans-103"/>
     <use transform="translate(419.677734 0.015625)" xlink:href="#DejaVuSans-101"/>
     <use transform="translate(481.201172 0.015625)" xlink:href="#DejaVuSans-110"/>
     <use transform="translate(544.580078 0.015625)" xlink:href="#DejaVuSans-99"/>
     <use transform="translate(599.560547 0.015625)" xlink:href="#DejaVuSans-101"/>
     <use transform="translate(661.083984 0.015625)" xlink:href="#DejaVuSans-32"/>
     <use transform="translate(692.871094 0.015625)" xlink:href="#DejaVuSans-111"/>
     <use transform="translate(754.052734 0.015625)" xlink:href="#DejaVuSans-102"/>
     <use transform="translate(789.257812 0.015625)" xlink:href="#DejaVuSans-32"/>
     <use transform="translate(821.044922 0.015625)" xlink:href="#DejaVuSans-65"/>
     <use transform="translate(889.453125 0.015625)" xlink:href="#DejaVuSans-108"/>
     <use transform="translate(917.236328 0.015625)" xlink:href="#DejaVuSans-103"/>
     <use transform="translate(980.712891 0.015625)" xlink:href="#DejaVuSans-111"/>
     <use transform="translate(1041.894531 0.015625)" xlink:href="#DejaVuSans-114"/>
     <use transform="translate(1083.007812 0.015625)" xlink:href="#DejaVuSans-105"/>
     <use transform="translate(1110.791016 0.015625)" xlink:href="#DejaVuSans-116"/>
     <use transform="translate(1150 0.015625)" xlink:href="#DejaVuSans-104"/>
     <use transform="translate(1213.378906 0.015625)" xlink:href="#DejaVuSans-105"/>
     <use transform="translate(1241.162109 0.015625)" xlink:href="#DejaVuSans-109"/>
     <use transform="translate(1338.574219 0.015625)" xlink:href="#DejaVuSans-32"/>
     <use transform="translate(1370.361328 0.015625)" xlink:href="#DejaVuSans-102"/>
     <use transform="translate(1405.566406 0.015625)" xlink:href="#DejaVuSans-111"/>
     <use transform="translate(1466.748047 0.015625)" xlink:href="#DejaVuSans-114"/>
     <use transform="translate(1507.861328 0.015625)" xlink:href="#DejaVuSans-32"/>
     <use transform="translate(1539.648438 0.015625)" xlink:href="#DejaVuSans-70"/>
     <use transform="translate(1597.167969 0.015625)" xlink:href="#DejaVuSans-105"/>
     <use transform="translate(1624.951172 0.015625)" xlink:href="#DejaVuSans-110"/>
     <use transform="translate(1688.330078 0.015625)" xlink:href="#DejaVuSans-97"/>
     <use transform="translate(1749.609375 0.015625)" xlink:href="#DejaVuSans-108"/>
     <use transform="translate(1777.392578 0.015625)" xlink:href="#DejaVuSans-32"/>
     <use transform="translate(1809.179688 0.015625)" xlink:href="#DejaVuSans-76"/>
     <use transform="translate(1864.892578 0.015625)" xlink:href="#DejaVuSans-105"/>
     <use transform="translate(1892.675781 0.015625)" xlink:href="#DejaVuSans-110"/>
     <use transform="translate(1956.054688 0.015625)" xlink:href="#DejaVuSans-101"/>
     <use transform="translate(2017.578125 0.015625)" xlink:href="#DejaVuSans-97"/>
     <use transform="translate(2078.857422 0.015625)" xlink:href="#DejaVuSans-114"/>
     <use transform="translate(2119.970703 0.015625)" xlink:href="#DejaVuSans-32"/>
     <use transform="translate(2151.757812 0.015625)" xlink:href="#DejaVuSans-80"/>
     <use transform="translate(2212.060547 0.015625)" xlink:href="#DejaVuSans-114"/>
     <use transform="translate(2253.173828 0.015625)" xlink:href="#DejaVuSans-111"/>
     <use transform="translate(2314.355469 0.015625)" xlink:href="#DejaVuSans-98"/>
     <use transform="translate(2377.832031 0.015625)" xlink:href="#DejaVuSans-108"/>
     <use transform="translate(2405.615234 0.015625)" xlink:href="#DejaVuSans-101"/>
     <use transform="translate(2467.138672 0.015625)" xlink:href="#DejaVuSans-109"/>
     <use transform="translate(2564.550781 0.015625)" xlink:href="#DejaVuSans-44"/>
     <use transform="translate(2596.337891 0.015625)" xlink:href="#DejaVuSans-Oblique-110"/>
     <use transform="translate(2659.716797 -16.390625)scale(0.7)" xlink:href="#DejaVuSans-Oblique-120"/>
     <use transform="translate(2723.359375 0.015625)" xlink:href="#DejaVuSans-61"/>
     <use transform="translate(2826.630859 0.015625)" xlink:href="#DejaVuSans-Oblique-110"/>
     <use transform="translate(2890.009766 -16.390625)scale(0.7)" xlink:href="#DejaVuSans-Oblique-121"/>
     <use transform="translate(2953.652344 0.015625)" xlink:href="#DejaVuSans-61"/>
     <use transform="translate(3056.923828 0.015625)" xlink:href="#DejaVuSans-51"/>
     <use transform="translate(3120.546875 0.015625)" xlink:href="#DejaVuSans-48"/>
    </g>
   </g>
   <g id="legend_1">
    <g id="patch_7">
     <path d="M 283.9 101.2725 
L 381.8 101.2725 
Q 383.8 101.2725 383.8 99.2725 
L 383.8 41.56 
Q 383.8 39.56 381.8 39.56 
L 283.9 39.56 
Q 281.9 39.56 281.9 41.56 
L 281.9 99.2725 
Q 281.9 101.2725 283.9 101.2725 
z
" style="fill:#ffffff;opacity:0.8;stroke:#cccccc;stroke-linejoin:miter;"/>
    </g>
    <g id="line2d_75">
     <path d="M 285.9 47.658437 
L 305.9 47.658437 
" style="fill:none;stroke:#000000;stroke-linecap:square;stroke-width:1.5;"/>
    </g>
    <g id="line2d_76"/>
    <g id="text_20">
     <!-- GMRES $e1$ -->
     <defs>
      <path d="M 48.09375 32.234375 
Q 48.25 33.015625 48.3125 33.84375 
Q 48.390625 34.671875 48.390625 35.5 
Q 48.390625 41.453125 44.890625 44.921875 
Q 41.40625 48.390625 35.40625 48.390625 
Q 28.71875 48.390625 23.578125 44.15625 
Q 18.453125 39.9375 15.828125 32.171875 
z
M 55.90625 25.203125 
L 14.109375 25.203125 
Q 13.8125 23.34375 13.71875 22.265625 
Q 13.625 21.1875 13.625 20.40625 
Q 13.625 13.625 17.796875 9.90625 
Q 21.96875 6.203125 29.59375 6.203125 
Q 35.453125 6.203125 40.671875 7.515625 
Q 45.90625 8.84375 50.390625 11.375 
L 48.6875 2.484375 
Q 43.84375 0.53125 38.6875 -0.4375 
Q 33.546875 -1.421875 28.21875 -1.421875 
Q 16.84375 -1.421875 10.71875 4.015625 
Q 4.59375 9.46875 4.59375 19.484375 
Q 4.59375 28.03125 7.640625 35.375 
Q 10.6875 42.71875 16.609375 48.484375 
Q 20.40625 52.09375 25.65625 54.046875 
Q 30.90625 56 36.8125 56 
Q 46.09375 56 51.578125 50.4375 
Q 57.078125 44.875 57.078125 35.5 
Q 57.078125 33.25 56.78125 30.6875 
Q 56.5 28.125 55.90625 25.203125 
z
" id="DejaVuSans-Oblique-101"/>
     </defs>
     <g transform="translate(313.9 51.158437)scale(0.1 -0.1)">
      <use transform="translate(0 0.78125)" xlink:href="#DejaVuSans-71"/>
      <use transform="translate(77.490234 0.78125)" xlink:href="#DejaVuSans-77"/>
      <use transform="translate(163.769531 0.78125)" xlink:href="#DejaVuSans-82"/>
      <use transform="translate(233.251953 0.78125)" xlink:href="#DejaVuSans-69"/>
      <use transform="translate(296.435547 0.78125)" xlink:href="#DejaVuSans-83"/>
      <use transform="translate(359.912109 0.78125)" xlink:href="#DejaVuSans-32"/>
      <use transform="translate(391.699219 0.78125)" xlink:href="#DejaVuSans-Oblique-101"/>
      <use transform="translate(453.222656 0.78125)" xlink:href="#DejaVuSans-49"/>
     </g>
    </g>
    <g id="line2d_77">
     <path d="M 285.9 62.336562 
L 305.9 62.336562 
" style="fill:none;stroke:#000000;stroke-dasharray:5.55,2.4;stroke-dashoffset:0;stroke-width:1.5;"/>
    </g>
    <g id="line2d_78"/>
    <g id="text_21">
     <!-- GMRES $e2$ -->
     <g transform="translate(313.9 65.836562)scale(0.1 -0.1)">
      <use transform="translate(0 0.78125)" xlink:href="#DejaVuSans-71"/>
      <use transform="translate(77.490234 0.78125)" xlink:href="#DejaVuSans-77"/>
      <use transform="translate(163.769531 0.78125)" xlink:href="#DejaVuSans-82"/>
      <use transform="translate(233.251953 0.78125)" xlink:href="#DejaVuSans-69"/>
      <use transform="translate(296.435547 0.78125)" xlink:href="#DejaVuSans-83"/>
      <use transform="translate(359.912109 0.78125)" xlink:href="#DejaVuSans-32"/>
      <use transform="translate(391.699219 0.78125)" xlink:href="#DejaVuSans-Oblique-101"/>
      <use transform="translate(453.222656 0.78125)" xlink:href="#DejaVuSans-50"/>
     </g>
    </g>
    <g id="line2d_79">
     <path d="M 285.9 77.014687 
L 305.9 77.014687 
" style="fill:none;stroke:#ff0000;stroke-linecap:square;stroke-width:1.5;"/>
    </g>
    <g id="line2d_80"/>
    <g id="text_22">
     <!-- MLGMRES $e1$ -->
     <g transform="translate(313.9 80.514687)scale(0.1 -0.1)">
      <use transform="translate(0 0.78125)" xlink:href="#DejaVuSans-77"/>
      <use transform="translate(86.279297 0.78125)" xlink:href="#DejaVuSans-76"/>
      <use transform="translate(141.992188 0.78125)" xlink:href="#DejaVuSans-71"/>
      <use transform="translate(219.482422 0.78125)" xlink:href="#DejaVuSans-77"/>
      <use transform="translate(305.761719 0.78125)" xlink:href="#DejaVuSans-82"/>
      <use transform="translate(375.244141 0.78125)" xlink:href="#DejaVuSans-69"/>
      <use transform="translate(438.427734 0.78125)" xlink:href="#DejaVuSans-83"/>
      <use transform="translate(501.904297 0.78125)" xlink:href="#DejaVuSans-32"/>
      <use transform="translate(533.691406 0.78125)" xlink:href="#DejaVuSans-Oblique-101"/>
      <use transform="translate(595.214844 0.78125)" xlink:href="#DejaVuSans-49"/>
     </g>
    </g>
    <g id="line2d_81">
     <path d="M 285.9 91.692813 
L 305.9 91.692813 
" style="fill:none;stroke:#ff0000;stroke-dasharray:5.55,2.4;stroke-dashoffset:0;stroke-width:1.5;"/>
    </g>
    <g id="line2d_82"/>
    <g id="text_23">
     <!-- MLGMRES $e2$ -->
     <g transform="translate(313.9 95.192813)scale(0.1 -0.1)">
      <use transform="translate(0 0.78125)" xlink:href="#DejaVuSans-77"/>
      <use transform="translate(86.279297 0.78125)" xlink:href="#DejaVuSans-76"/>
      <use transform="translate(141.992188 0.78125)" xlink:href="#DejaVuSans-71"/>
      <use transform="translate(219.482422 0.78125)" xlink:href="#DejaVuSans-77"/>
      <use transform="translate(305.761719 0.78125)" xlink:href="#DejaVuSans-82"/>
      <use transform="translate(375.244141 0.78125)" xlink:href="#DejaVuSans-69"/>
      <use transform="translate(438.427734 0.78125)" xlink:href="#DejaVuSans-83"/>
      <use transform="translate(501.904297 0.78125)" xlink:href="#DejaVuSans-32"/>
      <use transform="translate(533.691406 0.78125)" xlink:href="#DejaVuSans-Oblique-101"/>
      <use transform="translate(595.214844 0.78125)" xlink:href="#DejaVuSans-50"/>
     </g>
    </g>
   </g>
  </g>
 </g>
 <defs>
  <clipPath id="p5b46a4f078">
   <rect height="217.44" width="334.8" x="54" y="34.56"/>
  </clipPath>
 </defs>
</svg>
