<?xml version="1.0" encoding="utf-8" standalone="no"?>
<!DOCTYPE svg PUBLIC "-//W3C//DTD SVG 1.1//EN"
  "http://www.w3.org/Graphics/SVG/1.1/DTD/svg11.dtd">
<!-- Created with matplotlib (https://matplotlib.org/) -->
<svg height="288pt" version="1.1" viewBox="0 0 432 288" width="432pt" xmlns="http://www.w3.org/2000/svg" xmlns:xlink="http://www.w3.org/1999/xlink">
 <defs>
  <style type="text/css">
*{stroke-linecap:butt;stroke-linejoin:round;}
  </style>
 </defs>
 <g id="figure_1">
  <g id="patch_1">
   <path d="M 0 288 
L 432 288 
L 432 0 
L 0 0 
z
" style="fill:#ffffff;"/>
  </g>
  <g id="axes_1">
   <g id="patch_2">
    <path d="M 54 252 
L 388.8 252 
L 388.8 34.56 
L 54 34.56 
z
" style="fill:#ffffff;"/>
   </g>
   <g id="matplotlib.axis_1">
    <g id="xtick_1">
     <g id="line2d_1">
      <defs>
       <path d="M 0 0 
L 0 3.5 
" id="m07b2be63ae" style="stroke:#000000;stroke-width:0.8;"/>
      </defs>
      <g>
       <use style="stroke:#000000;stroke-width:0.8;" x="69.218182" xlink:href="#m07b2be63ae" y="252"/>
      </g>
     </g>
     <g id="text_1">
      <!-- 0 -->
      <defs>
       <path d="M 31.78125 66.40625 
Q 24.171875 66.40625 20.328125 58.90625 
Q 16.5 51.421875 16.5 36.375 
Q 16.5 21.390625 20.328125 13.890625 
Q 24.171875 6.390625 31.78125 6.390625 
Q 39.453125 6.390625 43.28125 13.890625 
Q 47.125 21.390625 47.125 36.375 
Q 47.125 51.421875 43.28125 58.90625 
Q 39.453125 66.40625 31.78125 66.40625 
z
M 31.78125 74.21875 
Q 44.046875 74.21875 50.515625 64.515625 
Q 56.984375 54.828125 56.984375 36.375 
Q 56.984375 17.96875 50.515625 8.265625 
Q 44.046875 -1.421875 31.78125 -1.421875 
Q 19.53125 -1.421875 13.0625 8.265625 
Q 6.59375 17.96875 6.59375 36.375 
Q 6.59375 54.828125 13.0625 64.515625 
Q 19.53125 74.21875 31.78125 74.21875 
z
" id="DejaVuSans-48"/>
      </defs>
      <g transform="translate(66.036932 266.598437)scale(0.1 -0.1)">
       <use xlink:href="#DejaVuSans-48"/>
      </g>
     </g>
    </g>
    <g id="xtick_2">
     <g id="line2d_2">
      <g>
       <use style="stroke:#000000;stroke-width:0.8;" x="131.472965" xlink:href="#m07b2be63ae" y="252"/>
      </g>
     </g>
     <g id="text_2">
      <!-- 1000 -->
      <defs>
       <path d="M 12.40625 8.296875 
L 28.515625 8.296875 
L 28.515625 63.921875 
L 10.984375 60.40625 
L 10.984375 69.390625 
L 28.421875 72.90625 
L 38.28125 72.90625 
L 38.28125 8.296875 
L 54.390625 8.296875 
L 54.390625 0 
L 12.40625 0 
z
" id="DejaVuSans-49"/>
      </defs>
      <g transform="translate(118.747965 266.598437)scale(0.1 -0.1)">
       <use xlink:href="#DejaVuSans-49"/>
       <use x="63.623047" xlink:href="#DejaVuSans-48"/>
       <use x="127.246094" xlink:href="#DejaVuSans-48"/>
       <use x="190.869141" xlink:href="#DejaVuSans-48"/>
      </g>
     </g>
    </g>
    <g id="xtick_3">
     <g id="line2d_3">
      <g>
       <use style="stroke:#000000;stroke-width:0.8;" x="193.727749" xlink:href="#m07b2be63ae" y="252"/>
      </g>
     </g>
     <g id="text_3">
      <!-- 2000 -->
      <defs>
       <path d="M 19.1875 8.296875 
L 53.609375 8.296875 
L 53.609375 0 
L 7.328125 0 
L 7.328125 8.296875 
Q 12.9375 14.109375 22.625 23.890625 
Q 32.328125 33.6875 34.8125 36.53125 
Q 39.546875 41.84375 41.421875 45.53125 
Q 43.3125 49.21875 43.3125 52.78125 
Q 43.3125 58.59375 39.234375 62.25 
Q 35.15625 65.921875 28.609375 65.921875 
Q 23.96875 65.921875 18.8125 64.3125 
Q 13.671875 62.703125 7.8125 59.421875 
L 7.8125 69.390625 
Q 13.765625 71.78125 18.9375 73 
Q 24.125 74.21875 28.421875 74.21875 
Q 39.75 74.21875 46.484375 68.546875 
Q 53.21875 62.890625 53.21875 53.421875 
Q 53.21875 48.921875 51.53125 44.890625 
Q 49.859375 40.875 45.40625 35.40625 
Q 44.1875 33.984375 37.640625 27.21875 
Q 31.109375 20.453125 19.1875 8.296875 
z
" id="DejaVuSans-50"/>
      </defs>
      <g transform="translate(181.002749 266.598437)scale(0.1 -0.1)">
       <use xlink:href="#DejaVuSans-50"/>
       <use x="63.623047" xlink:href="#DejaVuSans-48"/>
       <use x="127.246094" xlink:href="#DejaVuSans-48"/>
       <use x="190.869141" xlink:href="#DejaVuSans-48"/>
      </g>
     </g>
    </g>
    <g id="xtick_4">
     <g id="line2d_4">
      <g>
       <use style="stroke:#000000;stroke-width:0.8;" x="255.982532" xlink:href="#m07b2be63ae" y="252"/>
      </g>
     </g>
     <g id="text_4">
      <!-- 3000 -->
      <defs>
       <path d="M 40.578125 39.3125 
Q 47.65625 37.796875 51.625 33 
Q 55.609375 28.21875 55.609375 21.1875 
Q 55.609375 10.40625 48.1875 4.484375 
Q 40.765625 -1.421875 27.09375 -1.421875 
Q 22.515625 -1.421875 17.65625 -0.515625 
Q 12.796875 0.390625 7.625 2.203125 
L 7.625 11.71875 
Q 11.71875 9.328125 16.59375 8.109375 
Q 21.484375 6.890625 26.8125 6.890625 
Q 36.078125 6.890625 40.9375 10.546875 
Q 45.796875 14.203125 45.796875 21.1875 
Q 45.796875 27.640625 41.28125 31.265625 
Q 36.765625 34.90625 28.71875 34.90625 
L 20.21875 34.90625 
L 20.21875 43.015625 
L 29.109375 43.015625 
Q 36.375 43.015625 40.234375 45.921875 
Q 44.09375 48.828125 44.09375 54.296875 
Q 44.09375 59.90625 40.109375 62.90625 
Q 36.140625 65.921875 28.71875 65.921875 
Q 24.65625 65.921875 20.015625 65.03125 
Q 15.375 64.15625 9.8125 62.3125 
L 9.8125 71.09375 
Q 15.4375 72.65625 20.34375 73.4375 
Q 25.25 74.21875 29.59375 74.21875 
Q 40.828125 74.21875 47.359375 69.109375 
Q 53.90625 64.015625 53.90625 55.328125 
Q 53.90625 49.265625 50.4375 45.09375 
Q 46.96875 40.921875 40.578125 39.3125 
z
" id="DejaVuSans-51"/>
      </defs>
      <g transform="translate(243.257532 266.598437)scale(0.1 -0.1)">
       <use xlink:href="#DejaVuSans-51"/>
       <use x="63.623047" xlink:href="#DejaVuSans-48"/>
       <use x="127.246094" xlink:href="#DejaVuSans-48"/>
       <use x="190.869141" xlink:href="#DejaVuSans-48"/>
      </g>
     </g>
    </g>
    <g id="xtick_5">
     <g id="line2d_5">
      <g>
       <use style="stroke:#000000;stroke-width:0.8;" x="318.237316" xlink:href="#m07b2be63ae" y="252"/>
      </g>
     </g>
     <g id="text_5">
      <!-- 4000 -->
      <defs>
       <path d="M 37.796875 64.3125 
L 12.890625 25.390625 
L 37.796875 25.390625 
z
M 35.203125 72.90625 
L 47.609375 72.90625 
L 47.609375 25.390625 
L 58.015625 25.390625 
L 58.015625 17.1875 
L 47.609375 17.1875 
L 47.609375 0 
L 37.796875 0 
L 37.796875 17.1875 
L 4.890625 17.1875 
L 4.890625 26.703125 
z
" id="DejaVuSans-52"/>
      </defs>
      <g transform="translate(305.512316 266.598437)scale(0.1 -0.1)">
       <use xlink:href="#DejaVuSans-52"/>
       <use x="63.623047" xlink:href="#DejaVuSans-48"/>
       <use x="127.246094" xlink:href="#DejaVuSans-48"/>
       <use x="190.869141" xlink:href="#DejaVuSans-48"/>
      </g>
     </g>
    </g>
    <g id="xtick_6">
     <g id="line2d_6">
      <g>
       <use style="stroke:#000000;stroke-width:0.8;" x="380.492099" xlink:href="#m07b2be63ae" y="252"/>
      </g>
     </g>
     <g id="text_6">
      <!-- 5000 -->
      <defs>
       <path d="M 10.796875 72.90625 
L 49.515625 72.90625 
L 49.515625 64.59375 
L 19.828125 64.59375 
L 19.828125 46.734375 
Q 21.96875 47.46875 24.109375 47.828125 
Q 26.265625 48.1875 28.421875 48.1875 
Q 40.625 48.1875 47.75 41.5 
Q 54.890625 34.8125 54.890625 23.390625 
Q 54.890625 11.625 47.5625 5.09375 
Q 40.234375 -1.421875 26.90625 -1.421875 
Q 22.3125 -1.421875 17.546875 -0.640625 
Q 12.796875 0.140625 7.71875 1.703125 
L 7.71875 11.625 
Q 12.109375 9.234375 16.796875 8.0625 
Q 21.484375 6.890625 26.703125 6.890625 
Q 35.15625 6.890625 40.078125 11.328125 
Q 45.015625 15.765625 45.015625 23.390625 
Q 45.015625 31 40.078125 35.4375 
Q 35.15625 39.890625 26.703125 39.890625 
Q 22.75 39.890625 18.8125 39.015625 
Q 14.890625 38.140625 10.796875 36.28125 
z
" id="DejaVuSans-53"/>
      </defs>
      <g transform="translate(367.767099 266.598437)scale(0.1 -0.1)">
       <use xlink:href="#DejaVuSans-53"/>
       <use x="63.623047" xlink:href="#DejaVuSans-48"/>
       <use x="127.246094" xlink:href="#DejaVuSans-48"/>
       <use x="190.869141" xlink:href="#DejaVuSans-48"/>
      </g>
     </g>
    </g>
    <g id="text_7">
     <!-- i -->
     <defs>
      <path d="M 9.421875 54.6875 
L 18.40625 54.6875 
L 18.40625 0 
L 9.421875 0 
z
M 9.421875 75.984375 
L 18.40625 75.984375 
L 18.40625 64.59375 
L 9.421875 64.59375 
z
" id="DejaVuSans-105"/>
     </defs>
     <g transform="translate(220.010938 280.276563)scale(0.1 -0.1)">
      <use xlink:href="#DejaVuSans-105"/>
     </g>
    </g>
   </g>
   <g id="matplotlib.axis_2">
    <g id="ytick_1">
     <g id="line2d_7">
      <defs>
       <path d="M 0 0 
L -3.5 0 
" id="m5ac984bf86" style="stroke:#000000;stroke-width:0.8;"/>
      </defs>
      <g>
       <use style="stroke:#000000;stroke-width:0.8;" x="54" xlink:href="#m5ac984bf86" y="220.961217"/>
      </g>
     </g>
     <g id="text_8">
      <!-- 2 -->
      <g transform="translate(40.6375 224.760435)scale(0.1 -0.1)">
       <use xlink:href="#DejaVuSans-50"/>
      </g>
     </g>
    </g>
    <g id="ytick_2">
     <g id="line2d_8">
      <g>
       <use style="stroke:#000000;stroke-width:0.8;" x="54" xlink:href="#m5ac984bf86" y="173.142118"/>
      </g>
     </g>
     <g id="text_9">
      <!-- 4 -->
      <g transform="translate(40.6375 176.941337)scale(0.1 -0.1)">
       <use xlink:href="#DejaVuSans-52"/>
      </g>
     </g>
    </g>
    <g id="ytick_3">
     <g id="line2d_9">
      <g>
       <use style="stroke:#000000;stroke-width:0.8;" x="54" xlink:href="#m5ac984bf86" y="125.32302"/>
      </g>
     </g>
     <g id="text_10">
      <!-- 6 -->
      <defs>
       <path d="M 33.015625 40.375 
Q 26.375 40.375 22.484375 35.828125 
Q 18.609375 31.296875 18.609375 23.390625 
Q 18.609375 15.53125 22.484375 10.953125 
Q 26.375 6.390625 33.015625 6.390625 
Q 39.65625 6.390625 43.53125 10.953125 
Q 47.40625 15.53125 47.40625 23.390625 
Q 47.40625 31.296875 43.53125 35.828125 
Q 39.65625 40.375 33.015625 40.375 
z
M 52.59375 71.296875 
L 52.59375 62.3125 
Q 48.875 64.0625 45.09375 64.984375 
Q 41.3125 65.921875 37.59375 65.921875 
Q 27.828125 65.921875 22.671875 59.328125 
Q 17.53125 52.734375 16.796875 39.40625 
Q 19.671875 43.65625 24.015625 45.921875 
Q 28.375 48.1875 33.59375 48.1875 
Q 44.578125 48.1875 50.953125 41.515625 
Q 57.328125 34.859375 57.328125 23.390625 
Q 57.328125 12.15625 50.6875 5.359375 
Q 44.046875 -1.421875 33.015625 -1.421875 
Q 20.359375 -1.421875 13.671875 8.265625 
Q 6.984375 17.96875 6.984375 36.375 
Q 6.984375 53.65625 15.1875 63.9375 
Q 23.390625 74.21875 37.203125 74.21875 
Q 40.921875 74.21875 44.703125 73.484375 
Q 48.484375 72.75 52.59375 71.296875 
z
" id="DejaVuSans-54"/>
      </defs>
      <g transform="translate(40.6375 129.122238)scale(0.1 -0.1)">
       <use xlink:href="#DejaVuSans-54"/>
      </g>
     </g>
    </g>
    <g id="ytick_4">
     <g id="line2d_10">
      <g>
       <use style="stroke:#000000;stroke-width:0.8;" x="54" xlink:href="#m5ac984bf86" y="77.503921"/>
      </g>
     </g>
     <g id="text_11">
      <!-- 8 -->
      <defs>
       <path d="M 31.78125 34.625 
Q 24.75 34.625 20.71875 30.859375 
Q 16.703125 27.09375 16.703125 20.515625 
Q 16.703125 13.921875 20.71875 10.15625 
Q 24.75 6.390625 31.78125 6.390625 
Q 38.8125 6.390625 42.859375 10.171875 
Q 46.921875 13.96875 46.921875 20.515625 
Q 46.921875 27.09375 42.890625 30.859375 
Q 38.875 34.625 31.78125 34.625 
z
M 21.921875 38.8125 
Q 15.578125 40.375 12.03125 44.71875 
Q 8.5 49.078125 8.5 55.328125 
Q 8.5 64.0625 14.71875 69.140625 
Q 20.953125 74.21875 31.78125 74.21875 
Q 42.671875 74.21875 48.875 69.140625 
Q 55.078125 64.0625 55.078125 55.328125 
Q 55.078125 49.078125 51.53125 44.71875 
Q 48 40.375 41.703125 38.8125 
Q 48.828125 37.15625 52.796875 32.3125 
Q 56.78125 27.484375 56.78125 20.515625 
Q 56.78125 9.90625 50.3125 4.234375 
Q 43.84375 -1.421875 31.78125 -1.421875 
Q 19.734375 -1.421875 13.25 4.234375 
Q 6.78125 9.90625 6.78125 20.515625 
Q 6.78125 27.484375 10.78125 32.3125 
Q 14.796875 37.15625 21.921875 38.8125 
z
M 18.3125 54.390625 
Q 18.3125 48.734375 21.84375 45.5625 
Q 25.390625 42.390625 31.78125 42.390625 
Q 38.140625 42.390625 41.71875 45.5625 
Q 45.3125 48.734375 45.3125 54.390625 
Q 45.3125 60.0625 41.71875 63.234375 
Q 38.140625 66.40625 31.78125 66.40625 
Q 25.390625 66.40625 21.84375 63.234375 
Q 18.3125 60.0625 18.3125 54.390625 
z
" id="DejaVuSans-56"/>
      </defs>
      <g transform="translate(40.6375 81.30314)scale(0.1 -0.1)">
       <use xlink:href="#DejaVuSans-56"/>
      </g>
     </g>
    </g>
    <g id="text_12">
     <!-- GMRES/MLGMRES -->
     <defs>
      <path d="M 59.515625 10.40625 
L 59.515625 29.984375 
L 43.40625 29.984375 
L 43.40625 38.09375 
L 69.28125 38.09375 
L 69.28125 6.78125 
Q 63.578125 2.734375 56.6875 0.65625 
Q 49.8125 -1.421875 42 -1.421875 
Q 24.90625 -1.421875 15.25 8.5625 
Q 5.609375 18.5625 5.609375 36.375 
Q 5.609375 54.25 15.25 64.234375 
Q 24.90625 74.21875 42 74.21875 
Q 49.125 74.21875 55.546875 72.453125 
Q 61.96875 70.703125 67.390625 67.28125 
L 67.390625 56.78125 
Q 61.921875 61.421875 55.765625 63.765625 
Q 49.609375 66.109375 42.828125 66.109375 
Q 29.4375 66.109375 22.71875 58.640625 
Q 16.015625 51.171875 16.015625 36.375 
Q 16.015625 21.625 22.71875 14.15625 
Q 29.4375 6.6875 42.828125 6.6875 
Q 48.046875 6.6875 52.140625 7.59375 
Q 56.25 8.5 59.515625 10.40625 
z
" id="DejaVuSans-71"/>
      <path d="M 9.8125 72.90625 
L 24.515625 72.90625 
L 43.109375 23.296875 
L 61.8125 72.90625 
L 76.515625 72.90625 
L 76.515625 0 
L 66.890625 0 
L 66.890625 64.015625 
L 48.09375 14.015625 
L 38.1875 14.015625 
L 19.390625 64.015625 
L 19.390625 0 
L 9.8125 0 
z
" id="DejaVuSans-77"/>
      <path d="M 44.390625 34.1875 
Q 47.5625 33.109375 50.5625 29.59375 
Q 53.5625 26.078125 56.59375 19.921875 
L 66.609375 0 
L 56 0 
L 46.6875 18.703125 
Q 43.0625 26.03125 39.671875 28.421875 
Q 36.28125 30.8125 30.421875 30.8125 
L 19.671875 30.8125 
L 19.671875 0 
L 9.8125 0 
L 9.8125 72.90625 
L 32.078125 72.90625 
Q 44.578125 72.90625 50.734375 67.671875 
Q 56.890625 62.453125 56.890625 51.90625 
Q 56.890625 45.015625 53.6875 40.46875 
Q 50.484375 35.9375 44.390625 34.1875 
z
M 19.671875 64.796875 
L 19.671875 38.921875 
L 32.078125 38.921875 
Q 39.203125 38.921875 42.84375 42.21875 
Q 46.484375 45.515625 46.484375 51.90625 
Q 46.484375 58.296875 42.84375 61.546875 
Q 39.203125 64.796875 32.078125 64.796875 
z
" id="DejaVuSans-82"/>
      <path d="M 9.8125 72.90625 
L 55.90625 72.90625 
L 55.90625 64.59375 
L 19.671875 64.59375 
L 19.671875 43.015625 
L 54.390625 43.015625 
L 54.390625 34.71875 
L 19.671875 34.71875 
L 19.671875 8.296875 
L 56.78125 8.296875 
L 56.78125 0 
L 9.8125 0 
z
" id="DejaVuSans-69"/>
      <path d="M 53.515625 70.515625 
L 53.515625 60.890625 
Q 47.90625 63.578125 42.921875 64.890625 
Q 37.9375 66.21875 33.296875 66.21875 
Q 25.25 66.21875 20.875 63.09375 
Q 16.5 59.96875 16.5 54.203125 
Q 16.5 49.359375 19.40625 46.890625 
Q 22.3125 44.4375 30.421875 42.921875 
L 36.375 41.703125 
Q 47.40625 39.59375 52.65625 34.296875 
Q 57.90625 29 57.90625 20.125 
Q 57.90625 9.515625 50.796875 4.046875 
Q 43.703125 -1.421875 29.984375 -1.421875 
Q 24.8125 -1.421875 18.96875 -0.25 
Q 13.140625 0.921875 6.890625 3.21875 
L 6.890625 13.375 
Q 12.890625 10.015625 18.65625 8.296875 
Q 24.421875 6.59375 29.984375 6.59375 
Q 38.421875 6.59375 43.015625 9.90625 
Q 47.609375 13.234375 47.609375 19.390625 
Q 47.609375 24.75 44.3125 27.78125 
Q 41.015625 30.8125 33.5 32.328125 
L 27.484375 33.5 
Q 16.453125 35.6875 11.515625 40.375 
Q 6.59375 45.0625 6.59375 53.421875 
Q 6.59375 63.09375 13.40625 68.65625 
Q 20.21875 74.21875 32.171875 74.21875 
Q 37.3125 74.21875 42.625 73.28125 
Q 47.953125 72.359375 53.515625 70.515625 
z
" id="DejaVuSans-83"/>
      <path d="M 25.390625 72.90625 
L 33.6875 72.90625 
L 8.296875 -9.28125 
L 0 -9.28125 
z
" id="DejaVuSans-47"/>
      <path d="M 9.8125 72.90625 
L 19.671875 72.90625 
L 19.671875 8.296875 
L 55.171875 8.296875 
L 55.171875 0 
L 9.8125 0 
z
" id="DejaVuSans-76"/>
     </defs>
     <g transform="translate(34.557812 188.056563)rotate(-90)scale(0.1 -0.1)">
      <use xlink:href="#DejaVuSans-71"/>
      <use x="77.490234" xlink:href="#DejaVuSans-77"/>
      <use x="163.769531" xlink:href="#DejaVuSans-82"/>
      <use x="233.251953" xlink:href="#DejaVuSans-69"/>
      <use x="296.435547" xlink:href="#DejaVuSans-83"/>
      <use x="359.912109" xlink:href="#DejaVuSans-47"/>
      <use x="393.603516" xlink:href="#DejaVuSans-77"/>
      <use x="479.882812" xlink:href="#DejaVuSans-76"/>
      <use x="535.595703" xlink:href="#DejaVuSans-71"/>
      <use x="613.085938" xlink:href="#DejaVuSans-77"/>
      <use x="699.365234" xlink:href="#DejaVuSans-82"/>
      <use x="768.847656" xlink:href="#DejaVuSans-69"/>
      <use x="832.03125" xlink:href="#DejaVuSans-83"/>
     </g>
    </g>
   </g>
   <g id="line2d_11">
    <path clip-path="url(#peec4fe4422)" d="M 69.218182 242.116364 
L 69.342691 241.316823 
L 69.404946 241.680992 
L 69.467201 241.250854 
L 69.591711 241.76603 
L 69.653965 241.088898 
L 69.71622 241.387781 
L 69.778475 241.584541 
L 69.84073 241.512702 
L 69.902984 240.595115 
L 69.965239 241.159336 
L 70.089749 239.800321 
L 70.152004 241.340589 
L 70.214258 241.137759 
L 70.712297 237.900949 
L 70.774551 237.775136 
L 70.899061 238.011774 
L 71.085825 236.545695 
L 71.210335 236.621609 
L 71.397099 236.109663 
L 71.708373 237.581742 
L 71.770628 237.549801 
L 72.081902 238.506897 
L 72.144157 238.147698 
L 72.330921 239.062502 
L 72.455431 238.777712 
L 72.57994 239.529427 
L 72.642195 239.279011 
L 72.70445 239.481731 
L 72.766704 239.454373 
L 72.891214 238.751246 
L 72.953469 238.822523 
L 73.451507 236.360929 
L 73.513762 236.303167 
L 73.576017 236.461991 
L 73.638271 235.915944 
L 73.762781 237.143916 
L 73.825036 237.072963 
L 74.13631 235.68212 
L 74.198564 236.2392 
L 74.323074 235.317042 
L 74.447584 236.141265 
L 74.509838 235.515742 
L 74.572093 235.768906 
L 74.634348 235.947671 
L 75.007877 234.693477 
L 75.070131 234.589524 
L 75.132386 234.923798 
L 75.194641 234.727295 
L 75.381405 232.622416 
L 75.56817 231.509224 
L 75.692679 232.500633 
L 75.754934 231.838823 
L 75.817189 232.158011 
L 75.879444 232.248535 
L 76.190718 229.372196 
L 76.501991 232.561037 
L 76.564246 232.154158 
L 76.626501 232.381739 
L 76.688756 232.320632 
L 76.751011 232.024465 
L 76.813265 232.250331 
L 76.87552 232.029618 
L 77.186794 234.489944 
L 77.249049 233.043357 
L 77.311304 233.502896 
L 77.373558 233.035411 
L 77.622578 234.293638 
L 77.809342 233.561434 
L 77.871597 234.134289 
L 78.120616 231.751026 
L 78.182871 231.651701 
L 78.43189 233.126792 
L 78.556399 231.651252 
L 78.743164 230.50185 
L 78.929928 231.731137 
L 78.992183 231.325094 
L 79.178947 232.944769 
L 79.427966 232.039791 
L 79.490221 232.411789 
L 79.552476 232.277588 
L 79.614731 231.939771 
L 79.676985 232.504015 
L 79.801495 230.603348 
L 79.86375 230.778569 
L 79.926005 231.461909 
L 80.050514 229.772334 
L 80.237278 230.839455 
L 80.299533 230.122327 
L 80.361788 230.553374 
L 80.735317 227.960921 
L 80.797572 228.260996 
L 80.859826 228.25295 
L 80.922081 228.733613 
L 80.984336 228.284387 
L 81.1711 229.71586 
L 81.233355 228.80971 
L 81.29561 229.319454 
L 81.357865 229.928025 
L 81.482374 228.173149 
L 81.606884 228.812522 
L 81.669139 228.455047 
L 81.918158 226.46776 
L 81.980412 226.655994 
L 82.042667 225.332419 
L 82.104922 226.400179 
L 82.167177 225.840379 
L 82.229432 225.79417 
L 82.540705 227.335421 
L 82.665215 225.818382 
L 82.72747 225.777401 
L 82.789725 226.407387 
L 82.851979 226.270794 
L 82.914234 225.762399 
L 82.976489 226.325296 
L 83.038744 225.364413 
L 83.225508 226.887893 
L 83.350018 227.323346 
L 83.412272 227.135854 
L 83.536782 227.609126 
L 83.599037 227.406207 
L 83.848056 226.662387 
L 83.910311 227.646091 
L 83.972565 227.101552 
L 84.221585 225.685388 
L 84.283839 226.067433 
L 84.346094 225.877543 
L 84.408349 225.565373 
L 84.470604 225.720547 
L 84.532859 226.483434 
L 84.595113 226.164031 
L 84.657368 225.919565 
L 84.781878 223.654674 
L 84.906387 223.672506 
L 84.968642 224.921155 
L 85.030897 224.247277 
L 85.155406 224.691041 
L 85.342171 223.339587 
L 85.404426 223.387425 
L 85.528935 221.407786 
L 85.777954 222.928189 
L 86.026973 221.957053 
L 86.089228 220.666156 
L 86.151483 221.240727 
L 86.213738 220.794606 
L 86.275992 220.808592 
L 86.462757 222.161634 
L 86.649521 220.528278 
L 86.711776 221.437027 
L 86.774031 221.112432 
L 86.836286 220.940543 
L 86.89854 221.257947 
L 86.960795 220.473883 
L 87.02305 221.009895 
L 87.209814 219.518816 
L 87.334324 218.366406 
L 87.458833 217.772211 
L 87.645598 219.001536 
L 87.707853 218.912337 
L 87.770107 220.342209 
L 87.832362 219.674236 
L 88.143636 215.074766 
L 88.205891 215.750941 
L 88.268146 215.731613 
L 88.3304 214.881541 
L 88.517165 217.839434 
L 88.703929 216.518953 
L 88.766184 216.621342 
L 89.015203 219.924172 
L 89.077458 219.17694 
L 89.201967 218.253169 
L 89.264222 218.520252 
L 89.326477 216.615058 
L 89.388732 217.285157 
L 89.450986 218.358327 
L 89.575496 216.553516 
L 89.637751 217.335809 
L 89.700006 217.155771 
L 89.824515 215.227938 
L 89.949025 215.464762 
L 90.011279 215.332757 
L 90.135789 213.807254 
L 90.198044 213.806413 
L 90.260299 213.371571 
L 90.322553 214.394911 
L 90.384808 213.683977 
L 90.447063 213.364343 
L 90.571573 212.131879 
L 90.820592 213.415129 
L 91.007356 215.111059 
L 91.256375 217.176488 
L 91.380885 219.024289 
L 91.44314 218.518327 
L 91.505394 217.770279 
L 91.567649 218.149846 
L 91.816668 220.052541 
L 92.003433 218.058825 
L 92.065687 218.858417 
L 92.127942 217.948733 
L 92.190197 219.514625 
L 92.252452 218.211969 
L 92.314706 218.53782 
L 92.376961 218.18482 
L 92.439216 216.789335 
L 92.501471 217.50241 
L 92.62598 216.420239 
L 92.75049 217.313338 
L 92.937254 216.218809 
L 93.186273 213.816782 
L 93.373038 213.933278 
L 93.435293 214.571775 
L 93.497547 212.983714 
L 93.559802 214.64161 
L 93.746567 211.297107 
L 93.808821 212.045369 
L 93.933331 210.231969 
L 94.05784 211.150231 
L 94.120095 210.415 
L 94.18235 211.113199 
L 94.431369 207.64362 
L 94.555879 209.346678 
L 94.618133 209.058409 
L 94.742643 210.206528 
L 94.991662 206.930885 
L 95.053917 208.075356 
L 95.240681 204.834383 
L 95.365191 204.077363 
L 95.427446 204.544807 
L 95.61421 200.955972 
L 95.676465 201.148966 
L 95.73872 200.854877 
L 95.800974 201.005938 
L 95.863229 199.628408 
L 95.925484 201.019364 
L 95.987739 200.889149 
L 96.049993 198.628415 
L 96.112248 200.164347 
L 96.174503 200.370266 
L 96.299013 199.467294 
L 96.361267 201.527587 
L 96.423522 200.210016 
L 96.485777 199.988863 
L 96.548032 200.6099 
L 96.734796 199.119316 
L 96.92156 200.437201 
L 96.983815 199.192105 
L 97.04607 199.693127 
L 97.108325 200.488101 
L 97.17058 199.328877 
L 97.295089 201.26801 
L 97.481854 199.696254 
L 97.544108 201.059554 
L 97.606363 200.774184 
L 97.730873 198.922413 
L 97.917637 197.176914 
L 97.979892 198.8577 
L 98.042147 198.510511 
L 98.104401 196.930239 
L 98.166656 197.523277 
L 98.228911 198.58909 
L 98.291166 198.164012 
L 98.35342 197.538712 
L 98.415675 198.370083 
L 98.47793 196.36727 
L 98.540185 197.333035 
L 98.726949 198.850647 
L 98.789204 198.507879 
L 98.851459 196.342582 
L 98.913714 198.113733 
L 98.975968 197.993129 
L 99.038223 197.899716 
L 99.287242 195.955396 
L 99.349497 197.518596 
L 99.411752 196.985781 
L 99.536261 195.417789 
L 99.660771 197.319314 
L 99.78528 196.166775 
L 99.847535 197.759536 
L 99.90979 197.72487 
L 100.0343 196.046669 
L 100.096554 197.216572 
L 100.158809 196.601644 
L 100.470083 191.689713 
L 100.532338 191.558381 
L 100.656847 189.950591 
L 100.719102 192.278278 
L 100.781357 192.131178 
L 100.905867 191.567306 
L 101.030376 193.087808 
L 101.217141 190.743415 
L 101.279395 190.796171 
L 101.34165 191.32549 
L 101.46616 189.026928 
L 101.590669 190.705367 
L 101.715179 188.897542 
L 101.839688 191.255238 
L 101.901943 190.119132 
L 102.026453 192.084242 
L 102.088707 191.608193 
L 102.150962 190.709106 
L 102.399981 194.399579 
L 102.462236 194.189943 
L 102.586746 191.896273 
L 102.77351 194.653283 
L 102.89802 192.707487 
L 102.960274 192.936598 
L 103.022529 192.520474 
L 103.084784 192.531087 
L 103.271548 194.224997 
L 103.333803 193.929502 
L 103.458313 195.419956 
L 103.520568 195.323149 
L 103.645077 193.92842 
L 103.707332 196.347767 
L 103.769587 195.774945 
L 103.956351 190.515115 
L 104.018606 192.971674 
L 104.080861 192.184016 
L 104.267625 188.981618 
L 104.32988 189.210757 
L 104.392134 191.061829 
L 104.516644 188.116886 
L 104.641154 190.658979 
L 104.765663 188.504425 
L 104.827918 190.22148 
L 104.890173 189.486646 
L 105.014682 187.570094 
L 105.139192 190.044641 
L 105.201447 189.041384 
L 105.263701 190.262265 
L 105.450466 188.017513 
L 105.512721 190.41163 
L 105.63723 187.740326 
L 105.699485 188.798005 
L 105.948504 182.808156 
L 106.073014 186.208058 
L 106.259778 183.360443 
L 106.322033 185.065661 
L 106.384288 182.164543 
L 106.446542 183.612831 
L 106.571052 185.310439 
L 106.695561 182.078202 
L 106.757816 183.223288 
L 106.820071 182.550857 
L 106.882326 182.47057 
L 107.006835 183.635563 
L 107.131345 181.857857 
L 107.504874 189.919293 
L 107.567128 188.340347 
L 107.629383 188.506089 
L 107.753893 190.090737 
L 107.816148 190.018552 
L 107.878402 188.229256 
L 108.002912 190.750024 
L 108.189676 186.613178 
L 108.251931 187.377692 
L 108.314186 187.243789 
L 108.376441 185.168813 
L 108.438695 185.345709 
L 108.50095 185.493002 
L 108.563205 183.847491 
L 108.62546 184.388311 
L 108.687715 186.032717 
L 108.749969 185.388269 
L 108.812224 185.157709 
L 108.874479 185.571619 
L 108.998988 184.834083 
L 109.123498 186.552912 
L 109.185753 186.130879 
L 109.248008 184.202949 
L 109.310262 185.637728 
L 109.434772 186.753539 
L 109.621536 183.840887 
L 109.683791 183.803006 
L 109.870555 185.61151 
L 110.05732 183.22386 
L 110.119575 183.295384 
L 110.181829 184.2224 
L 110.244084 182.218198 
L 110.306339 182.696734 
L 110.679868 177.936476 
L 110.742122 182.284451 
L 110.804377 181.872863 
L 110.866632 178.939292 
L 110.928887 179.805524 
L 110.991142 180.617397 
L 111.053396 179.96637 
L 111.177906 177.578156 
L 111.36467 180.588876 
L 111.426925 178.450606 
L 111.48918 179.189801 
L 111.551435 181.35728 
L 111.613689 181.160821 
L 111.675944 181.491649 
L 111.800454 177.546979 
L 111.924963 179.734269 
L 111.987218 179.046254 
L 112.049473 178.947851 
L 112.236237 172.971907 
L 112.298492 166.81678 
L 112.360747 169.867374 
L 112.423002 171.602739 
L 112.547511 166.642906 
L 112.734275 173.840921 
L 112.92104 171.313374 
L 112.983295 171.991451 
L 113.107804 170.923675 
L 113.232314 173.66973 
L 113.356823 177.909709 
L 113.543588 174.26638 
L 113.605842 173.023903 
L 113.917116 179.53339 
L 113.979371 178.296995 
L 114.041626 178.99728 
L 114.103881 183.36532 
L 114.166135 180.669317 
L 114.3529 183.144644 
L 114.415155 181.30022 
L 114.601919 185.793068 
L 114.788683 182.551854 
L 114.850938 179.769481 
L 114.913193 179.776922 
L 115.162212 185.454643 
L 115.224467 184.454196 
L 115.348976 181.088684 
L 115.411231 184.073474 
L 115.473486 182.854636 
L 115.535741 184.295354 
L 115.78476 178.58731 
L 115.909269 178.96567 
L 115.971524 180.735817 
L 116.096034 176.34704 
L 116.158289 178.502016 
L 116.220543 178.241407 
L 116.282798 178.348389 
L 116.407308 180.326491 
L 116.594072 178.296081 
L 116.780836 175.586437 
L 116.905346 177.698187 
L 117.09211 173.302865 
L 117.21662 171.940185 
L 117.341129 175.620761 
L 117.403384 174.724086 
L 117.465639 174.108986 
L 117.527894 171.991199 
L 117.652403 177.892933 
L 117.714658 174.721622 
L 117.776913 175.508909 
L 117.839168 175.020268 
L 117.901422 173.240723 
L 118.088187 176.719328 
L 118.274951 173.301591 
L 118.337206 176.385994 
L 118.399461 176.373941 
L 118.461716 175.747437 
L 118.52397 176.925735 
L 118.586225 173.752877 
L 118.64848 175.108149 
L 118.710735 175.850914 
L 118.772989 178.224833 
L 118.959754 173.781129 
L 119.022009 172.656659 
L 119.084263 174.041261 
L 119.271028 168.942738 
L 119.333283 167.654872 
L 119.395537 172.569347 
L 119.457792 172.442702 
L 119.582302 166.7496 
L 119.644556 167.632246 
L 119.706811 166.397305 
L 119.831321 168.896052 
L 119.893576 168.500145 
L 119.95583 168.531117 
L 120.018085 169.304803 
L 120.204849 166.821371 
L 120.267104 167.47915 
L 120.329359 163.667646 
L 120.516123 168.490848 
L 120.578378 168.99357 
L 120.702888 164.641721 
L 120.765143 166.11574 
L 120.827397 165.933776 
L 120.889652 165.809205 
L 120.951907 160.485252 
L 121.138671 170.750479 
L 121.200926 169.760254 
L 121.263181 169.848386 
L 121.325436 170.036963 
L 121.38769 171.499769 
L 121.449945 170.684346 
L 121.5122 171.352826 
L 121.574455 170.162344 
L 121.761219 172.701639 
L 121.823474 171.968015 
L 121.885729 173.817136 
L 122.072493 168.50266 
L 122.259257 175.60241 
L 122.446022 174.969203 
L 122.508276 177.525729 
L 122.881805 166.862888 
L 123.006315 168.059405 
L 123.06857 167.33989 
L 123.130824 169.335593 
L 123.317589 166.07331 
L 123.379843 167.327648 
L 123.442098 167.126834 
L 123.628863 165.6544 
L 123.691117 164.400019 
L 123.753372 167.435033 
L 123.815627 165.897502 
L 123.877882 165.141538 
L 123.940136 165.706807 
L 124.002391 167.80813 
L 124.064646 166.241205 
L 124.126901 165.559303 
L 124.313665 166.88731 
L 124.438175 171.769725 
L 124.687194 166.052278 
L 124.811703 168.41598 
L 124.873958 173.358875 
L 124.936213 171.520116 
L 124.998468 169.90044 
L 125.060723 171.028621 
L 125.185232 172.697514 
L 125.247487 171.518851 
L 125.434251 161.938456 
L 125.496506 162.697713 
L 125.558761 161.63059 
L 125.68327 164.398199 
L 125.93229 157.48746 
L 125.994544 157.620668 
L 126.056799 158.215773 
L 126.243563 162.890704 
L 126.368073 159.413837 
L 126.430328 155.212174 
L 126.492583 155.662753 
L 126.554837 157.858431 
L 126.617092 156.878507 
L 126.741602 154.65795 
L 126.990621 160.071531 
L 127.052876 158.458361 
L 127.11513 160.478389 
L 127.177385 158.142155 
L 127.23964 159.163838 
L 127.426404 162.806704 
L 127.488659 163.73696 
L 127.550914 166.416485 
L 127.613169 165.867763 
L 127.675423 163.550573 
L 127.737678 164.069129 
L 127.799933 163.947278 
L 127.924443 168.296391 
L 127.986697 167.979678 
L 128.048952 168.180432 
L 128.173462 166.153798 
L 128.297971 172.980384 
L 128.484736 169.383706 
L 128.609245 174.059697 
L 128.920519 165.554052 
L 128.982774 165.381283 
L 129.045029 166.9219 
L 129.107284 164.818802 
L 129.169538 165.099033 
L 129.231793 165.243932 
L 129.480812 160.897421 
L 129.543067 160.980201 
L 129.605322 160.710024 
L 129.667577 161.785893 
L 129.729831 160.531807 
L 129.854341 153.229685 
L 130.041105 158.05472 
L 130.165615 154.135466 
L 130.352379 160.104058 
L 130.414634 159.930082 
L 130.601398 164.301175 
L 130.725908 159.697893 
L 130.788163 160.227965 
L 130.850417 160.854927 
L 130.912672 160.733353 
L 130.974927 160.271844 
L 131.037182 161.847087 
L 131.099437 160.45551 
L 131.348456 166.805561 
L 131.410711 165.585806 
L 131.597475 159.627402 
L 131.65973 162.302079 
L 131.721984 160.865113 
L 131.846494 157.325447 
L 132.033258 163.924234 
L 132.157768 159.886443 
L 132.220023 161.280092 
L 132.344532 163.493665 
L 132.593551 158.297334 
L 132.655806 163.892902 
L 132.718061 162.22628 
L 132.904825 158.181711 
L 133.029335 156.735516 
L 133.153844 160.647264 
L 133.278354 159.936674 
L 133.340609 160.057308 
L 133.402864 159.012761 
L 133.465118 154.120603 
L 133.527373 156.2379 
L 133.589628 156.026417 
L 133.651883 157.257236 
L 133.838647 151.141887 
L 133.900902 151.349454 
L 133.963157 151.529817 
L 134.149921 155.971433 
L 134.212176 150.854474 
L 134.274431 152.332648 
L 134.39894 155.329161 
L 134.461195 154.096409 
L 134.647959 159.994494 
L 134.834724 152.400547 
L 135.021488 156.480756 
L 135.145998 156.436724 
L 135.208252 155.443954 
L 135.332762 157.4264 
L 135.395017 157.553089 
L 135.519526 160.161603 
L 135.581781 159.955863 
L 135.706291 155.34549 
L 135.768545 157.420843 
L 135.8308 158.089252 
L 135.95531 156.833662 
L 136.142074 157.753139 
L 136.204329 155.696751 
L 136.266584 156.07258 
L 136.328838 155.807785 
L 136.391093 156.990303 
L 136.453348 155.642698 
L 136.515603 155.902688 
L 136.577858 155.928778 
L 136.640112 155.528569 
L 136.826877 149.383451 
L 136.889131 151.966054 
L 136.951386 151.40138 
L 137.013641 148.151518 
L 137.075896 151.217396 
L 137.138151 150.484019 
L 137.26266 152.956625 
L 137.449424 144.625466 
L 137.573934 147.710596 
L 137.760698 144.39318 
L 137.822953 144.811302 
L 137.885208 149.903149 
L 137.947463 149.225721 
L 138.196482 141.96575 
L 138.507756 151.034066 
L 138.570011 150.598101 
L 138.756775 143.794862 
L 138.81903 143.916426 
L 139.068049 147.497718 
L 139.130304 147.343443 
L 139.192558 146.765761 
L 139.254813 146.955814 
L 139.503832 153.361478 
L 139.566087 154.67353 
L 139.690597 167.307793 
L 139.877361 169.021258 
L 140.001871 167.131927 
L 140.12638 168.476832 
L 140.188635 168.173333 
L 140.313145 170.897585 
L 140.375399 170.714414 
L 140.437654 170.760101 
L 140.499909 170.440032 
L 140.562164 170.507678 
L 140.624418 168.64086 
L 140.686673 168.984778 
L 140.748928 168.818025 
L 140.811183 168.276288 
L 140.873438 166.706864 
L 140.935692 168.363395 
L 141.122457 164.34352 
L 141.309221 146.647387 
L 141.620495 137.752772 
L 141.807259 146.364042 
L 141.869514 144.664689 
L 141.931769 143.465573 
L 141.994024 147.374084 
L 142.056278 146.942692 
L 142.243043 143.275434 
L 142.429807 146.472802 
L 142.616572 142.20922 
L 142.741081 146.33461 
L 142.803336 145.391942 
L 142.9901 148.888637 
L 143.052355 147.878828 
L 143.11461 150.274376 
L 143.176865 149.449138 
L 143.363629 142.853002 
L 143.488138 148.681391 
L 143.550393 145.879075 
L 143.612648 146.127721 
L 143.799412 148.128279 
L 143.861667 147.964193 
L 143.986177 153.9116 
L 144.110686 152.912696 
L 144.172941 153.022834 
L 144.235196 149.333561 
L 144.359705 153.125585 
L 144.54647 149.41267 
L 144.733234 155.355083 
L 144.857744 154.791673 
L 144.919999 155.589219 
L 145.044508 152.559893 
L 145.106763 150.482161 
L 145.169018 150.713337 
L 145.293527 152.713144 
L 145.542546 146.039811 
L 145.667056 142.144677 
L 145.791565 146.244211 
L 145.916075 143.108095 
L 145.97833 144.402693 
L 146.102839 150.657872 
L 146.227349 146.216882 
L 146.289604 146.80936 
L 146.351859 147.759947 
L 146.476368 142.740643 
L 146.538623 145.932412 
L 146.600878 144.903021 
L 146.663132 145.785608 
L 146.725387 145.508192 
L 146.787642 142.308133 
L 146.849897 144.623298 
L 146.912152 147.054173 
L 147.098916 140.622327 
L 147.223426 146.013821 
L 147.41019 139.912003 
L 147.534699 144.756311 
L 147.659209 139.677749 
L 147.721464 140.805103 
L 147.783719 140.102805 
L 147.908228 137.452079 
L 148.219502 142.712034 
L 148.281757 142.466697 
L 148.344012 142.805905 
L 148.406266 142.358929 
L 148.655286 147.178912 
L 148.779795 143.33995 
L 148.84205 144.208325 
L 148.904305 147.371966 
L 148.966559 146.763282 
L 149.091069 142.325047 
L 149.277833 146.369368 
L 149.340088 145.113387 
L 149.402343 145.919303 
L 149.526852 148.348431 
L 149.589107 148.051069 
L 149.651362 144.815647 
L 149.713617 147.28191 
L 149.775872 145.716665 
L 149.838126 146.041133 
L 149.900381 147.905307 
L 150.024891 143.419137 
L 150.087146 146.614433 
L 150.1494 144.958122 
L 150.336165 149.90031 
L 150.398419 149.752593 
L 150.460674 146.876503 
L 150.585184 152.50385 
L 150.647439 152.14068 
L 150.709693 151.519594 
L 150.771948 152.890048 
L 150.834203 151.902403 
L 150.896458 151.973361 
L 151.020967 148.63196 
L 151.083222 149.144932 
L 151.207732 147.392075 
L 151.269986 144.82627 
L 151.394496 151.083327 
L 151.456751 150.538091 
L 151.519006 151.763135 
L 151.58126 151.352527 
L 151.643515 150.996376 
L 151.70577 154.172536 
L 151.768025 152.984168 
L 151.830279 154.241755 
L 152.141553 147.01242 
L 152.266063 144.963524 
L 152.328318 143.130255 
L 152.577337 148.822302 
L 152.639592 147.459144 
L 152.826356 153.560515 
L 153.01312 147.726876 
L 153.075375 148.67028 
L 153.13763 147.321139 
L 153.262139 140.019321 
L 153.324394 140.784999 
L 153.511159 138.283545 
L 153.635668 139.956661 
L 153.697923 139.404998 
L 153.822433 138.431118 
L 153.884687 141.131487 
L 153.946942 139.918239 
L 154.009197 138.144873 
L 154.071452 138.969015 
L 154.320471 132.583486 
L 154.44498 139.186851 
L 154.631745 136.323911 
L 154.818509 141.615498 
L 154.880764 141.110234 
L 155.005273 143.677683 
L 155.129783 146.245961 
L 155.192038 142.927318 
L 155.254293 146.485588 
L 155.316547 146.19442 
L 155.378802 147.017909 
L 155.441057 143.720927 
L 155.503312 144.854501 
L 155.565566 145.387815 
L 155.690076 143.912224 
L 155.814586 147.202161 
L 155.87684 145.966396 
L 156.00135 140.162245 
L 156.312624 147.863238 
L 156.374879 147.952783 
L 156.437133 146.988349 
L 156.499388 147.672048 
L 156.561643 147.175976 
L 156.686153 144.155814 
L 156.748407 144.738114 
L 156.872917 145.803194 
L 156.935172 145.269749 
L 156.997427 144.806518 
L 157.059681 142.611185 
L 157.121936 143.359346 
L 157.184191 143.94183 
L 157.246446 146.82771 
L 157.3087 144.869243 
L 157.43321 141.967845 
L 157.495465 141.887553 
L 157.619974 144.936916 
L 157.993503 132.16298 
L 158.055758 130.094264 
L 158.304777 138.147298 
L 158.367032 133.587547 
L 158.429287 133.768257 
L 158.553796 138.393717 
L 158.802815 134.420528 
L 158.927325 136.488449 
L 158.98958 136.395463 
L 159.238599 132.630576 
L 159.300853 131.618849 
L 159.487618 135.430493 
L 159.612127 142.330271 
L 159.736637 139.006941 
L 159.923401 144.49336 
L 160.047911 140.066866 
L 160.110166 140.218561 
L 160.234675 143.707953 
L 160.29693 143.817742 
L 160.42144 141.119194 
L 160.608204 146.483095 
L 160.670459 145.685178 
L 160.857223 140.556553 
L 160.981733 144.686707 
L 161.168497 136.714599 
L 161.230752 138.666782 
L 161.293007 139.79513 
L 161.479771 131.599889 
L 161.542026 130.655878 
L 161.666535 134.737735 
L 161.8533 131.355619 
L 161.977809 128.999112 
L 162.102319 123.558294 
L 162.226828 127.295382 
L 162.289083 125.67842 
L 162.351338 126.793325 
L 162.413593 127.788319 
L 162.475847 124.529413 
L 162.600357 131.89879 
L 162.662612 131.88834 
L 162.787121 123.862639 
L 162.849376 124.523047 
L 162.973886 127.576775 
L 163.16065 124.81545 
L 163.409669 127.49563 
L 163.471924 127.045436 
L 163.658688 138.043494 
L 163.720943 136.34976 
L 163.783198 136.552299 
L 163.969962 141.688028 
L 164.032217 142.849268 
L 164.156727 139.415701 
L 164.218981 139.913846 
L 164.343491 144.253706 
L 164.468001 140.802537 
L 164.654765 146.607684 
L 164.71702 146.521447 
L 164.841529 146.737183 
L 164.966039 143.603049 
L 165.090548 146.852685 
L 165.215058 140.575247 
L 165.339567 143.00821 
L 165.588587 134.270492 
L 165.650841 134.233961 
L 165.837606 133.357771 
L 165.899861 133.427188 
L 166.02437 137.204695 
L 166.14888 131.353868 
L 166.211134 133.39294 
L 166.273389 132.535767 
L 166.397899 127.234462 
L 166.460154 127.998775 
L 166.522408 127.259048 
L 166.646918 123.748296 
L 166.709173 127.174252 
L 166.771428 125.873307 
L 166.833682 121.356743 
L 166.895937 122.033845 
L 167.020447 123.883231 
L 167.082701 123.863383 
L 167.144956 127.477228 
L 167.207211 124.665027 
L 167.393975 129.291676 
L 167.45623 128.591894 
L 167.58074 125.084452 
L 167.642994 125.351142 
L 167.705249 127.720397 
L 167.767504 125.994262 
L 167.892014 126.540888 
L 168.016523 129.848721 
L 168.141033 134.500645 
L 168.203288 131.611193 
L 168.265542 131.943823 
L 168.452307 137.772009 
L 168.639071 143.391969 
L 168.763581 140.368565 
L 168.88809 142.903684 
L 168.950345 141.261425 
L 169.199364 148.930694 
L 169.261619 147.594797 
L 169.323874 147.72802 
L 169.448383 147.787813 
L 169.510638 148.830796 
L 169.697402 143.182354 
L 169.821912 146.821361 
L 170.195441 135.171063 
L 170.257695 135.877074 
L 170.44446 130.379601 
L 170.506715 130.428389 
L 170.568969 132.010096 
L 170.631224 131.382895 
L 170.755734 125.224253 
L 170.817988 125.809648 
L 171.067008 122.09677 
L 171.129262 122.146913 
L 171.191517 123.226866 
L 171.253772 131.015996 
L 171.316027 129.77153 
L 171.502791 124.452615 
L 171.565046 126.021945 
L 171.814065 138.833941 
L 172.000829 144.574269 
L 172.063084 144.490806 
L 172.249848 136.178843 
L 172.312103 135.849733 
L 172.436613 139.459838 
L 172.685632 146.889976 
L 172.747887 146.943266 
L 172.872396 140.285536 
L 172.934651 144.538118 
L 172.996906 143.872236 
L 173.121415 141.852308 
L 173.370435 134.751625 
L 173.432689 135.760526 
L 173.494944 135.258816 
L 173.619454 133.954264 
L 173.743963 131.06895 
L 173.806218 131.912299 
L 173.868473 135.473278 
L 173.930728 135.16368 
L 174.304256 124.565995 
L 174.366511 124.358296 
L 174.553275 128.825545 
L 174.61553 128.675214 
L 174.677785 127.906291 
L 174.74004 123.546996 
L 174.802295 126.94823 
L 174.864549 126.257502 
L 174.926804 126.818431 
L 175.051314 120.441468 
L 175.175823 121.151507 
L 175.487097 127.468419 
L 175.549352 127.399683 
L 175.798371 133.993576 
L 175.860626 134.048068 
L 175.922881 135.613898 
L 175.985135 134.155291 
L 176.1719 123.496274 
L 176.296409 127.588449 
L 176.420919 122.892998 
L 176.483174 122.463268 
L 176.607683 128.142332 
L 176.732193 125.867803 
L 176.918957 131.253253 
L 177.043467 124.633864 
L 177.105722 129.508187 
L 177.167976 128.59195 
L 177.230231 129.479749 
L 177.292486 128.460381 
L 177.354741 124.576557 
L 177.416995 125.384469 
L 177.47925 124.377808 
L 177.728269 131.828145 
L 177.790524 129.985374 
L 177.852779 130.161579 
L 178.039543 133.802366 
L 178.164053 133.197098 
L 178.226308 132.882407 
L 178.288562 134.837007 
L 178.413072 130.658786 
L 178.537582 136.610062 
L 178.599836 134.779457 
L 178.786601 127.167452 
L 178.848856 125.266685 
L 179.03562 132.120337 
L 179.160129 131.131428 
L 179.222384 130.657841 
L 179.284639 130.969987 
L 179.346894 131.93266 
L 179.658168 124.805423 
L 179.782677 127.873588 
L 179.844932 126.237624 
L 179.969442 130.993049 
L 180.156206 121.652975 
L 180.218461 123.083612 
L 180.34297 125.579686 
L 180.46748 130.852217 
L 180.841009 122.22301 
L 181.027773 128.639113 
L 181.090028 127.087959 
L 181.152282 127.446697 
L 181.463556 120.671866 
L 181.588066 124.138475 
L 181.712576 127.396605 
L 181.77483 126.726147 
L 182.023849 120.302911 
L 182.086104 120.355897 
L 182.335123 115.517099 
L 182.459633 117.204216 
L 182.708652 111.622486 
L 182.833162 120.453196 
L 182.957671 119.523457 
L 183.019926 123.366256 
L 183.082181 121.522579 
L 183.20669 117.947091 
L 183.268945 118.963141 
L 183.517964 124.236142 
L 183.642474 122.80406 
L 183.704729 122.994411 
L 184.016003 128.354689 
L 184.078257 127.862113 
L 184.140512 126.364342 
L 184.265022 129.603774 
L 184.327276 125.629959 
L 184.389531 126.178254 
L 184.451786 126.508403 
L 184.514041 127.659798 
L 184.576296 122.940255 
L 184.63855 124.914427 
L 184.700805 128.143798 
L 184.76306 127.362014 
L 184.825315 127.523868 
L 185.074334 121.741768 
L 185.136589 124.057619 
L 185.198843 123.896276 
L 185.447863 131.555945 
L 185.572372 126.402617 
L 185.759136 131.70167 
L 185.883646 130.132321 
L 186.008156 134.706496 
L 186.07041 134.649637 
L 186.132665 134.497249 
L 186.257175 131.877494 
L 186.381684 134.076606 
L 186.443939 132.918645 
L 186.506194 133.244773 
L 186.630703 138.44136 
L 186.692958 136.606444 
L 186.755213 137.043374 
L 186.817468 136.083833 
L 186.879723 137.819686 
L 187.004232 133.163288 
L 187.066487 133.508256 
L 187.190996 129.396857 
L 187.253251 131.629874 
L 187.377761 133.113965 
L 187.440016 132.986113 
L 187.564525 124.963243 
L 187.62678 125.884017 
L 187.75129 131.19739 
L 187.875799 124.178795 
L 187.938054 125.129237 
L 188.062563 129.344978 
L 188.124818 128.803968 
L 188.187073 124.168084 
L 188.249328 124.814936 
L 188.373837 129.617124 
L 188.436092 127.798576 
L 188.498347 128.002158 
L 188.560602 130.192175 
L 188.622857 129.100465 
L 188.747366 126.321231 
L 188.871876 118.431359 
L 188.93413 120.205195 
L 188.996385 121.4588 
L 189.05864 120.458162 
L 189.120895 122.003265 
L 189.307659 115.252407 
L 189.494423 124.577456 
L 189.556678 122.007428 
L 189.867952 111.729405 
L 189.930207 112.305636 
L 189.992462 118.040945 
L 190.054717 118.024896 
L 190.116971 117.272126 
L 190.179226 119.227111 
L 190.241481 118.742618 
L 190.303736 117.978766 
L 190.4905 123.470839 
L 190.61501 119.823485 
L 190.801774 126.886355 
L 190.864029 126.369389 
L 190.926283 125.385941 
L 190.988538 118.497992 
L 191.050793 118.717467 
L 191.113048 118.497019 
L 191.175303 118.782683 
L 191.362067 126.076859 
L 191.424322 125.622752 
L 191.611086 114.890771 
L 191.673341 115.834012 
L 191.735596 115.438681 
L 191.984615 123.842102 
L 192.04687 119.28186 
L 192.109124 122.774285 
L 192.171379 127.275697 
L 192.233634 123.869545 
L 192.358144 117.966592 
L 192.544908 122.53071 
L 192.793927 115.994093 
L 192.856182 115.546625 
L 193.105201 128.358074 
L 193.167456 127.515285 
L 193.416475 121.080233 
L 193.603239 117.517719 
L 193.665494 115.278574 
L 193.727749 115.725306 
L 193.914513 121.811806 
L 194.163532 116.768351 
L 194.288042 118.427644 
L 194.350297 117.411732 
L 194.412551 118.648688 
L 194.474806 118.085556 
L 194.537061 113.624909 
L 194.599316 116.567332 
L 194.661571 116.342719 
L 195.159609 129.775667 
L 195.221864 128.322864 
L 195.408628 120.716615 
L 195.906666 126.900424 
L 195.968921 126.048513 
L 196.715978 86.027904 
L 196.778233 86.244918 
L 196.902743 88.445732 
L 196.964997 87.855827 
L 197.027252 85.79449 
L 197.089507 89.318017 
L 197.151762 89.188108 
L 197.214017 89.819797 
L 197.400781 94.85462 
L 197.463036 94.769345 
L 197.587545 91.732374 
L 197.6498 91.812785 
L 197.712055 92.788814 
L 198.023329 108.97717 
L 198.334603 112.378453 
L 198.521367 108.21368 
L 198.708131 113.177686 
L 198.770386 113.144518 
L 198.957151 109.08634 
L 199.143915 116.423548 
L 199.20617 115.881253 
L 199.392934 107.87088 
L 199.455189 110.896832 
L 199.517444 109.937843 
L 199.579698 106.055174 
L 199.641953 106.197795 
L 199.766463 104.62211 
L 199.953227 117.276312 
L 200.015482 117.069737 
L 200.077737 118.187401 
L 200.389011 111.196995 
L 200.51352 116.124287 
L 200.700284 110.293568 
L 200.824794 117.738349 
L 200.887049 117.655264 
L 200.949304 116.738839 
L 201.011558 116.867689 
L 201.322832 127.11557 
L 201.509597 118.132122 
L 201.634106 125.955193 
L 201.696361 125.384964 
L 201.820871 120.464213 
L 201.883125 120.641485 
L 202.007635 120.155836 
L 202.194399 123.508269 
L 202.318909 123.139227 
L 202.381164 121.562084 
L 202.505673 127.102366 
L 202.630183 123.068318 
L 202.754692 125.279425 
L 202.941457 117.872326 
L 203.003711 120.103716 
L 203.065966 121.124109 
L 203.128221 120.248365 
L 203.190476 117.329172 
L 203.252731 118.772835 
L 203.50175 129.16739 
L 203.688514 123.439283 
L 203.750769 123.641904 
L 203.813024 123.040115 
L 203.875278 119.129425 
L 203.937533 119.250959 
L 203.999788 118.849474 
L 204.186552 126.623128 
L 204.311062 125.095373 
L 204.497826 132.830533 
L 204.684591 126.296644 
L 204.8091 127.445119 
L 204.995865 119.401623 
L 205.058119 118.247266 
L 205.120374 119.91266 
L 205.182629 119.09682 
L 205.369393 120.687046 
L 205.431648 120.712391 
L 206.116451 101.022721 
L 206.178705 101.457267 
L 206.24096 105.061834 
L 206.303215 103.837038 
L 206.489979 99.293426 
L 206.801253 106.62146 
L 206.925763 106.553908 
L 207.050272 115.638282 
L 207.112527 114.821674 
L 207.237037 111.317656 
L 207.299292 112.252231 
L 207.361546 114.362443 
L 207.548311 106.434993 
L 207.735075 120.918916 
L 207.79733 117.991323 
L 207.859585 118.408351 
L 207.984094 117.838765 
L 208.108604 123.163802 
L 208.295368 113.6241 
L 208.482132 117.816837 
L 208.606642 110.046239 
L 208.793406 114.301877 
L 209.10468 122.652563 
L 209.291445 118.443768 
L 209.540464 119.612702 
L 209.602719 118.739253 
L 209.727228 122.956945 
L 209.851738 122.474683 
L 209.913992 121.126603 
L 209.976247 123.251902 
L 210.038502 123.044319 
L 210.100757 122.971722 
L 210.225266 125.499684 
L 210.474286 117.081851 
L 210.53654 112.873035 
L 210.598795 115.704648 
L 210.66105 115.221642 
L 210.723305 115.823711 
L 210.847814 112.540008 
L 210.910069 113.227715 
L 210.972324 112.979482 
L 211.034579 113.192268 
L 211.096833 114.225565 
L 211.159088 111.426291 
L 211.221343 113.376807 
L 211.408107 112.033059 
L 211.470362 112.899063 
L 211.532617 112.184398 
L 211.719381 108.140524 
L 211.781636 105.724883 
L 212.09291 114.246059 
L 212.155165 114.237063 
L 212.217419 114.91288 
L 212.279674 114.650822 
L 212.404184 110.853694 
L 212.528693 111.971349 
L 212.653203 110.018937 
L 212.839967 113.503058 
L 212.964477 118.749383 
L 213.026732 116.235171 
L 213.088986 115.977832 
L 213.213496 120.15763 
L 213.275751 120.206488 
L 213.40026 113.759464 
L 213.462515 114.462274 
L 213.52477 114.382609 
L 213.587025 114.52858 
L 213.711534 112.26504 
L 213.773789 112.922189 
L 213.836044 111.752297 
L 214.022808 117.250791 
L 214.147318 114.807886 
L 214.209573 115.71916 
L 214.271827 113.901997 
L 214.334082 114.571957 
L 214.458592 116.068335 
L 214.520846 114.799489 
L 214.583101 118.072387 
L 214.645356 117.402672 
L 214.769866 114.376514 
L 214.83212 112.368371 
L 214.894375 113.264599 
L 214.95663 121.392834 
L 215.018885 119.383549 
L 215.205649 123.455872 
L 215.330159 119.591375 
L 215.392413 120.371117 
L 215.516923 116.430442 
L 215.579178 111.408495 
L 215.641433 112.478791 
L 215.828197 120.613763 
L 215.890452 120.206185 
L 215.952706 118.758011 
L 216.014961 119.275022 
L 216.077216 119.584821 
L 216.26398 111.842159 
L 216.326235 112.355517 
L 216.450745 118.296444 
L 216.575254 112.349916 
L 216.637509 113.001757 
L 216.762019 110.501451 
L 216.948783 113.799495 
L 217.011038 112.184892 
L 217.135547 114.09552 
L 217.197802 112.983295 
L 217.260057 113.652353 
L 217.322312 113.489078 
L 217.509076 104.99931 
L 217.571331 105.631411 
L 217.758095 108.704936 
L 217.94486 113.611389 
L 218.069369 110.917997 
L 218.380643 119.262782 
L 218.442898 120.81325 
L 218.505153 119.81717 
L 218.629662 120.648174 
L 218.878681 115.729131 
L 219.065446 122.632391 
L 219.37672 116.672129 
L 219.438974 117.147406 
L 219.563484 110.677455 
L 219.625739 111.582894 
L 219.812503 100.681123 
L 219.937013 106.458353 
L 219.999267 104.663358 
L 220.061522 105.789724 
L 220.248287 111.453289 
L 220.310541 110.197937 
L 220.372796 111.273487 
L 220.435051 114.570975 
L 220.621815 106.189497 
L 220.68407 107.12051 
L 220.80858 113.558976 
L 220.870834 113.398116 
L 221.057599 109.772997 
L 221.244363 114.553947 
L 221.306618 116.149072 
L 221.680147 105.055353 
L 221.804656 106.838679 
L 221.929166 109.628674 
L 221.99142 108.73243 
L 222.053675 108.613455 
L 222.24044 110.656299 
L 222.302694 108.039554 
L 222.364949 108.447473 
L 222.613968 117.251962 
L 222.676223 115.772897 
L 222.862987 110.471694 
L 223.049752 118.285533 
L 223.174261 114.712727 
L 223.236516 115.968343 
L 223.298771 115.502752 
L 223.42328 111.323533 
L 223.485535 112.144618 
L 223.54779 111.678018 
L 223.734554 114.627328 
L 223.859064 110.352202 
L 223.921319 111.582871 
L 223.983574 114.693812 
L 224.045828 114.299559 
L 224.170338 112.600952 
L 224.232593 112.75991 
L 224.419357 118.939356 
L 224.543867 116.56351 
L 224.606121 117.312533 
L 224.668376 115.553917 
L 224.917395 121.476569 
L 224.97965 125.527175 
L 225.353179 111.091742 
L 225.415434 111.402066 
L 225.477688 112.595336 
L 225.664453 104.867819 
L 225.788962 111.165147 
L 225.851217 110.060718 
L 225.913472 109.252523 
L 225.975727 104.615673 
L 226.037981 107.605689 
L 226.100236 110.702917 
L 226.287001 105.85725 
L 226.41151 110.97282 
L 226.473765 110.732405 
L 226.598274 105.791485 
L 226.660529 106.361095 
L 226.847294 112.579805 
L 226.909548 112.559234 
L 227.096313 106.417254 
L 227.158567 107.275075 
L 227.220822 108.035162 
L 227.345332 101.285199 
L 227.407587 103.602405 
L 227.532096 107.579321 
L 227.656606 101.509075 
L 227.84337 111.334083 
L 228.030134 99.869997 
L 228.092389 103.70501 
L 228.216899 107.619182 
L 228.465918 99.226353 
L 228.528173 98.984038 
L 228.652682 102.126741 
L 228.777192 101.313772 
L 228.963956 105.482505 
L 229.212975 103.392697 
L 229.27523 107.011586 
L 229.337485 106.491317 
L 229.461994 104.454152 
L 229.586504 112.905847 
L 229.648759 110.279212 
L 229.711014 109.097224 
L 229.773268 105.643227 
L 229.835523 106.77733 
L 229.897778 105.575153 
L 230.084542 113.988671 
L 230.333561 107.076828 
L 230.395816 110.395704 
L 230.458071 109.270583 
L 230.644835 103.777921 
L 230.769345 111.555009 
L 230.893854 104.144129 
L 230.956109 103.635782 
L 231.391893 118.670583 
L 231.454148 119.363865 
L 231.640912 115.16633 
L 231.889931 121.030546 
L 232.014441 114.02001 
L 232.13895 120.97408 
L 232.201205 126.311837 
L 232.26346 126.259533 
L 232.387969 126.08226 
L 232.512479 128.075673 
L 232.636988 123.739786 
L 232.823753 105.976307 
L 232.886008 106.284389 
L 233.072772 99.229033 
L 233.197281 105.128929 
L 233.321791 111.2698 
L 233.384046 110.18078 
L 233.446301 110.811269 
L 233.508555 111.317891 
L 233.633065 107.311903 
L 234.006594 78.39844 
L 234.131103 82.679141 
L 234.255613 81.23052 
L 234.442377 89.924867 
L 234.504632 91.05191 
L 234.629141 95.113445 
L 234.878161 77.365523 
L 235.00267 77.530979 
L 235.064925 78.197816 
L 235.500708 96.033914 
L 235.625218 90.326443 
L 235.749728 94.464051 
L 235.874237 91.024318 
L 235.936492 92.1291 
L 235.998747 99.225553 
L 236.061002 97.910119 
L 236.185511 94.846604 
L 236.247766 95.22032 
L 236.310021 95.356837 
L 236.43453 101.866727 
L 236.496785 99.847759 
L 236.683549 107.577933 
L 236.745804 105.295087 
L 236.870314 102.63244 
L 237.119333 111.182035 
L 237.181588 109.91229 
L 237.243842 107.068006 
L 237.306097 107.94692 
L 237.430607 112.747971 
L 237.492862 111.917903 
L 237.617371 104.548735 
L 237.741881 113.359442 
L 237.804135 111.804707 
L 237.86639 114.59218 
L 238.364428 96.820134 
L 238.426683 101.044728 
L 238.488938 99.994462 
L 238.613448 98.366742 
L 238.862467 103.471812 
L 238.986976 98.566608 
L 239.173741 103.841901 
L 239.235995 96.540424 
L 239.29825 97.129711 
L 239.485015 103.57916 
L 239.858543 109.852956 
L 239.920798 112.924174 
L 240.107562 105.695821 
L 240.169817 107.772265 
L 240.232072 106.805286 
L 240.294327 106.966718 
L 240.356582 103.018815 
L 240.418836 104.490298 
L 240.543346 104.386357 
L 240.667855 101.194485 
L 240.792365 104.161308 
L 240.85462 107.407192 
L 240.916875 105.132513 
L 240.979129 106.521073 
L 241.103639 103.129815 
L 241.165894 103.694166 
L 241.290403 106.566577 
L 241.477168 102.156463 
L 241.663932 106.639284 
L 241.850696 100.100421 
L 241.912951 100.528194 
L 242.037461 103.881186 
L 242.16197 101.581603 
L 242.28648 108.132871 
L 242.597754 101.454189 
L 242.660009 102.518551 
L 242.909028 96.094629 
L 242.971282 96.773797 
L 243.033537 94.950368 
L 243.095792 98.647647 
L 243.158047 97.939406 
L 243.220302 98.636856 
L 243.469321 107.561884 
L 243.531576 102.30181 
L 243.59383 104.562875 
L 243.71834 106.986392 
L 243.842849 99.38628 
L 243.905104 99.920173 
L 243.967359 99.871543 
L 244.154123 105.115177 
L 244.278633 103.408275 
L 244.527652 113.807199 
L 244.589907 114.587877 
L 244.901181 105.730912 
L 244.963436 101.66207 
L 245.02569 104.002977 
L 245.087945 104.13444 
L 245.336964 99.139065 
L 245.523729 111.432565 
L 245.585983 109.028556 
L 245.648238 108.041611 
L 245.710493 108.651153 
L 245.772748 110.884683 
L 245.835003 110.668701 
L 246.021767 106.036544 
L 246.146276 110.202981 
L 246.208531 109.034297 
L 246.519805 120.355053 
L 246.644315 116.906722 
L 246.831079 121.083242 
L 246.893334 120.818202 
L 247.080098 115.247948 
L 247.142353 115.40326 
L 247.266863 113.274101 
L 247.329117 113.674686 
L 247.391372 114.995111 
L 247.453627 114.446197 
L 247.702646 107.864479 
L 247.827156 117.004266 
L 247.88941 113.566357 
L 248.076175 112.422578 
L 248.138429 112.418314 
L 248.200684 116.172044 
L 248.262939 114.145425 
L 248.325194 114.854117 
L 248.449703 112.314939 
L 248.511958 114.403714 
L 248.574213 107.58962 
L 248.636468 111.927228 
L 248.698723 111.744803 
L 248.885487 114.104998 
L 249.009996 111.346346 
L 249.259016 115.885948 
L 249.57029 100.282002 
L 249.632544 100.87113 
L 249.694799 99.943469 
L 249.757054 97.254399 
L 249.819309 98.481365 
L 249.881563 99.78486 
L 250.130583 110.249028 
L 250.317347 101.454916 
L 250.379602 103.352094 
L 250.504111 101.592277 
L 250.75313 110.385436 
L 251.064404 102.724165 
L 251.251169 113.950996 
L 251.313423 113.761584 
L 251.562443 99.800486 
L 251.624697 100.687735 
L 251.686952 101.172952 
L 251.873717 105.913835 
L 252.122736 98.094631 
L 252.18499 98.34012 
L 252.247245 100.803651 
L 252.3095 96.063705 
L 252.371755 98.233934 
L 252.496264 96.645263 
L 252.558519 98.064229 
L 252.620774 102.190812 
L 252.683029 101.69749 
L 252.807538 93.859412 
L 253.118812 102.543395 
L 253.181067 101.493232 
L 253.305577 99.599828 
L 253.367831 100.144493 
L 253.554596 111.297109 
L 253.679105 110.321898 
L 253.86587 106.514424 
L 253.928124 105.421786 
L 254.177143 108.498816 
L 254.239398 107.182989 
L 254.301653 108.996939 
L 254.363908 107.773228 
L 254.488417 103.488185 
L 254.612927 109.370417 
L 254.675182 108.209406 
L 254.737437 108.095614 
L 254.861946 104.26299 
L 254.924201 107.522631 
L 255.110965 100.109983 
L 255.17322 100.225461 
L 255.29773 104.214735 
L 255.484494 102.279252 
L 255.671258 106.363145 
L 255.733513 104.762522 
L 255.858023 102.748347 
L 255.920277 109.325685 
L 255.982532 107.293809 
L 256.044787 107.45952 
L 256.107042 106.30592 
L 256.356061 113.160237 
L 256.418316 112.92125 
L 256.60508 106.499723 
L 256.667335 107.043599 
L 256.72959 110.186115 
L 256.791844 107.378905 
L 256.854099 108.050625 
L 257.227628 101.72592 
L 257.352137 107.13699 
L 257.414392 107.832932 
L 257.538902 101.418695 
L 257.601157 101.104796 
L 257.663411 101.365778 
L 257.850176 93.739306 
L 257.974685 91.888495 
L 258.223704 100.370747 
L 258.348214 96.402562 
L 258.410469 96.79161 
L 258.534978 100.393127 
L 258.659488 104.583537 
L 258.846252 101.559282 
L 258.908507 104.457224 
L 258.970762 103.01825 
L 259.033017 104.160685 
L 259.095271 107.556844 
L 259.157526 106.350019 
L 259.219781 106.325325 
L 259.4688 113.182778 
L 259.531055 114.239673 
L 259.904584 102.831184 
L 259.966838 102.868665 
L 260.153603 107.32648 
L 260.215857 106.387232 
L 260.340367 113.150591 
L 260.464877 104.49914 
L 260.527131 105.194958 
L 260.589386 104.783022 
L 260.713896 108.231234 
L 260.90066 102.231509 
L 260.962915 102.839826 
L 261.149679 108.660741 
L 261.274189 107.619251 
L 261.336444 107.554347 
L 261.523208 113.799367 
L 261.709972 102.72766 
L 261.772227 102.574725 
L 261.896737 96.931115 
L 262.145756 105.872869 
L 262.208011 104.300429 
L 262.270265 106.940511 
L 262.33252 105.94906 
L 262.643794 93.245818 
L 262.706049 96.130832 
L 262.768304 95.613531 
L 262.830558 97.582897 
L 262.892813 97.081269 
L 262.955068 95.105146 
L 263.017323 96.086431 
L 263.079578 97.238763 
L 263.328597 108.883073 
L 263.390851 110.392789 
L 263.453106 109.21764 
L 263.577616 101.365694 
L 263.639871 103.527248 
L 263.76438 101.664714 
L 263.826635 97.583085 
L 263.88889 97.673756 
L 263.951144 98.23185 
L 264.137909 110.321635 
L 264.200164 109.970057 
L 264.324673 103.701497 
L 264.386928 103.241282 
L 264.449183 103.39274 
L 264.511438 105.005198 
L 264.822711 94.521515 
L 264.884966 88.688157 
L 264.947221 90.336586 
L 265.009476 93.585911 
L 265.071731 92.87366 
L 265.133985 94.043604 
L 265.32075 90.316795 
L 265.445259 87.761934 
L 265.507514 89.593927 
L 265.632024 78.759879 
L 265.694278 80.361242 
L 265.756533 78.232206 
L 265.818788 81.143932 
L 266.005552 93.058199 
L 266.067807 90.538177 
L 266.130062 90.73384 
L 266.192317 90.901325 
L 266.254571 87.788401 
L 266.316826 88.442494 
L 266.441336 94.834357 
L 266.6281 83.675508 
L 266.690355 84.893885 
L 266.75261 88.864792 
L 266.814865 88.764681 
L 266.877119 89.172959 
L 267.001629 95.257207 
L 267.063884 93.218162 
L 267.250648 99.425675 
L 267.312903 100.541619 
L 267.375158 99.356688 
L 267.561922 88.549442 
L 267.624177 88.232162 
L 267.686432 85.237403 
L 267.810941 94.956899 
L 267.873196 94.368022 
L 267.935451 94.395972 
L 267.997705 92.678109 
L 268.18447 98.60054 
L 268.495744 91.497119 
L 268.620253 93.603344 
L 268.807018 85.421722 
L 268.869272 83.30395 
L 268.931527 84.659386 
L 268.993782 83.5801 
L 269.242801 100.370171 
L 269.305056 97.77688 
L 269.49182 92.48302 
L 269.554075 93.74035 
L 269.61633 89.568048 
L 269.803094 99.893631 
L 269.865349 99.2723 
L 270.052113 94.269739 
L 270.301132 87.699282 
L 270.363387 88.851928 
L 270.550152 103.502733 
L 270.92368 88.488389 
L 270.985935 89.038479 
L 271.04819 88.757951 
L 271.110445 87.32908 
L 271.172699 91.866401 
L 271.234954 89.824846 
L 271.297209 86.477745 
L 271.359464 87.780075 
L 271.483973 95.343351 
L 271.546228 94.761384 
L 271.608483 94.436931 
L 271.795247 103.108782 
L 271.919757 101.816177 
L 272.044266 93.801192 
L 272.231031 97.956026 
L 272.35554 93.470299 
L 272.604559 104.483777 
L 272.666814 104.361542 
L 272.729069 103.466145 
L 272.915833 108.436187 
L 273.040343 102.086584 
L 273.102598 103.589779 
L 273.351617 110.778376 
L 273.413872 110.356163 
L 273.538381 115.224019 
L 273.7874 105.036557 
L 273.974165 112.236897 
L 274.160929 105.309935 
L 274.223184 105.35734 
L 274.285439 107.576364 
L 274.472203 98.943309 
L 274.658967 107.961744 
L 274.721222 106.265559 
L 274.907986 97.784736 
L 274.970241 105.023768 
L 275.032496 102.528326 
L 275.094751 102.18388 
L 275.157006 103.131466 
L 275.34377 110.045716 
L 275.530534 104.995684 
L 275.592789 103.458521 
L 275.655044 104.577159 
L 275.779553 109.720121 
L 275.841808 105.687967 
L 275.904063 106.874709 
L 275.966318 108.360689 
L 276.028572 107.468463 
L 276.526611 86.280411 
L 276.837885 102.775586 
L 276.962394 101.611794 
L 277.149159 102.118244 
L 277.211413 101.533596 
L 277.335923 96.602936 
L 277.398178 97.331997 
L 277.771706 88.57409 
L 278.020726 93.946983 
L 278.269745 78.557048 
L 278.394254 67.890325 
L 278.456509 68.189803 
L 278.705528 77.150297 
L 278.767783 76.334853 
L 278.830038 76.629847 
L 278.892293 76.91988 
L 278.954547 75.043082 
L 279.079057 86.301398 
L 279.51484 99.690576 
L 279.63935 96.244465 
L 279.701605 96.576045 
L 279.763859 102.141117 
L 279.826114 100.632502 
L 279.888369 99.308457 
L 279.950624 100.565737 
L 280.012879 100.126812 
L 280.199643 93.542843 
L 280.324153 91.96849 
L 280.448662 89.34388 
L 280.510917 91.822604 
L 280.573172 86.300302 
L 280.635426 87.257503 
L 280.697681 87.415119 
L 280.884446 82.051746 
L 281.19572 87.162488 
L 281.320229 85.04469 
L 281.382484 86.020668 
L 281.506993 83.252962 
L 281.693758 75.234419 
L 281.756013 76.989778 
L 281.942777 85.677733 
L 282.067286 88.250178 
L 282.129541 85.122851 
L 282.316306 91.056541 
L 282.440815 94.230685 
L 282.62758 88.049584 
L 282.876599 91.784118 
L 282.938853 90.256481 
L 283.250127 99.419565 
L 283.374637 92.067795 
L 283.499147 93.506971 
L 283.685911 88.653696 
L 283.748166 82.678009 
L 283.81042 85.036188 
L 283.997185 90.956271 
L 284.183949 86.192577 
L 284.370713 96.667527 
L 284.557478 88.85926 
L 284.681987 92.696647 
L 284.744242 98.003595 
L 284.806497 97.052005 
L 285.117771 102.242672 
L 285.24228 100.501972 
L 285.304535 101.360997 
L 285.429045 96.951355 
L 285.4913 100.906341 
L 285.553554 98.104317 
L 285.615809 98.344876 
L 285.678064 97.291537 
L 285.802573 100.194203 
L 285.864828 96.318194 
L 286.051593 100.387384 
L 286.113847 101.907764 
L 286.238357 96.190774 
L 286.300612 91.612068 
L 286.425121 98.046497 
L 286.549631 93.742693 
L 286.79865 97.946276 
L 286.860905 97.181302 
L 286.92316 101.876751 
L 286.985414 98.722764 
L 287.109924 94.110387 
L 287.172179 93.992022 
L 287.296688 94.877481 
L 287.483453 85.33512 
L 287.545707 86.061034 
L 287.856981 94.325315 
L 287.919236 90.183145 
L 288.043746 96.144799 
L 288.106 95.548367 
L 288.292765 90.253841 
L 288.35502 91.944121 
L 288.417274 98.129991 
L 288.479529 94.838082 
L 288.666294 96.948127 
L 288.915313 106.098421 
L 288.977567 104.663264 
L 289.102077 106.781907 
L 289.164332 106.241055 
L 289.288841 101.040113 
L 289.413351 102.90461 
L 289.475606 101.330411 
L 289.600115 90.599046 
L 289.66237 91.617357 
L 289.724625 91.367888 
L 289.911389 104.260038 
L 289.973644 101.984681 
L 290.035899 102.767017 
L 290.098154 105.942393 
L 290.160408 104.538049 
L 290.284918 102.181513 
L 290.471682 95.511166 
L 290.596192 92.817087 
L 290.969721 82.224304 
L 291.280994 101.103841 
L 291.343249 98.155912 
L 291.592268 80.293608 
L 291.716778 81.140582 
L 291.779033 90.19714 
L 291.841287 88.622317 
L 291.903542 87.620868 
L 291.965797 87.959274 
L 292.090307 89.233283 
L 292.214816 95.119483 
L 292.277071 94.663859 
L 292.52609 103.360855 
L 292.588345 103.64601 
L 292.837364 94.063415 
L 292.899619 95.742209 
L 293.024128 106.233218 
L 293.086383 105.95151 
L 293.148638 105.064459 
L 293.335402 95.976952 
L 293.459912 102.887668 
L 293.584421 101.522558 
L 293.833441 104.755989 
L 293.895695 103.43697 
L 294.08246 109.601742 
L 294.144714 107.006868 
L 294.206969 107.069999 
L 294.269224 106.702968 
L 294.518243 98.859952 
L 294.705008 106.455031 
L 294.767262 105.275548 
L 294.891772 102.69333 
L 294.954027 97.254488 
L 295.016281 100.942345 
L 295.203046 104.404779 
L 295.576574 90.027284 
L 295.638829 90.309241 
L 295.887848 98.183317 
L 296.199122 89.888372 
L 296.261377 90.828088 
L 296.510396 96.634275 
L 296.572651 91.558416 
L 296.697161 100.268054 
L 296.759415 99.780375 
L 296.82167 99.856476 
L 296.94618 102.256059 
L 297.008435 101.089913 
L 297.070689 102.323968 
L 297.319708 89.433646 
L 297.381963 92.282346 
L 297.506473 94.468884 
L 297.630982 92.992955 
L 297.693237 93.703656 
L 298.004511 83.173021 
L 298.066766 83.492506 
L 298.129021 86.736955 
L 298.315785 75.671212 
L 298.37804 75.994804 
L 298.502549 78.423222 
L 298.627059 74.605385 
L 298.751568 76.658929 
L 298.876078 72.408135 
L 299.000588 66.556287 
L 299.187352 83.513933 
L 299.249607 81.566574 
L 299.311862 82.067949 
L 299.498626 83.940159 
L 299.560881 83.166309 
L 299.747645 78.914852 
L 300.121174 96.180365 
L 300.183428 96.545792 
L 300.432448 110.048023 
L 300.494702 108.388225 
L 300.556957 108.536331 
L 300.743722 98.778334 
L 300.805976 101.146061 
L 300.868231 100.629761 
L 301.179505 103.810098 
L 301.24176 103.362681 
L 301.304015 102.666419 
L 301.553034 92.432971 
L 301.739798 96.104859 
L 301.926562 82.934326 
L 302.051072 90.068531 
L 302.113327 88.882634 
L 302.237836 95.890422 
L 302.300091 93.778237 
L 302.486855 87.067387 
L 302.54911 83.799827 
L 302.611365 84.112069 
L 302.67362 83.839643 
L 302.860384 91.160843 
L 302.922639 91.982792 
L 303.171658 86.805175 
L 303.296168 88.093014 
L 303.420677 97.495396 
L 303.482932 97.337421 
L 303.545187 94.311629 
L 303.607442 95.709537 
L 303.669696 96.298989 
L 303.731951 95.907403 
L 303.918715 86.867548 
L 303.98097 86.959286 
L 304.043225 88.124339 
L 304.229989 100.134408 
L 304.479009 88.621739 
L 304.665773 95.430542 
L 304.790282 94.899803 
L 304.852537 95.011376 
L 304.977047 85.497234 
L 305.039302 86.411946 
L 305.226066 81.627569 
L 305.288321 84.134532 
L 305.475085 96.080733 
L 305.599595 97.593534 
L 305.724104 90.676391 
L 305.910869 96.312597 
L 306.035378 99.769192 
L 306.097633 98.879648 
L 306.222142 96.804607 
L 306.284397 97.041084 
L 306.346652 94.793401 
L 306.408907 95.895296 
L 306.657926 99.485675 
L 307.342729 70.610591 
L 307.591748 79.774038 
L 307.654002 79.682266 
L 307.778512 78.197156 
L 307.840767 78.655868 
L 307.903022 78.646785 
L 308.089786 74.358455 
L 308.525569 97.837839 
L 308.650079 101.182217 
L 308.712334 98.850172 
L 308.774589 99.999974 
L 308.899098 103.146353 
L 309.210372 85.52622 
L 309.459391 78.546809 
L 309.646156 76.200115 
L 309.70841 70.683133 
L 309.770665 71.076852 
L 309.83292 74.088909 
L 309.895175 72.818039 
L 310.019684 71.749784 
L 310.455468 63.771481 
L 310.579977 66.738305 
L 310.766742 76.104643 
L 311.26478 90.689972 
L 311.327035 89.977161 
L 311.638309 93.123778 
L 311.700563 91.78417 
L 311.949583 98.806453 
L 312.074092 100.536897 
L 312.447621 90.49439 
L 312.509876 87.630125 
L 312.57213 88.823192 
L 312.69664 93.083035 
L 312.758895 93.056973 
L 313.007914 72.986068 
L 313.070169 76.667764 
L 313.256933 81.906123 
L 313.319188 82.315053 
L 313.443697 85.944995 
L 313.568207 81.123151 
L 313.630462 82.587489 
L 313.692716 82.357532 
L 313.754971 80.841945 
L 313.817226 80.920339 
L 314.066245 89.785455 
L 314.1285 88.627634 
L 314.190755 82.856128 
L 314.25301 83.531978 
L 314.377519 91.669431 
L 314.439774 91.370591 
L 314.502029 93.198792 
L 314.564283 91.850026 
L 314.688793 86.391418 
L 314.751048 87.297389 
L 314.813303 86.736794 
L 315.000067 79.659867 
L 315.062322 85.02408 
L 315.124577 84.293804 
L 315.373596 79.145844 
L 315.622615 82.896301 
L 315.68487 85.553482 
L 315.747124 84.391408 
L 315.933889 78.45511 
L 315.996143 79.452666 
L 316.058398 77.667623 
L 316.245163 82.091101 
L 316.307417 82.244866 
L 316.369672 84.125318 
L 316.618691 75.130371 
L 316.680946 76.100205 
L 316.743201 77.114237 
L 316.929965 86.14423 
L 317.054475 78.380494 
L 317.11673 79.047223 
L 317.178984 80.808695 
L 317.241239 78.720658 
L 317.365749 90.875142 
L 317.428003 86.654596 
L 317.490258 88.082362 
L 317.552513 87.891059 
L 317.677023 85.16959 
L 317.863787 75.90643 
L 317.926042 76.653332 
L 318.175061 90.810617 
L 318.237316 88.553204 
L 318.361825 80.330137 
L 318.42408 80.463523 
L 318.610844 89.149008 
L 318.797609 81.150593 
L 318.859864 73.639661 
L 318.922118 77.83678 
L 318.984373 83.182679 
L 319.046628 81.621018 
L 319.108883 81.696946 
L 319.420157 93.825305 
L 319.669176 83.876162 
L 319.73143 82.726945 
L 319.918195 90.042267 
L 319.98045 89.061124 
L 320.104959 84.848509 
L 320.291724 90.876724 
L 320.353978 91.524191 
L 320.416233 95.313703 
L 320.602997 84.785179 
L 320.665252 85.072056 
L 320.852017 90.162051 
L 320.976526 80.56499 
L 321.038781 80.998995 
L 321.225545 89.078697 
L 321.2878 88.613502 
L 321.350055 87.822155 
L 321.41231 85.396526 
L 321.474564 86.361786 
L 321.536819 87.850506 
L 321.723584 80.859759 
L 321.910348 89.204173 
L 322.097112 85.111121 
L 322.159367 85.925213 
L 322.221622 92.857992 
L 322.283877 90.153066 
L 322.408386 92.087517 
L 322.470641 91.739483 
L 322.595151 100.994194 
L 322.781915 94.878613 
L 322.906424 97.715728 
L 322.968679 99.860674 
L 323.030934 98.928962 
L 323.155444 95.90119 
L 323.217698 96.346163 
L 323.279953 98.945609 
L 323.342208 97.404236 
L 323.591227 92.169565 
L 323.715737 103.03975 
L 323.840246 99.77176 
L 323.902501 99.569556 
L 323.964756 98.156582 
L 324.027011 100.898393 
L 324.213775 90.857629 
L 324.400539 87.30183 
L 324.587304 91.160153 
L 324.711813 99.390444 
L 324.836323 96.844304 
L 324.898578 98.406315 
L 324.960832 97.769553 
L 325.023087 97.410429 
L 325.085342 97.739413 
L 325.147597 99.077641 
L 325.334361 88.54062 
L 325.521125 91.167512 
L 325.70789 88.866672 
L 325.894654 99.871157 
L 325.956909 98.849978 
L 326.019164 94.143795 
L 326.081418 96.857554 
L 326.143673 97.188912 
L 326.205928 93.15336 
L 326.268183 94.210367 
L 326.454947 86.241612 
L 326.517202 89.368695 
L 326.579457 90.216255 
L 326.703966 87.98801 
L 326.828476 93.069513 
L 326.890731 91.681005 
L 326.952985 89.933669 
L 327.01524 90.1183 
L 327.077495 90.135814 
L 327.13975 88.581717 
L 327.202004 88.734541 
L 327.264259 89.764567 
L 327.326514 83.326386 
L 327.388769 85.331986 
L 327.575533 87.636636 
L 327.700043 81.670032 
L 327.886807 86.732409 
L 327.949062 87.045679 
L 328.011317 86.972758 
L 328.135826 83.446907 
L 328.198081 85.021568 
L 328.260336 83.767932 
L 328.322591 78.802503 
L 328.384845 79.411999 
L 328.696119 87.44022 
L 328.758374 86.997345 
L 328.820629 88.641633 
L 329.069648 82.709262 
L 329.131903 81.617084 
L 329.256412 87.257031 
L 329.318667 81.907 
L 329.380922 85.175646 
L 329.629941 77.505506 
L 329.692196 77.287119 
L 329.754451 75.368543 
L 329.816705 76.342582 
L 329.941215 84.312782 
L 330.00347 84.586025 
L 330.065725 80.452935 
L 330.127979 82.097913 
L 330.190234 82.531416 
L 330.314744 86.143452 
L 330.501508 80.059792 
L 330.626018 82.576532 
L 330.688272 87.184599 
L 330.812782 76.949087 
L 330.875037 78.825231 
L 330.937292 76.081125 
L 331.373075 100.924909 
L 331.808858 75.542329 
L 331.871113 74.834096 
L 331.933368 75.207325 
L 331.995623 76.936803 
L 332.057878 74.620065 
L 332.120132 74.941176 
L 332.306897 83.470933 
L 332.618171 76.037495 
L 332.804935 65.089241 
L 332.86719 65.209142 
L 332.991699 63.172412 
L 333.053954 69.836755 
L 333.116209 69.443249 
L 333.240718 68.203479 
L 333.489738 76.661044 
L 333.676502 71.984014 
L 333.801012 67.148744 
L 333.863266 67.4042 
L 333.925521 68.175636 
L 333.987776 64.726722 
L 334.050031 65.154174 
L 334.17454 69.488945 
L 334.29905 65.123564 
L 334.548069 73.049147 
L 334.610324 70.006968 
L 334.672579 74.005279 
L 334.734833 72.696401 
L 334.859343 74.946135 
L 334.983852 78.630469 
L 335.108362 75.560923 
L 335.232872 81.916354 
L 335.295126 81.571525 
L 335.357381 78.918416 
L 335.419636 79.552495 
L 335.481891 79.46539 
L 335.544145 81.152222 
L 335.6064 80.18554 
L 335.73091 76.167275 
L 335.917674 85.67777 
L 336.166693 73.709061 
L 336.291203 77.407833 
L 336.353458 76.339466 
L 336.477967 68.68847 
L 336.726986 78.084184 
L 336.913751 71.504959 
L 336.976006 72.339217 
L 337.411789 94.717482 
L 337.474044 93.778858 
L 337.536299 94.36132 
L 337.723063 93.58872 
L 337.785318 89.413672 
L 337.972082 97.843081 
L 338.034337 97.840474 
L 338.096592 92.059268 
L 338.158846 95.154801 
L 338.345611 100.595234 
L 338.407866 101.811437 
L 338.532375 100.316764 
L 338.59463 101.13854 
L 338.781394 92.787643 
L 338.843649 91.455615 
L 338.905904 86.909083 
L 338.968159 87.144843 
L 339.030413 86.42289 
L 339.154923 89.921893 
L 339.217178 92.343651 
L 339.279432 91.660991 
L 339.341687 90.488126 
L 339.403942 83.540119 
L 339.466197 84.897535 
L 339.652961 92.688467 
L 339.715216 92.107509 
L 339.777471 85.431314 
L 339.839726 89.127278 
L 339.964235 87.884718 
L 340.02649 94.219883 
L 340.088745 92.228911 
L 340.213254 89.564162 
L 340.462273 95.488737 
L 340.649038 89.662515 
L 340.773547 88.558359 
L 340.960312 101.62299 
L 341.147076 88.863117 
L 341.209331 88.928155 
L 341.520605 79.968582 
L 341.582859 73.873768 
L 341.645114 78.96811 
L 341.707369 78.127129 
L 341.831879 74.602301 
L 342.018643 61.299154 
L 342.080898 67.050096 
L 342.143153 64.896346 
L 342.267662 68.462637 
L 342.516681 55.906302 
L 342.703446 62.793163 
L 342.7657 61.737857 
L 342.827955 61.862424 
L 342.89021 67.5478 
L 342.952465 66.683537 
L 343.01472 66.398641 
L 343.139229 68.979425 
L 343.201484 68.431993 
L 343.575013 91.245558 
L 343.637267 86.865047 
L 343.761777 91.207154 
L 343.824032 90.014174 
L 343.948541 95.739409 
L 344.010796 93.790438 
L 344.073051 94.717447 
L 344.259815 93.020083 
L 344.384325 96.435335 
L 344.44658 92.644739 
L 344.633344 100.542261 
L 344.695599 101.917813 
L 344.820108 92.564936 
L 345.006873 83.549235 
L 345.069127 84.513708 
L 345.131382 84.491899 
L 345.193637 83.994347 
L 345.442656 71.904889 
L 345.567166 72.497558 
L 345.816185 82.362766 
L 345.87844 81.096769 
L 345.940694 81.130572 
L 346.002949 83.407802 
L 346.127459 73.549814 
L 346.189713 76.283615 
L 346.376478 87.263871 
L 346.438733 86.707036 
L 346.500987 87.961594 
L 346.563242 83.757126 
L 346.625497 84.028911 
L 346.687752 85.03638 
L 347.06128 100.851245 
L 347.3103 90.141654 
L 347.372554 90.651875 
L 347.434809 94.18365 
L 347.497064 93.226783 
L 347.746083 84.232526 
L 347.808338 73.324906 
L 347.870593 74.805494 
L 347.932847 77.752195 
L 347.995102 77.538842 
L 348.057357 76.072002 
L 348.244121 81.086124 
L 348.555395 66.301214 
L 348.61765 68.861868 
L 348.679905 77.718619 
L 348.74216 77.536562 
L 348.804414 77.475186 
L 348.866669 79.78329 
L 348.928924 78.892081 
L 349.053433 72.097804 
L 349.115688 73.30255 
L 349.364707 90.569717 
L 349.426962 89.094696 
L 349.613727 82.927425 
L 349.675981 80.728769 
L 349.738236 74.412024 
L 349.800491 77.604569 
L 349.862746 79.41606 
L 349.925 76.396126 
L 350.111765 83.166306 
L 350.236274 73.222156 
L 350.298529 76.541277 
L 350.672058 90.667359 
L 350.858822 77.948408 
L 350.921077 79.310781 
L 350.983332 77.585208 
L 351.294606 91.020322 
L 351.419115 83.750838 
L 351.48137 84.055539 
L 351.60588 79.829705 
L 351.668134 80.573409 
L 351.730389 83.768887 
L 351.792644 83.222222 
L 352.041663 71.956711 
L 352.103918 74.488487 
L 352.166173 67.938288 
L 352.228427 68.963287 
L 352.290682 68.145645 
L 352.539701 79.846926 
L 352.601956 77.085358 
L 352.664211 78.715606 
L 352.726466 78.167521 
L 352.850975 80.2946 
L 353.099994 96.264965 
L 353.162249 96.63508 
L 353.286759 93.387382 
L 353.349014 93.859769 
L 353.535778 97.353636 
L 353.909307 81.310889 
L 353.971561 83.461173 
L 354.096071 70.97865 
L 354.158326 71.08863 
L 354.220581 68.857943 
L 354.407345 78.336096 
L 355.029893 59.950206 
L 355.092147 60.074285 
L 355.154402 61.426913 
L 355.403421 84.038553 
L 355.465676 85.837571 
L 355.527931 84.967901 
L 355.652441 87.212236 
L 355.714695 90.900145 
L 355.77695 89.113472 
L 356.025969 73.390034 
L 356.088224 71.617881 
L 356.150479 71.764597 
L 356.586262 78.320772 
L 356.648517 77.664602 
L 356.710772 79.023851 
L 356.773027 83.185887 
L 356.835281 80.774665 
L 356.959791 77.23892 
L 357.022046 74.101121 
L 357.084301 75.563316 
L 357.20881 71.500521 
L 357.271065 66.048554 
L 357.33332 69.697043 
L 357.395574 73.59926 
L 357.457829 73.425195 
L 357.520084 74.356655 
L 357.706848 84.197739 
L 357.769103 84.741606 
L 357.831358 82.185 
L 357.893613 83.163079 
L 358.080377 88.540717 
L 358.142632 88.525953 
L 358.204887 89.40625 
L 358.267141 87.04204 
L 358.329396 76.531292 
L 358.391651 77.024766 
L 358.578415 85.572608 
L 358.64067 84.948848 
L 358.827435 95.458612 
L 358.889689 94.565081 
L 359.138708 85.332467 
L 359.200963 86.587326 
L 359.263218 86.212301 
L 359.325473 85.452429 
L 359.387728 86.458149 
L 359.512237 80.130765 
L 359.574492 82.793297 
L 359.885766 104.843027 
L 359.948021 103.333517 
L 360.010275 101.494039 
L 360.07253 101.678901 
L 360.259295 103.405504 
L 360.508314 95.755354 
L 360.695078 96.745247 
L 360.757333 96.336456 
L 360.819588 92.7708 
L 360.881842 95.340436 
L 361.068607 105.075421 
L 361.379881 85.754411 
L 361.566645 68.395603 
L 361.6289 68.779546 
L 361.815664 62.85978 
L 361.877919 64.198654 
L 361.940174 61.930659 
L 362.002428 62.984439 
L 362.189193 71.892521 
L 362.251448 72.40825 
L 362.375957 75.996565 
L 362.500467 67.252299 
L 362.562722 60.86978 
L 362.624976 61.808929 
L 362.749486 63.903947 
L 362.93625 62.029826 
L 362.998505 61.777288 
L 363.185269 57.783009 
L 363.372034 69.829765 
L 363.434288 69.885484 
L 363.496543 72.157007 
L 363.558798 70.780397 
L 363.745562 58.657304 
L 363.807817 59.54449 
L 364.056836 45.454409 
L 364.119091 45.526125 
L 364.305855 52.946325 
L 364.36811 51.458269 
L 364.679384 61.649636 
L 364.741639 59.154723 
L 364.866148 45.628552 
L 364.928403 54.825215 
L 364.990658 52.046716 
L 365.550951 62.976753 
L 365.613206 69.047619 
L 365.675461 66.854399 
L 365.986735 59.793053 
L 366.048989 60.277012 
L 366.422518 82.971589 
L 366.609282 75.176439 
L 366.733792 72.025412 
L 366.920556 78.025712 
L 367.045066 85.375704 
L 367.107321 84.967074 
L 367.169575 80.07777 
L 367.23183 82.213695 
L 367.294085 81.846465 
L 367.35634 79.839948 
L 367.418595 80.936331 
L 367.605359 86.031419 
L 367.792123 75.805316 
L 367.978888 70.429224 
L 368.165652 63.714376 
L 368.352416 71.816527 
L 368.539181 67.710486 
L 368.601436 68.005115 
L 368.66369 68.874309 
L 368.7882 65.891611 
L 368.850455 66.826516 
L 368.974964 67.868063 
L 369.223983 76.61812 
L 369.348493 74.930656 
L 369.722022 90.918886 
L 369.784276 88.072458 
L 370.033296 80.145227 
L 370.157805 83.818017 
L 370.22006 83.459523 
L 370.282315 85.324936 
L 370.344569 84.942377 
L 370.406824 83.271455 
L 370.469079 84.014544 
L 370.593589 86.759147 
L 370.718098 81.884238 
L 370.780353 83.772904 
L 370.842608 83.101804 
L 370.904862 83.689916 
L 370.967117 83.326708 
L 371.091627 81.365099 
L 371.465156 70.939419 
L 371.52741 71.672915 
L 371.714175 68.810965 
L 371.776429 69.368956 
L 371.838684 69.22721 
L 371.963194 71.760278 
L 372.087703 67.865745 
L 372.336723 55.227818 
L 372.398977 58.945031 
L 372.461232 57.093652 
L 372.585742 54.641399 
L 372.647996 57.007442 
L 372.772506 54.346967 
L 372.95927 62.336442 
L 373.146035 55.50613 
L 373.208289 51.559458 
L 373.270544 54.133921 
L 373.332799 54.024972 
L 373.457309 52.757873 
L 373.581818 44.443636 
L 373.581818 44.443636 
" style="fill:none;stroke:#1f77b4;stroke-linecap:square;stroke-width:1.5;"/>
   </g>
   <g id="patch_3">
    <path d="M 54 252 
L 54 34.56 
" style="fill:none;stroke:#000000;stroke-linecap:square;stroke-linejoin:miter;stroke-width:0.8;"/>
   </g>
   <g id="patch_4">
    <path d="M 388.8 252 
L 388.8 34.56 
" style="fill:none;stroke:#000000;stroke-linecap:square;stroke-linejoin:miter;stroke-width:0.8;"/>
   </g>
   <g id="patch_5">
    <path d="M 54 252 
L 388.8 252 
" style="fill:none;stroke:#000000;stroke-linecap:square;stroke-linejoin:miter;stroke-width:0.8;"/>
   </g>
   <g id="patch_6">
    <path d="M 54 34.56 
L 388.8 34.56 
" style="fill:none;stroke:#000000;stroke-linecap:square;stroke-linejoin:miter;stroke-width:0.8;"/>
   </g>
   <g id="text_13">
    <!-- NN Speed Up $n_x=n_y=30$  -->
    <defs>
     <path d="M 9.8125 72.90625 
L 23.09375 72.90625 
L 55.421875 11.921875 
L 55.421875 72.90625 
L 64.984375 72.90625 
L 64.984375 0 
L 51.703125 0 
L 19.390625 60.984375 
L 19.390625 0 
L 9.8125 0 
z
" id="DejaVuSans-78"/>
     <path id="DejaVuSans-32"/>
     <path d="M 18.109375 8.203125 
L 18.109375 -20.796875 
L 9.078125 -20.796875 
L 9.078125 54.6875 
L 18.109375 54.6875 
L 18.109375 46.390625 
Q 20.953125 51.265625 25.265625 53.625 
Q 29.59375 56 35.59375 56 
Q 45.5625 56 51.78125 48.09375 
Q 58.015625 40.1875 58.015625 27.296875 
Q 58.015625 14.40625 51.78125 6.484375 
Q 45.5625 -1.421875 35.59375 -1.421875 
Q 29.59375 -1.421875 25.265625 0.953125 
Q 20.953125 3.328125 18.109375 8.203125 
z
M 48.6875 27.296875 
Q 48.6875 37.203125 44.609375 42.84375 
Q 40.53125 48.484375 33.40625 48.484375 
Q 26.265625 48.484375 22.1875 42.84375 
Q 18.109375 37.203125 18.109375 27.296875 
Q 18.109375 17.390625 22.1875 11.75 
Q 26.265625 6.109375 33.40625 6.109375 
Q 40.53125 6.109375 44.609375 11.75 
Q 48.6875 17.390625 48.6875 27.296875 
z
" id="DejaVuSans-112"/>
     <path d="M 56.203125 29.59375 
L 56.203125 25.203125 
L 14.890625 25.203125 
Q 15.484375 15.921875 20.484375 11.0625 
Q 25.484375 6.203125 34.421875 6.203125 
Q 39.59375 6.203125 44.453125 7.46875 
Q 49.3125 8.734375 54.109375 11.28125 
L 54.109375 2.78125 
Q 49.265625 0.734375 44.1875 -0.34375 
Q 39.109375 -1.421875 33.890625 -1.421875 
Q 20.796875 -1.421875 13.15625 6.1875 
Q 5.515625 13.8125 5.515625 26.8125 
Q 5.515625 40.234375 12.765625 48.109375 
Q 20.015625 56 32.328125 56 
Q 43.359375 56 49.78125 48.890625 
Q 56.203125 41.796875 56.203125 29.59375 
z
M 47.21875 32.234375 
Q 47.125 39.59375 43.09375 43.984375 
Q 39.0625 48.390625 32.421875 48.390625 
Q 24.90625 48.390625 20.390625 44.140625 
Q 15.875 39.890625 15.1875 32.171875 
z
" id="DejaVuSans-101"/>
     <path d="M 45.40625 46.390625 
L 45.40625 75.984375 
L 54.390625 75.984375 
L 54.390625 0 
L 45.40625 0 
L 45.40625 8.203125 
Q 42.578125 3.328125 38.25 0.953125 
Q 33.9375 -1.421875 27.875 -1.421875 
Q 17.96875 -1.421875 11.734375 6.484375 
Q 5.515625 14.40625 5.515625 27.296875 
Q 5.515625 40.1875 11.734375 48.09375 
Q 17.96875 56 27.875 56 
Q 33.9375 56 38.25 53.625 
Q 42.578125 51.265625 45.40625 46.390625 
z
M 14.796875 27.296875 
Q 14.796875 17.390625 18.875 11.75 
Q 22.953125 6.109375 30.078125 6.109375 
Q 37.203125 6.109375 41.296875 11.75 
Q 45.40625 17.390625 45.40625 27.296875 
Q 45.40625 37.203125 41.296875 42.84375 
Q 37.203125 48.484375 30.078125 48.484375 
Q 22.953125 48.484375 18.875 42.84375 
Q 14.796875 37.203125 14.796875 27.296875 
z
" id="DejaVuSans-100"/>
     <path d="M 8.6875 72.90625 
L 18.609375 72.90625 
L 18.609375 28.609375 
Q 18.609375 16.890625 22.84375 11.734375 
Q 27.09375 6.59375 36.625 6.59375 
Q 46.09375 6.59375 50.34375 11.734375 
Q 54.59375 16.890625 54.59375 28.609375 
L 54.59375 72.90625 
L 64.5 72.90625 
L 64.5 27.390625 
Q 64.5 13.140625 57.4375 5.859375 
Q 50.390625 -1.421875 36.625 -1.421875 
Q 22.796875 -1.421875 15.734375 5.859375 
Q 8.6875 13.140625 8.6875 27.390625 
z
" id="DejaVuSans-85"/>
     <path d="M 55.71875 33.015625 
L 49.3125 0 
L 40.28125 0 
L 46.6875 32.671875 
Q 47.125 34.96875 47.359375 36.71875 
Q 47.609375 38.484375 47.609375 39.5 
Q 47.609375 43.609375 45.015625 45.890625 
Q 42.4375 48.1875 37.796875 48.1875 
Q 30.5625 48.1875 25.34375 43.375 
Q 20.125 38.578125 18.5 30.328125 
L 12.5 0 
L 3.515625 0 
L 14.109375 54.6875 
L 23.09375 54.6875 
L 21.296875 46.09375 
Q 25.046875 50.828125 30.3125 53.40625 
Q 35.59375 56 41.40625 56 
Q 48.640625 56 52.609375 52.09375 
Q 56.59375 48.1875 56.59375 41.109375 
Q 56.59375 39.359375 56.375 37.359375 
Q 56.15625 35.359375 55.71875 33.015625 
z
" id="DejaVuSans-Oblique-110"/>
     <path d="M 60.015625 54.6875 
L 34.90625 27.875 
L 50.296875 0 
L 39.984375 0 
L 28.421875 21.6875 
L 8.296875 0 
L -2.59375 0 
L 24.3125 28.8125 
L 10.015625 54.6875 
L 20.3125 54.6875 
L 30.8125 34.90625 
L 49.125 54.6875 
z
" id="DejaVuSans-Oblique-120"/>
     <path d="M 10.59375 45.40625 
L 73.1875 45.40625 
L 73.1875 37.203125 
L 10.59375 37.203125 
z
M 10.59375 25.484375 
L 73.1875 25.484375 
L 73.1875 17.1875 
L 10.59375 17.1875 
z
" id="DejaVuSans-61"/>
     <path d="M 24.8125 -5.078125 
Q 18.5625 -15.578125 14.625 -18.1875 
Q 10.6875 -20.796875 4.59375 -20.796875 
L -2.484375 -20.796875 
L -0.984375 -13.28125 
L 4.203125 -13.28125 
Q 7.953125 -13.28125 10.59375 -11.234375 
Q 13.234375 -9.1875 16.5 -3.21875 
L 19.28125 2 
L 7.171875 54.6875 
L 16.703125 54.6875 
L 25.78125 12.796875 
L 50.875 54.6875 
L 60.296875 54.6875 
z
" id="DejaVuSans-Oblique-121"/>
    </defs>
    <g transform="translate(142.5 28.56)scale(0.12 -0.12)">
     <use transform="translate(0 0.015625)" xlink:href="#DejaVuSans-78"/>
     <use transform="translate(74.804688 0.015625)" xlink:href="#DejaVuSans-78"/>
     <use transform="translate(149.609375 0.015625)" xlink:href="#DejaVuSans-32"/>
     <use transform="translate(181.396484 0.015625)" xlink:href="#DejaVuSans-83"/>
     <use transform="translate(244.873047 0.015625)" xlink:href="#DejaVuSans-112"/>
     <use transform="translate(308.349609 0.015625)" xlink:href="#DejaVuSans-101"/>
     <use transform="translate(369.873047 0.015625)" xlink:href="#DejaVuSans-101"/>
     <use transform="translate(431.396484 0.015625)" xlink:href="#DejaVuSans-100"/>
     <use transform="translate(494.873047 0.015625)" xlink:href="#DejaVuSans-32"/>
     <use transform="translate(526.660156 0.015625)" xlink:href="#DejaVuSans-85"/>
     <use transform="translate(599.853516 0.015625)" xlink:href="#DejaVuSans-112"/>
     <use transform="translate(663.330078 0.015625)" xlink:href="#DejaVuSans-32"/>
     <use transform="translate(695.117188 0.015625)" xlink:href="#DejaVuSans-Oblique-110"/>
     <use transform="translate(758.496094 -16.390625)scale(0.7)" xlink:href="#DejaVuSans-Oblique-120"/>
     <use transform="translate(822.138672 0.015625)" xlink:href="#DejaVuSans-61"/>
     <use transform="translate(925.410156 0.015625)" xlink:href="#DejaVuSans-Oblique-110"/>
     <use transform="translate(988.789062 -16.390625)scale(0.7)" xlink:href="#DejaVuSans-Oblique-121"/>
     <use transform="translate(1052.431641 0.015625)" xlink:href="#DejaVuSans-61"/>
     <use transform="translate(1155.703125 0.015625)" xlink:href="#DejaVuSans-51"/>
     <use transform="translate(1219.326172 0.015625)" xlink:href="#DejaVuSans-48"/>
     <use transform="translate(1282.949219 0.015625)" xlink:href="#DejaVuSans-32"/>
    </g>
   </g>
  </g>
 </g>
 <defs>
  <clipPath id="peec4fe4422">
   <rect height="217.44" width="334.8" x="54" y="34.56"/>
  </clipPath>
 </defs>
</svg>
